<svg width="104" height="40" viewBox="0 0 104 40" fill="none" xmlns="http://www.w3.org/2000/svg">
<circle cx="84" cy="20" r="20" fill="white" fill-opacity="0.17"/>
<path d="M87.7071 20.7071C88.0976 20.3166 88.0976 19.6834 87.7071 19.2929L81.3431 12.9289C80.9526 12.5384 80.3195 12.5384 79.9289 12.9289C79.5384 13.3195 79.5384 13.9526 79.9289 14.3431L85.5858 20L79.9289 25.6569C79.5384 26.0474 79.5384 26.6805 79.9289 27.0711C80.3195 27.4616 80.9526 27.4616 81.3431 27.0711L87.7071 20.7071ZM86 21L87 21L87 19L86 19L86 21Z" fill="#FBEAFF"/>
<circle cx="20" cy="20" r="20" transform="matrix(-1 0 0 1 40 0)" fill="white" fill-opacity="0.17"/>
<path d="M16.2929 20.7071C15.9024 20.3166 15.9024 19.6834 16.2929 19.2929L22.6569 12.9289C23.0474 12.5384 23.6805 12.5384 24.0711 12.9289C24.4616 13.3195 24.4616 13.9526 24.0711 14.3431L18.4142 20L24.0711 25.6569C24.4616 26.0474 24.4616 26.6805 24.0711 27.0711C23.6805 27.4616 23.0474 27.4616 22.6569 27.0711L16.2929 20.7071ZM18 21L17 21L17 19L18 19L18 21Z" fill="#FBEAFF"/>
</svg>
