<svg width="94" height="41" viewBox="0 0 94 41" fill="none" xmlns="http://www.w3.org/2000/svg">
<path d="M9.86929 26.7538C8.53202 28.7997 8.04271 29.6404 7.74568 30.1658C7.14421 31.229 6.86813 31.8241 6.63026 32.4369C6.25311 33.4223 6.10151 34.1525 6.06453 34.3381C5.97702 34.7722 5.82419 35.5324 5.85131 36.3772C5.88828 37.4745 6.21243 38.4094 6.57726 39.1232C5.50128 38.4968 4.39818 37.6328 3.38999 36.4386C0.524399 33.0443 0.0905555 28.9825 0.0116748 27.4212C-0.170737 23.8412 1.78649 19.7222 5.73669 12.277C6.35664 11.106 6.96427 9.9254 7.55341 8.738C8.09694 7.6516 9.29741 5.35595 11.9498 0.544922C12.6067 1.82377 13.1404 2.8392 13.499 3.50933C14.2348 4.89191 14.5109 5.3696 14.824 6.2349C15.1974 7.25716 15.3552 8.07879 15.4624 8.64383C15.6054 9.41086 15.9123 11.0964 15.7447 13.2706C15.5475 15.8884 14.7722 17.81 14.2767 19.0138C13.854 20.0402 13.3893 20.9246 13.0553 21.5606C12.9308 21.7967 12.3565 22.8858 11.4272 24.3831C10.8997 25.2361 10.8898 25.1965 9.86929 26.7538Z" fill="white"/>
<path d="M24.2952 27.3531C24.2952 28.6183 24.1523 33.3051 20.9317 36.9451C17.5497 40.768 13.0892 40.8008 12.2055 40.7871C11.996 40.7844 11.2935 40.7598 10.3247 40.5619C9.76516 40.2726 9.13042 39.8017 8.64728 39.0238C8.51047 38.7986 8.07046 38.0711 7.95707 37.0216C7.88682 36.3583 7.97802 35.8369 8.06923 35.3224C8.12346 35.0057 8.2578 34.4038 8.63495 33.4211C8.87159 32.8056 9.14891 32.2133 9.75037 31.146C10.0486 30.6246 10.5379 29.7839 11.874 27.738C12.8945 26.1807 12.9007 26.2203 13.4331 25.3659C14.3624 23.8687 14.9368 22.7782 15.0613 22.5434C15.3953 21.9047 15.8575 21.023 16.2827 19.9967C16.7658 18.8188 17.8233 16.2625 17.8652 11.562C22.6215 20.5794 24.2952 23.3323 24.2952 27.3531Z" fill="#DDBDDB"/>
<path d="M52.4807 25.291H48.6611V40.7859H52.4807V25.291Z" fill="#DDBDDB"/>
<path d="M41.1786 19.2017H37.3418V22.8362H41.1786V19.2017Z" fill="white"/>
<path d="M46.2152 19.2017H42.3784V22.8362H46.2152V19.2017Z" fill="white"/>
<path d="M73.3071 27.5416C72.8782 26.8401 72.2829 26.2901 71.52 25.8902C70.7842 25.4903 70.0015 25.291 69.1708 25.291H54.3203V40.7859H69.1708C70.0151 40.7859 70.7953 40.5867 71.5101 40.1868C72.2521 39.7869 72.8486 39.2369 73.2973 38.5353C73.7743 37.8338 74.0023 37.0763 73.9813 36.2629V29.8168C74.001 29.0006 73.7767 28.2431 73.3071 27.5416ZM70.1618 35.5259C70.1618 36.0159 69.988 36.4417 69.6404 36.8034C69.3002 37.135 68.875 37.3124 68.3635 37.3356H58.1399V28.7399H68.3635C68.8738 28.7167 69.3002 28.8914 69.6404 29.2599C69.988 29.5998 70.1618 30.0297 70.1618 30.5497V35.5259Z" fill="#DDBDDB"/>
<path d="M93.1311 28.7413V25.291H75.8501V40.7859H93.1311V37.3356H79.6697V34.6674H93.0325V31.2744H79.6697V28.7413H93.1311Z" fill="#DDBDDB"/>
<path d="M77.8814 16.6821C78.8268 17.445 79.9286 17.8258 81.1845 17.8258C82.4602 17.8258 83.5571 17.4409 84.4754 16.6725C85.4232 17.4409 86.5287 17.8258 87.7896 17.8258C89.2415 17.8258 90.4617 17.3277 91.4501 16.3327C92.4546 15.3446 92.9821 14.1394 93.0327 12.7132V5.46455H89.1194V12.7623C89.1453 13.124 89.0135 13.4338 88.7275 13.6904C88.4748 13.9388 88.1618 14.063 87.7908 14.063C87.4198 14.0562 87.1031 13.9279 86.8418 13.6781C86.5805 13.4297 86.4498 13.124 86.4498 12.7623C86.4498 11.7223 86.4535 9.30791 86.4622 7.13647C86.4696 6.53321 86.4745 5.97909 86.4769 5.46455H86.4301H82.5613H82.5169V12.7623C82.5428 13.124 82.4109 13.4338 82.125 13.6904C81.9253 13.8869 81.6886 14.0043 81.4163 14.0466H80.9837C80.6989 14.0043 80.45 13.8815 80.238 13.6795C79.9767 13.4311 79.846 13.1253 79.846 12.7637C79.846 12.7555 79.846 12.7459 79.846 12.7377C79.846 12.7295 79.8473 12.7227 79.8473 12.7145V11.4643C79.8485 10.2647 79.8534 8.64324 79.8584 7.13919C79.8658 6.53594 79.8707 5.98182 79.8732 5.46728H79.846H75.9575H75.9328V12.765C75.9587 13.1267 75.8268 13.4365 75.5409 13.6931C75.3412 13.8896 75.1046 14.007 74.8322 14.0493H74.8297H74.3996H69.546H58.9673H54.3257H54.1149C54.0484 14.0589 53.9806 14.0657 53.9103 14.0671C53.8314 14.0671 53.7563 14.0616 53.6823 14.0493C53.4087 14.0084 53.1733 13.8896 52.9736 13.6931C52.6864 13.4365 52.5558 13.1281 52.5817 12.765V0.542969H48.6685V12.7145C48.6857 13.1827 48.7535 13.6276 48.8731 14.048C49.1171 14.9078 49.5768 15.6707 50.251 16.3341C51.2395 17.329 52.4584 17.8272 53.9116 17.8272C54.0521 17.8272 54.1901 17.8217 54.3269 17.8122V17.8163H74.248C74.3651 17.8231 74.4822 17.8272 74.6017 17.8272C75.8724 17.8258 76.9657 17.445 77.8814 16.6821Z" fill="white"/>
<path d="M45.3367 32.5751C44.3729 31.6252 43.1958 31.1543 41.8031 31.1612C40.8257 31.138 39.3085 31.138 37.2527 31.1612C35.1968 31.1693 33.6772 31.1721 32.6924 31.1721C32.3498 31.1721 32.0601 31.0547 31.8247 30.8213C31.5893 30.5879 31.4673 30.3054 31.4611 29.9738C31.4611 29.6421 31.5794 29.3623 31.8148 29.1371C32.0576 28.8805 32.3498 28.7645 32.6924 28.7864H41.0328L46.0232 28.7754C45.8174 27.9825 45.3959 27.2768 44.7587 26.6599C43.8232 25.7482 42.6819 25.291 41.3323 25.291H31.9751C30.6267 25.3361 29.4842 25.8083 28.5499 26.705C27.6083 27.5867 27.1362 28.6772 27.1362 29.9738C27.1362 31.2553 27.607 32.3567 28.5499 33.2766C29.4916 34.1815 30.6341 34.6374 31.9751 34.6456H41.4284C41.8142 34.6456 42.1457 34.7807 42.4243 35.0523C42.7028 35.3157 42.8421 35.6405 42.8421 36.0254C42.8421 36.3953 42.7065 36.7147 42.4354 36.9863C42.1642 37.2278 41.829 37.3602 41.4284 37.3821H32.2647C32.1402 37.3821 32.0207 37.367 31.9073 37.3397H27.2915C27.5146 38.1027 27.9374 38.7851 28.5598 39.3843C29.5446 40.3192 30.7216 40.7873 32.0922 40.7873H41.8019C43.1934 40.7873 44.368 40.3205 45.3244 39.3843C46.3092 38.4493 46.7985 37.3152 46.7911 35.9804C46.8133 34.6442 46.3277 33.51 45.3367 32.5751Z" fill="#DDBDDB"/>
<path d="M46.7687 6.46352V5.46582H42.8555V12.7636C42.8814 13.1253 42.7495 13.4351 42.4636 13.6917C42.2134 13.9373 41.9052 14.0615 41.5392 14.0643C41.4714 14.0629 41.4061 14.0574 41.3432 14.0479H41.3223C41.0375 14.0056 40.7886 13.8827 40.5766 13.6807C40.3831 13.4965 40.2611 13.2808 40.2105 13.0352C40.2204 12.9301 40.2266 12.8236 40.2303 12.7158V5.46719H40.2118H36.317H36.2961V12.7158C36.2973 12.8223 36.301 12.926 36.3072 13.0297C36.2677 13.2808 36.1396 13.5019 35.9251 13.693C35.7254 13.8896 35.4888 14.0069 35.2164 14.0492H34.8824H34.4498H34.329H32.3853H27.1533V17.8271C27.1607 17.8271 27.1669 17.8271 27.1743 17.8271C27.2951 17.8271 32.3964 17.823 32.5147 17.8162H34.3006C34.4177 17.823 34.5348 17.8271 34.6544 17.8271C35.9917 17.8271 37.133 17.404 38.0758 16.5605C39.0544 17.4054 40.2044 17.8271 41.5256 17.8271C41.5293 17.8271 41.533 17.8271 41.5367 17.8271C41.5404 17.8271 41.5441 17.8271 41.5478 17.8271C42.9997 17.8271 44.2199 17.3289 45.2084 16.334C45.8825 15.6707 46.3423 14.9091 46.5863 14.0479C46.7059 13.6275 46.7749 13.1826 46.7909 12.7144V6.46352H46.7687Z" fill="white"/>
</svg>
