<svg width="98" height="48" viewBox="0 0 98 48" fill="none" xmlns="http://www.w3.org/2000/svg">
<g clip-path="url(#clip0_382_408)">
<path d="M49 3C49.1326 3 49.2598 3.05268 49.3536 3.14645C49.4473 3.24021 49.5 3.36739 49.5 3.5V5.5C49.5 5.63261 49.4473 5.75979 49.3536 5.85355C49.2598 5.94732 49.1326 6 49 6C48.8674 6 48.7402 5.94732 48.6464 5.85355C48.5527 5.75979 48.5 5.63261 48.5 5.5V3.5C48.5 3.36739 48.5527 3.24021 48.6464 3.14645C48.7402 3.05268 48.8674 3 49 3ZM53 11C53 12.0609 52.5786 13.0783 51.8284 13.8284C51.0783 14.5786 50.0609 15 49 15C47.9391 15 46.9217 14.5786 46.1716 13.8284C45.4214 13.0783 45 12.0609 45 11V5C45 3.93913 45.4214 2.92172 46.1716 2.17157C46.9217 1.42143 47.9391 1 49 1C50.0609 1 51.0783 1.42143 51.8284 2.17157C52.5786 2.92172 53 3.93913 53 5V11ZM49 0C47.6739 0 46.4021 0.526784 45.4645 1.46447C44.5268 2.40215 44 3.67392 44 5V11C44 12.3261 44.5268 13.5979 45.4645 14.5355C46.4021 15.4732 47.6739 16 49 16C50.3261 16 51.5979 15.4732 52.5355 14.5355C53.4732 13.5979 54 12.3261 54 11V5C54 3.67392 53.4732 2.40215 52.5355 1.46447C51.5979 0.526784 50.3261 0 49 0V0Z" fill="white"/>
</g>
<path d="M7.15 39.064H8.788V40H7.15V39.064ZM1.937 42.184H4.446C5.16533 42.184 5.655 42.1363 5.915 42.041C6.18367 41.9543 6.318 41.7723 6.318 41.495L6.318 31.836H7.15L7.15 40.585C7.15 41.105 7.10667 41.5297 7.02 41.859C6.93333 42.1883 6.76867 42.444 6.526 42.626C6.292 42.808 5.954 42.9337 5.512 43.003C5.07867 43.081 4.511 43.12 3.809 43.12C3.185 43.12 2.68233 43.0767 2.301 42.99C1.92833 42.912 1.64233 42.769 1.443 42.561C1.24367 42.353 1.10933 42.0627 1.04 41.69C0.970667 41.326 0.936 40.8537 0.936 40.273C0.936 39.909 0.949 39.5277 0.975 39.129C1.00967 38.7217 1.05733 38.336 1.118 37.972C1.17867 37.5993 1.24367 37.2787 1.313 37.01L2.08 37.153C1.976 37.6817 1.898 38.1973 1.846 38.7C1.794 39.194 1.768 39.6533 1.768 40.078C1.768 40.52 1.781 40.9013 1.807 41.222C1.833 41.5513 1.87633 41.872 1.937 42.184ZM15.5253 39.064H17.1633V40H15.5253V39.064ZM8.27125 39.064H10.3903C10.3643 38.83 10.3383 38.5353 10.3123 38.18C10.2949 37.816 10.2863 37.3307 10.2863 36.724C10.2863 36.1347 10.3209 35.6493 10.3903 35.268C10.4596 34.878 10.5853 34.579 10.7673 34.371C10.9493 34.1543 11.2136 34.0027 11.5603 33.916C11.9069 33.8207 12.3489 33.773 12.8863 33.773C13.3283 33.773 13.7486 33.8033 14.1473 33.864C14.5459 33.916 15.0053 34.0113 15.5253 34.15V40H8.27125V39.064ZM14.0823 39.064C14.3163 39.064 14.4766 39.0163 14.5633 38.921C14.6499 38.817 14.6933 38.635 14.6933 38.375V34.735H11.7943C11.5516 34.735 11.3869 34.787 11.3003 34.891C11.2223 34.995 11.1833 35.1987 11.1833 35.502V39.064H14.0823ZM12.8863 32.317C12.8083 32.317 12.7173 32.2823 12.6133 32.213C12.5179 32.1437 12.4313 32.057 12.3532 31.953C12.2839 31.849 12.2493 31.758 12.2493 31.68C12.2493 31.5933 12.2839 31.5023 12.3532 31.407C12.4313 31.3117 12.5179 31.2293 12.6133 31.16C12.7173 31.082 12.8083 31.043 12.8863 31.043C12.9729 31.043 13.0639 31.082 13.1593 31.16C13.2633 31.2293 13.3499 31.3117 13.4193 31.407C13.4886 31.5023 13.5233 31.5933 13.5233 31.68C13.5233 31.758 13.4843 31.849 13.4063 31.953C13.3369 32.0483 13.2503 32.135 13.1463 32.213C13.0509 32.2823 12.9643 32.317 12.8863 32.317ZM25.0745 40C24.5371 40 24.1038 39.9697 23.7745 39.909C23.4451 39.8397 23.1895 39.7227 23.0075 39.558C22.8341 39.3847 22.7128 39.1507 22.6435 38.856C22.5828 38.5613 22.5525 38.1843 22.5525 37.725V35.06H23.3845V38.375C23.3845 38.6523 23.4581 38.8387 23.6055 38.934C23.7615 39.0207 24.0301 39.064 24.4115 39.064H26.1925C26.2531 38.726 26.2965 38.3707 26.3225 37.998C26.3485 37.6167 26.3615 37.179 26.3615 36.685C26.3615 36.3037 26.3311 35.8877 26.2705 35.437C26.2098 34.9863 26.1275 34.527 26.0235 34.059L26.8425 33.929C26.9031 34.137 26.9595 34.41 27.0115 34.748C27.0635 35.0773 27.1068 35.411 27.1415 35.749C27.1761 36.087 27.1935 36.3903 27.1935 36.659C27.1935 37.5083 27.1415 38.1757 27.0375 38.661C26.9335 39.1463 26.7298 39.493 26.4265 39.701C26.1318 39.9003 25.6811 40 25.0745 40ZM20.9405 40H19.5755V39.064H21.5255C21.8981 39.064 22.1625 39.0207 22.3185 38.934C22.4745 38.8387 22.5525 38.6523 22.5525 38.375V35.06H23.3845V37.725C23.3845 38.1843 23.3541 38.5657 23.2935 38.869C23.2328 39.1637 23.1158 39.3933 22.9425 39.558C22.7691 39.7227 22.5221 39.8397 22.2015 39.909C21.8808 39.9697 21.4605 40 20.9405 40ZM19.5755 40H16.6375V39.064H18.7435V35.06H19.5755V40ZM34.3658 35.125V31.81H35.1978V34.527C35.1978 34.7523 35.1675 34.9647 35.1068 35.164C35.0548 35.3633 34.9681 35.5367 34.8468 35.684C34.7341 35.8313 34.5781 35.9397 34.3788 36.009V36.1C34.8121 36.4553 35.1068 36.7803 35.2628 37.075C35.4275 37.361 35.5098 37.6817 35.5098 38.037C35.5098 38.791 35.2455 39.3413 34.7168 39.688C34.1968 40.026 33.3561 40.195 32.1948 40.195C31.4668 40.195 30.8948 40.1387 30.4788 40.026C30.0715 39.9133 29.7855 39.727 29.6208 39.467C29.4561 39.207 29.3738 38.856 29.3738 38.414C29.3738 38.0153 29.4215 37.699 29.5168 37.465C29.6121 37.231 29.7941 37.0317 30.0628 36.867C30.3315 36.6937 30.7215 36.5073 31.2328 36.308L34.3658 35.125ZM30.2578 39.259H32.9748C33.5555 39.259 33.9758 39.1463 34.2358 38.921C34.4958 38.687 34.6258 38.4227 34.6258 38.128C34.6258 37.9287 34.5695 37.7207 34.4568 37.504C34.3528 37.2873 34.2011 37.101 34.0018 36.945L33.3778 36.451L30.2578 37.621V39.259ZM32.8838 36.074L29.7378 33.539L30.2708 32.876L33.8198 35.736L32.8838 36.074ZM30.9858 30.497L32.1168 30.185V30.718L29.1788 31.498V30.978L29.7768 30.809C29.7161 30.6963 29.6728 30.5577 29.6468 30.393C29.6208 30.2283 29.6078 30.0247 29.6078 29.782C29.6078 29.288 29.6988 28.911 29.8808 28.651C30.0628 28.391 30.3185 28.2133 30.6478 28.118C30.9858 28.014 31.3758 27.9707 31.8178 27.988V28.638C31.5751 28.638 31.3151 28.664 31.0378 28.716C30.7691 28.768 30.5481 28.8503 30.3748 28.963L30.3488 30.224C30.3488 30.3887 30.3965 30.4927 30.4918 30.536C30.5871 30.5707 30.7518 30.5577 30.9858 30.497ZM46.7641 33.89V40H43.6571C43.1198 40 42.6821 39.9653 42.3441 39.896C42.0061 39.818 41.7505 39.6707 41.5771 39.454C41.4038 39.2373 41.2825 38.9297 41.2131 38.531C41.1525 38.1323 41.1221 37.6037 41.1221 36.945C41.1221 36.2863 41.1525 35.7577 41.2131 35.359C41.2825 34.9603 41.4038 34.6527 41.5771 34.436C41.7505 34.2193 42.0061 34.0763 42.3441 34.007C42.6821 33.929 43.1198 33.89 43.6571 33.89H46.7641ZM45.9321 34.826H42.9941C42.6388 34.826 42.3831 34.8867 42.2271 35.008C42.0798 35.1293 42.0061 35.333 42.0061 35.619V38.271C42.0061 38.557 42.0798 38.7607 42.2271 38.882C42.3831 39.0033 42.6388 39.064 42.9941 39.064H45.9321V34.826ZM43.2281 32.317C43.1501 32.317 43.0591 32.2823 42.9551 32.213C42.8598 32.1437 42.7731 32.057 42.6951 31.953C42.6258 31.849 42.5911 31.758 42.5911 31.68C42.5911 31.5933 42.6258 31.5023 42.6951 31.407C42.7731 31.3117 42.8598 31.2293 42.9551 31.16C43.0591 31.082 43.1501 31.043 43.2281 31.043C43.3148 31.043 43.4058 31.082 43.5011 31.16C43.6051 31.2293 43.6918 31.3117 43.7611 31.407C43.8305 31.5023 43.8651 31.5933 43.8651 31.68C43.8651 31.758 43.8261 31.849 43.7481 31.953C43.6788 32.0483 43.5921 32.135 43.4881 32.213C43.3928 32.2823 43.3061 32.317 43.2281 32.317ZM44.9701 32.317C44.8921 32.317 44.8011 32.2823 44.6971 32.213C44.6018 32.1437 44.5151 32.057 44.4371 31.953C44.3678 31.849 44.3331 31.758 44.3331 31.68C44.3331 31.5933 44.3678 31.5023 44.4371 31.407C44.5151 31.3117 44.6018 31.2293 44.6971 31.16C44.8011 31.082 44.8921 31.043 44.9701 31.043C45.0568 31.043 45.1478 31.082 45.2431 31.16C45.3471 31.2293 45.4338 31.3117 45.5031 31.407C45.5725 31.5023 45.6071 31.5933 45.6071 31.68C45.6071 31.758 45.5681 31.849 45.4901 31.953C45.4208 32.0483 45.3341 32.135 45.2301 32.213C45.1348 32.2823 45.0481 32.317 44.9701 32.317ZM48.9076 43.302L48.5306 42.587C48.8686 42.4137 49.1373 42.2187 49.3366 42.002C49.536 41.7853 49.679 41.521 49.7656 41.209C49.8523 40.897 49.8956 40.52 49.8956 40.078V33.89H50.7276V40.078C50.7276 40.6153 50.667 41.0833 50.5456 41.482C50.4243 41.8893 50.2293 42.236 49.9606 42.522C49.692 42.8167 49.341 43.0767 48.9076 43.302ZM53.4796 40V33.89H54.3116V39.064H55.9496V40L53.4796 40ZM54.2336 31.472L55.3646 31.16V31.693L52.4266 32.473V31.953L53.0246 31.784C52.9639 31.6713 52.9206 31.5327 52.8946 31.368C52.8686 31.2033 52.8556 30.9997 52.8556 30.757C52.8556 30.263 52.9466 29.886 53.1286 29.626C53.3106 29.366 53.5662 29.1883 53.8956 29.093C54.2336 28.989 54.6236 28.9457 55.0656 28.963V29.613C54.8229 29.613 54.5629 29.639 54.2856 29.691C54.0169 29.743 53.7959 29.8253 53.6226 29.938L53.5966 31.199C53.5966 31.3637 53.6442 31.4677 53.7396 31.511C53.8349 31.5457 53.9996 31.5327 54.2336 31.472ZM62.6883 39.064H64.3263V40H62.6883V39.064ZM55.4343 39.064H57.5533C57.5273 38.83 57.5013 38.5353 57.4753 38.18C57.458 37.816 57.4493 37.3307 57.4493 36.724C57.4493 36.1347 57.484 35.6493 57.5533 35.268C57.6227 34.878 57.7483 34.579 57.9303 34.371C58.1123 34.1543 58.3767 34.0027 58.7233 33.916C59.07 33.8207 59.512 33.773 60.0493 33.773C60.4913 33.773 60.9117 33.8033 61.3103 33.864C61.709 33.916 62.1683 34.0113 62.6883 34.15V40H55.4343V39.064ZM61.2453 39.064C61.4793 39.064 61.6397 39.0163 61.7263 38.921C61.813 38.817 61.8563 38.635 61.8563 38.375V34.735L58.9573 34.735C58.7147 34.735 58.55 34.787 58.4633 34.891C58.3853 34.995 58.3463 35.1987 58.3463 35.502V39.064L61.2453 39.064ZM60.0493 32.317C59.9713 32.317 59.8803 32.2823 59.7763 32.213C59.681 32.1437 59.5943 32.057 59.5163 31.953C59.447 31.849 59.4123 31.758 59.4123 31.68C59.4123 31.5933 59.447 31.5023 59.5163 31.407C59.5943 31.3117 59.681 31.2293 59.7763 31.16C59.8803 31.082 59.9713 31.043 60.0493 31.043C60.136 31.043 60.227 31.082 60.3223 31.16C60.4263 31.2293 60.513 31.3117 60.5823 31.407C60.6517 31.5023 60.6863 31.5933 60.6863 31.68C60.6863 31.758 60.6473 31.849 60.5693 31.953C60.5 32.0483 60.4133 32.135 60.3093 32.213C60.214 32.2823 60.1273 32.317 60.0493 32.317ZM66.7385 40H63.8005V39.064H65.9065V31.81H66.7385V40ZM69.4884 40V31.81H70.3204V40H69.4884ZM77.0951 39.064H84.2581V31.81H85.0901V40H77.7581C77.3334 40 76.9954 39.9177 76.7441 39.753C76.4927 39.5797 76.3107 39.3023 76.1981 38.921C76.0941 38.531 76.0421 38.011 76.0421 37.361C76.0421 36.9883 76.0724 36.5897 76.1331 36.165C76.2024 35.7317 76.2891 35.3807 76.3931 35.112L77.1731 35.255C77.0777 35.6103 77.0041 35.9613 76.9521 36.308C76.9001 36.646 76.8741 36.958 76.8741 37.244C76.8741 37.6253 76.8871 37.959 76.9131 38.245C76.9477 38.531 77.0084 38.804 77.0951 39.064ZM80.9561 34.072L82.0871 33.76V34.293L79.1491 35.073V34.553L79.7471 34.384C79.6864 34.2713 79.6431 34.1327 79.6171 33.968C79.5911 33.8033 79.5781 33.5997 79.5781 33.357C79.5781 32.863 79.6691 32.486 79.8511 32.226C80.0417 31.966 80.3017 31.7883 80.6311 31.693C80.9604 31.589 81.3461 31.5457 81.7881 31.563V32.213C81.5454 32.213 81.2854 32.239 81.0081 32.291C80.7394 32.343 80.5184 32.4253 80.3451 32.538L80.3191 33.799C80.3191 33.9637 80.3667 34.0677 80.4621 34.111C80.5574 34.1457 80.7221 34.1327 80.9561 34.072ZM88.826 39.064H90.464V40H88.826V39.064ZM87.019 43.302L86.642 42.587C86.98 42.4137 87.2486 42.2187 87.448 42.002C87.6473 41.7853 87.7903 41.521 87.877 41.209C87.9636 40.897 88.007 40.52 88.007 40.078V33.89H88.839V40.078C88.839 40.6153 88.7783 41.0833 88.657 41.482C88.5356 41.8893 88.3406 42.236 88.072 42.522C87.8033 42.8167 87.4523 43.0767 87.019 43.302ZM96.1282 36.646H97.3242V37.582H96.2712C96.0199 37.582 95.8205 37.5257 95.6732 37.413C95.5345 37.2917 95.4175 37.1053 95.3222 36.854C95.1229 36.2993 94.8845 35.866 94.6072 35.554C94.3385 35.242 93.9919 35.0253 93.5672 34.904C93.1512 34.774 92.6269 34.709 91.9942 34.709C91.8469 34.709 91.6952 34.7133 91.5392 34.722C91.3832 34.722 91.2185 34.7307 91.0452 34.748L90.9022 33.838C91.1362 33.8207 91.3572 33.8077 91.5652 33.799C91.7732 33.7817 91.9725 33.773 92.1632 33.773C92.8912 33.773 93.5022 33.8727 93.9962 34.072C94.4989 34.2627 94.9192 34.566 95.2572 34.982C95.5952 35.398 95.8855 35.9527 96.1282 36.646ZM95.4522 36.698L96.2192 37.062C96.0632 37.452 95.8639 37.8247 95.6212 38.18C95.3872 38.5267 95.1012 38.8387 94.7632 39.116C94.4339 39.3847 94.0439 39.6013 93.5932 39.766C93.1512 39.922 92.6399 40 92.0592 40H89.9402V39.064H92.3842C92.7829 39.064 93.1425 38.9903 93.4632 38.843C93.7925 38.687 94.0829 38.492 94.3342 38.258C94.5942 38.024 94.8152 37.7727 94.9972 37.504C95.1879 37.2267 95.3395 36.958 95.4522 36.698Z" fill="white"/>
<defs>
<clipPath id="clip0_382_408">
<rect width="16" height="16" fill="white" transform="translate(41)"/>
</clipPath>
</defs>
</svg>
