<svg width="509" height="429" viewBox="0 0 509 429" fill="none" xmlns="http://www.w3.org/2000/svg">
<g clip-path="url(#clip0_382_444)">
<path d="M0.5 127.628L68.7831 0L149.295 150.484H12.7503L0.5 127.628Z" fill="#4D2854"/>
<path d="M359.705 278.112L427.988 150.484L508.5 300.967H371.955L359.705 278.112Z" fill="#4D2854"/>
<path d="M310.004 0.297852H68.4293L68.6044 0.625448L0.5 127.926H378.287L310.004 0.297852Z" fill="#743C7F"/>
<path d="M427.705 150.301V150.297H12.5L80.8013 277.925H495.988L427.705 150.301Z" fill="#743C7F"/>
<path d="M439.902 428.922V428.926H198.783L130.5 301.298H508.302L439.902 428.922Z" fill="#743C7F"/>
<path d="M156.636 71.4174H160.156V74.2974H156.636V71.4174ZM156.732 59.2574V74.2974H148.924C147.559 74.2974 146.439 74.2014 145.564 74.0094C144.711 73.8174 144.06 73.4547 143.612 72.9214C143.164 72.388 142.855 71.6307 142.684 70.6494C142.513 69.668 142.428 68.3774 142.428 66.7774C142.428 65.1774 142.513 63.8867 142.684 62.9054C142.855 61.924 143.164 61.1667 143.612 60.6334C144.06 60.1 144.711 59.7374 145.564 59.5454C146.439 59.3534 147.559 59.2574 148.924 59.2574H156.732ZM154.172 62.1374H147.356C146.567 62.1374 146.001 62.276 145.66 62.5534C145.319 62.8307 145.148 63.2894 145.148 63.9294V69.6254C145.148 70.2654 145.319 70.724 145.66 71.0014C146.001 71.2787 146.567 71.4174 147.356 71.4174H154.172V62.1374ZM147.324 55.4174C147.111 55.4174 146.865 55.3214 146.588 55.1294C146.311 54.9374 146.065 54.7027 145.852 54.4254C145.66 54.1267 145.564 53.8707 145.564 53.6574C145.564 53.4227 145.66 53.1774 145.852 52.9214C146.065 52.644 146.311 52.4094 146.588 52.2174C146.865 52.004 147.111 51.8974 147.324 51.8974C147.559 51.8974 147.804 52.004 148.06 52.2174C148.337 52.4094 148.572 52.644 148.764 52.9214C148.977 53.1774 149.084 53.4227 149.084 53.6574C149.084 53.8707 148.977 54.116 148.764 54.3934C148.572 54.6707 148.337 54.916 148.06 55.1294C147.783 55.3214 147.537 55.4174 147.324 55.4174ZM151.932 55.4174C151.719 55.4174 151.473 55.3214 151.196 55.1294C150.919 54.9374 150.673 54.7027 150.46 54.4254C150.268 54.1267 150.172 53.8707 150.172 53.6574C150.172 53.4227 150.268 53.1774 150.46 52.9214C150.673 52.644 150.919 52.4094 151.196 52.2174C151.473 52.004 151.719 51.8974 151.932 51.8974C152.167 51.8974 152.412 52.004 152.668 52.2174C152.945 52.4094 153.18 52.644 153.372 52.9214C153.585 53.1774 153.692 53.4227 153.692 53.6574C153.692 53.8707 153.585 54.116 153.372 54.3934C153.18 54.6707 152.945 54.916 152.668 55.1294C152.391 55.3214 152.145 55.4174 151.932 55.4174ZM179.745 71.4174V74.2974H158.881V71.4174H179.745ZM179.745 74.2974V62.1694C178.998 61.9347 177.814 61.8174 176.193 61.8174C172.929 61.8174 170.507 62.7027 168.929 64.4734C167.35 66.2227 166.561 68.9214 166.561 72.5694H164.001V54.1374H166.561V65.1454C167.051 63.8227 167.798 62.7027 168.801 61.7854C169.803 60.8467 171.03 60.1427 172.481 59.6734C173.931 59.1827 175.563 58.9374 177.377 58.9374C178.614 58.9374 179.585 59.0547 180.289 59.2894C181.014 59.524 181.526 59.9187 181.825 60.4734C182.145 61.028 182.305 61.796 182.305 62.7774V74.2974H179.745ZM188.533 74.2974V54.1374H191.093V71.4174H194.933V74.2974H188.533ZM214.974 74.2974C213.608 74.2974 212.499 74.212 211.646 74.0414C210.792 73.8707 210.131 73.5614 209.662 73.1134C209.214 72.6654 208.904 72.0467 208.734 71.2574C208.563 70.468 208.478 69.4654 208.478 68.2494V62.1374H211.038V69.7214C211.038 70.404 211.23 70.8627 211.614 71.0974C211.998 71.3107 212.638 71.4174 213.534 71.4174H217.79C217.939 70.6707 218.035 69.8814 218.078 69.0494C218.142 68.196 218.174 67.2147 218.174 66.1054C218.174 65.1667 218.099 64.1534 217.95 63.0654C217.8 61.9774 217.598 60.868 217.342 59.7374L219.87 59.3214C220.019 59.876 220.158 60.5587 220.286 61.3694C220.414 62.1587 220.52 62.9694 220.606 63.8014C220.691 64.612 220.734 65.348 220.734 66.0094C220.734 68.1214 220.574 69.7854 220.254 71.0014C219.934 72.196 219.358 73.0494 218.526 73.5614C217.715 74.052 216.531 74.2974 214.974 74.2974ZM204.542 74.2974H201.342V71.4174H205.982C206.878 71.4174 207.518 71.3107 207.902 71.0974C208.286 70.8627 208.478 70.404 208.478 69.7214V62.1374H211.038V68.2494C211.038 69.4654 210.952 70.468 210.782 71.2574C210.632 72.0467 210.323 72.6654 209.854 73.1134C209.406 73.5614 208.755 73.8707 207.902 74.0414C207.048 74.212 205.928 74.2974 204.542 74.2974ZM201.342 74.2974H193.662V71.4174H198.782V62.1374H201.342V74.2974ZM218.654 71.4174H224.574V74.2974H214.974L218.654 71.4174ZM230.967 71.4174H234.807V74.2974H223.287V71.4174H228.407V59.2574H230.967V71.4174ZM229.687 80.3774C229.473 80.3774 229.228 80.2814 228.951 80.0894C228.673 79.8974 228.428 79.652 228.215 79.3534C228.023 79.076 227.927 78.8307 227.927 78.6174C227.927 78.3827 228.023 78.1267 228.215 77.8494C228.428 77.5934 228.673 77.3587 228.951 77.1454C229.228 76.9534 229.473 76.8574 229.687 76.8574C229.921 76.8574 230.167 76.9534 230.423 77.1454C230.7 77.3587 230.935 77.5934 231.127 77.8494C231.34 78.1267 231.447 78.3827 231.447 78.6174C231.447 78.8307 231.34 79.076 231.127 79.3534C230.935 79.6307 230.7 79.8654 230.423 80.0574C230.145 80.2707 229.9 80.3774 229.687 80.3774ZM241.217 74.2974H233.537V71.4174H238.657V54.1374H241.217V74.2974ZM247.627 74.2974V54.1374H250.187V74.2974H247.627Z" fill="white"/>
<path d="M240.436 221.417H243.956V224.297H240.436V221.417ZM240.532 209.257V224.297H232.724C231.359 224.297 230.239 224.201 229.364 224.009C228.511 223.817 227.86 223.455 227.412 222.921C226.964 222.388 226.655 221.631 226.484 220.649C226.313 219.668 226.228 218.377 226.228 216.777C226.228 215.177 226.313 213.887 226.484 212.905C226.655 211.924 226.964 211.167 227.412 210.633C227.86 210.1 228.511 209.737 229.364 209.545C230.239 209.353 231.359 209.257 232.724 209.257H240.532ZM237.972 212.137H231.156C230.367 212.137 229.801 212.276 229.46 212.553C229.119 212.831 228.948 213.289 228.948 213.929V219.625C228.948 220.265 229.119 220.724 229.46 221.001C229.801 221.279 230.367 221.417 231.156 221.417H237.972V212.137ZM231.124 205.417C230.911 205.417 230.665 205.321 230.388 205.129C230.111 204.937 229.865 204.703 229.652 204.425C229.46 204.127 229.364 203.871 229.364 203.657C229.364 203.423 229.46 203.177 229.652 202.921C229.865 202.644 230.111 202.409 230.388 202.217C230.665 202.004 230.911 201.897 231.124 201.897C231.359 201.897 231.604 202.004 231.86 202.217C232.137 202.409 232.372 202.644 232.564 202.921C232.777 203.177 232.884 203.423 232.884 203.657C232.884 203.871 232.777 204.116 232.564 204.393C232.372 204.671 232.137 204.916 231.86 205.129C231.583 205.321 231.337 205.417 231.124 205.417ZM235.732 205.417C235.519 205.417 235.273 205.321 234.996 205.129C234.719 204.937 234.473 204.703 234.26 204.425C234.068 204.127 233.972 203.871 233.972 203.657C233.972 203.423 234.068 203.177 234.26 202.921C234.473 202.644 234.719 202.409 234.996 202.217C235.273 202.004 235.519 201.897 235.732 201.897C235.967 201.897 236.212 202.004 236.468 202.217C236.745 202.409 236.98 202.644 237.172 202.921C237.385 203.177 237.492 203.423 237.492 203.657C237.492 203.871 237.385 204.116 237.172 204.393C236.98 204.671 236.745 204.916 236.468 205.129C236.191 205.321 235.945 205.417 235.732 205.417ZM260.888 221.417H264.728V224.297H260.888V221.417ZM242.68 221.417H247.8C247.694 220.82 247.608 220.105 247.544 219.273C247.502 218.441 247.48 217.343 247.48 215.977C247.48 214.591 247.576 213.449 247.768 212.553C247.96 211.636 248.302 210.921 248.792 210.409C249.283 209.876 249.966 209.503 250.84 209.289C251.715 209.055 252.835 208.937 254.2 208.937C255.374 208.937 256.462 209.012 257.464 209.161C258.467 209.311 259.608 209.567 260.888 209.929V224.297H242.68V221.417ZM256.856 221.417C257.411 221.417 257.795 221.3 258.008 221.065C258.222 220.831 258.328 220.415 258.328 219.817V211.881H251.672C251.096 211.881 250.702 211.999 250.488 212.233C250.296 212.468 250.2 212.937 250.2 213.641V221.417H256.856ZM251.896 205.417C251.683 205.417 251.438 205.321 251.16 205.129C250.883 204.937 250.638 204.703 250.424 204.425C250.232 204.127 250.136 203.871 250.136 203.657C250.136 203.423 250.232 203.177 250.424 202.921C250.638 202.644 250.883 202.409 251.16 202.217C251.438 202.004 251.683 201.897 251.896 201.897C252.131 201.897 252.376 202.004 252.632 202.217C252.91 202.409 253.144 202.644 253.336 202.921C253.55 203.177 253.656 203.423 253.656 203.657C253.656 203.871 253.55 204.116 253.336 204.393C253.144 204.671 252.91 204.916 252.632 205.129C252.355 205.321 252.11 205.417 251.896 205.417ZM256.504 205.417C256.291 205.417 256.046 205.321 255.768 205.129C255.491 204.937 255.246 204.703 255.032 204.425C254.84 204.127 254.744 203.871 254.744 203.657C254.744 203.423 254.84 203.177 255.032 202.921C255.246 202.644 255.491 202.409 255.768 202.217C256.046 202.004 256.291 201.897 256.504 201.897C256.739 201.897 256.984 202.004 257.24 202.217C257.518 202.409 257.752 202.644 257.944 202.921C258.158 203.177 258.264 203.423 258.264 203.657C258.264 203.871 258.158 204.116 257.944 204.393C257.752 204.671 257.518 204.916 257.24 205.129C256.963 205.321 256.718 205.417 256.504 205.417ZM271.142 221.417H274.982V224.297H263.462V221.417H268.582V209.257H271.142V221.417ZM267.558 205.417C267.344 205.417 267.099 205.321 266.822 205.129C266.544 204.937 266.299 204.703 266.086 204.425C265.894 204.127 265.798 203.871 265.798 203.657C265.798 203.423 265.894 203.177 266.086 202.921C266.299 202.644 266.544 202.409 266.822 202.217C267.099 202.004 267.344 201.897 267.558 201.897C267.792 201.897 268.038 202.004 268.294 202.217C268.571 202.409 268.806 202.644 268.998 202.921C269.211 203.177 269.318 203.423 269.318 203.657C269.318 203.871 269.211 204.116 268.998 204.393C268.806 204.671 268.571 204.916 268.294 205.129C268.016 205.321 267.771 205.417 267.558 205.417ZM272.166 205.417C271.952 205.417 271.707 205.321 271.43 205.129C271.152 204.937 270.907 204.703 270.694 204.425C270.502 204.127 270.406 203.871 270.406 203.657C270.406 203.423 270.502 203.177 270.694 202.921C270.907 202.644 271.152 202.409 271.43 202.217C271.707 202.004 271.952 201.897 272.166 201.897C272.4 201.897 272.646 202.004 272.902 202.217C273.179 202.409 273.414 202.644 273.606 202.921C273.819 203.177 273.926 203.423 273.926 203.657C273.926 203.871 273.819 204.116 273.606 204.393C273.414 204.671 273.179 204.916 272.902 205.129C272.624 205.321 272.379 205.417 272.166 205.417ZM269.862 200.617C269.648 200.617 269.403 200.521 269.126 200.329C268.848 200.137 268.603 199.903 268.39 199.625C268.198 199.327 268.102 199.071 268.102 198.857C268.102 198.623 268.198 198.377 268.39 198.121C268.603 197.844 268.848 197.609 269.126 197.417C269.403 197.204 269.648 197.097 269.862 197.097C270.096 197.097 270.342 197.204 270.598 197.417C270.875 197.609 271.11 197.844 271.302 198.121C271.515 198.377 271.622 198.623 271.622 198.857C271.622 199.071 271.515 199.316 271.302 199.593C271.11 199.871 270.875 200.116 270.598 200.329C270.32 200.521 270.075 200.617 269.862 200.617ZM281.392 224.297H273.712V221.417H278.832V204.137H281.392V224.297ZM287.802 224.297V204.137H290.362V224.297H287.802Z" fill="white"/>
<path d="M282.292 384.985C282.1 384.431 281.929 383.78 281.78 383.033C281.652 382.287 281.545 381.497 281.46 380.665C281.374 379.855 281.332 379.065 281.332 378.297C281.332 376.612 281.449 375.268 281.684 374.265C281.94 373.263 282.345 372.537 282.9 372.089C283.476 371.641 284.233 371.417 285.172 371.417H295.892V362.169C295.017 361.935 293.833 361.817 292.34 361.817C291.422 361.817 290.452 361.892 289.428 362.041C288.404 362.169 287.465 362.351 286.612 362.585L285.62 360.217C286.452 359.833 287.486 359.524 288.724 359.289C289.982 359.055 291.262 358.937 292.564 358.937C294.014 358.937 295.166 359.076 296.02 359.353C296.894 359.609 297.513 360.047 297.876 360.665C298.26 361.263 298.452 362.073 298.452 363.097V374.297H284.404C284.233 374.916 284.105 375.577 284.02 376.281C283.934 377.007 283.892 377.86 283.892 378.841C283.892 379.567 283.956 380.377 284.084 381.273C284.233 382.169 284.468 383.247 284.788 384.505L282.292 384.985ZM285.684 373.241C285.086 372.559 284.692 371.663 284.5 370.553C284.308 369.423 284.212 368.239 284.212 367.001C284.212 365.785 284.34 364.612 284.596 363.481C284.873 362.351 285.214 361.263 285.62 360.217L288.02 360.953C287.657 362.041 287.358 363.076 287.124 364.057C286.889 365.017 286.772 365.999 286.772 367.001C286.772 367.769 286.804 368.516 286.868 369.241C286.953 369.967 287.092 370.649 287.284 371.289C287.497 371.929 287.785 372.505 288.148 373.017L285.684 373.241ZM304.86 374.297V354.137H307.42V374.297H304.86ZM317.349 371.417H321.189V374.297H317.349V371.417ZM312.613 382.585L311.525 380.345C312.357 379.94 313.008 379.481 313.477 378.969C313.968 378.457 314.309 377.828 314.501 377.081C314.714 376.335 314.821 375.407 314.821 374.297V359.257H317.381V374.297C317.381 375.705 317.221 376.921 316.901 377.945C316.581 378.991 316.069 379.887 315.365 380.633C314.661 381.38 313.744 382.031 312.613 382.585ZM316.069 355.417C315.856 355.417 315.61 355.321 315.333 355.129C315.056 354.937 314.81 354.703 314.597 354.425C314.405 354.127 314.309 353.871 314.309 353.657C314.309 353.423 314.405 353.177 314.597 352.921C314.81 352.644 315.056 352.409 315.333 352.217C315.61 352.004 315.856 351.897 316.069 351.897C316.304 351.897 316.549 352.004 316.805 352.217C317.082 352.409 317.317 352.644 317.509 352.921C317.722 353.177 317.829 353.423 317.829 353.657C317.829 353.871 317.722 354.116 317.509 354.393C317.317 354.671 317.082 354.916 316.805 355.129C316.528 355.321 316.282 355.417 316.069 355.417ZM327.575 371.417H331.415V374.297H319.895V371.417H325.015V359.257H327.575V371.417ZM323.991 355.417C323.778 355.417 323.533 355.321 323.255 355.129C322.978 354.937 322.733 354.703 322.519 354.425C322.327 354.127 322.231 353.871 322.231 353.657C322.231 353.423 322.327 353.177 322.519 352.921C322.733 352.644 322.978 352.409 323.255 352.217C323.533 352.004 323.778 351.897 323.991 351.897C324.226 351.897 324.471 352.004 324.727 352.217C325.005 352.409 325.239 352.644 325.431 352.921C325.645 353.177 325.751 353.423 325.751 353.657C325.751 353.871 325.645 354.116 325.431 354.393C325.239 354.671 325.005 354.916 324.727 355.129C324.45 355.321 324.205 355.417 323.991 355.417ZM328.599 355.417C328.386 355.417 328.141 355.321 327.863 355.129C327.586 354.937 327.341 354.703 327.127 354.425C326.935 354.127 326.839 353.871 326.839 353.657C326.839 353.423 326.935 353.177 327.127 352.921C327.341 352.644 327.586 352.409 327.863 352.217C328.141 352.004 328.386 351.897 328.599 351.897C328.834 351.897 329.079 352.004 329.335 352.217C329.613 352.409 329.847 352.644 330.039 352.921C330.253 353.177 330.359 353.423 330.359 353.657C330.359 353.871 330.253 354.116 330.039 354.393C329.847 354.671 329.613 354.916 329.335 355.129C329.058 355.321 328.813 355.417 328.599 355.417ZM337.825 374.297H330.145V371.417H335.265V354.137H337.825V374.297ZM355.499 361.785V354.137H358.059V360.569C358.059 361.209 357.995 361.785 357.867 362.297C357.761 362.788 357.569 363.204 357.291 363.545C357.035 363.887 356.662 364.143 356.171 364.313V364.537C357.174 365.391 357.857 366.18 358.219 366.905C358.603 367.631 358.795 368.452 358.795 369.369C358.795 371.247 358.145 372.623 356.843 373.497C355.542 374.351 353.441 374.777 350.539 374.777C348.683 374.777 347.222 374.628 346.155 374.329C345.11 374.031 344.374 373.54 343.947 372.857C343.521 372.153 343.307 371.225 343.307 370.073C343.307 369.071 343.425 368.26 343.659 367.641C343.894 367.023 344.342 366.489 345.003 366.041C345.665 365.572 346.614 365.103 347.851 364.633L355.499 361.785ZM346.027 371.897H352.491C353.75 371.897 354.657 371.652 355.211 371.161C355.787 370.671 356.075 370.105 356.075 369.465C356.075 369.017 355.947 368.559 355.691 368.089C355.457 367.62 355.115 367.215 354.667 366.873L353.067 365.593L346.027 368.217V371.897ZM351.403 364.281L344.107 358.393L345.803 356.313L354.379 363.225L351.403 364.281ZM364.548 374.297V354.137H367.108V374.297H364.548Z" fill="white"/>
</g>
<defs>
<clipPath id="clip0_382_444">
<rect width="508" height="428.595" fill="white" transform="translate(0.5)"/>
</clipPath>
</defs>
</svg>
