<svg width="92" height="22" viewBox="0 0 92 22" fill="none" xmlns="http://www.w3.org/2000/svg">
<path d="M11.6347 0H8.4616C7.059 0 5.71385 0.55718 4.72207 1.54897C3.73028 2.54075 3.1731 3.8859 3.1731 5.2885V8.4616H0V12.6924H3.1731V21.154H7.4039V12.6924H10.577L11.6347 8.4616H7.4039V5.2885C7.4039 5.00798 7.51534 4.73895 7.7137 4.5406C7.91205 4.34224 8.18108 4.2308 8.4616 4.2308H11.6347V0Z" fill="white"/>
<path fill-rule="evenodd" clip-rule="evenodd" d="M76.7273 1.90912C74.6186 1.90912 72.9091 3.6186 72.9091 5.72735V15.2729C72.9091 17.3817 74.6186 19.0912 76.7273 19.0912H86.2729C88.3817 19.0912 90.0912 17.3817 90.0912 15.2729V5.72735C90.0912 3.6186 88.3817 1.90912 86.2729 1.90912H76.7273ZM71 5.72735C71 2.56422 73.5642 0 76.7273 0H86.2729C89.4361 0 92.0003 2.56422 92.0003 5.72735V15.2729C92.0003 18.4361 89.4361 21.0003 86.2729 21.0003H76.7273C73.5642 21.0003 71 18.4361 71 15.2729V5.72735ZM81.9615 7.62614C81.3657 7.53779 80.7572 7.63956 80.2225 7.91698C79.6879 8.19439 79.2543 8.63333 78.9835 9.17136C78.7127 9.70939 78.6185 10.3191 78.7141 10.9138C78.8098 11.5085 79.0906 12.0578 79.5165 12.4838C79.9424 12.9097 80.4918 13.1904 81.0865 13.2861C81.6812 13.3818 82.2909 13.2876 82.8289 13.0168C83.367 12.746 83.8059 12.3124 84.0833 11.7778C84.3607 11.2431 84.4625 10.6346 84.3741 10.0388C84.284 9.43103 84.0008 8.86837 83.5664 8.43392C83.1319 7.99947 82.5693 7.71626 81.9615 7.62614ZM79.3432 6.2224C80.2343 5.76004 81.2485 5.59042 82.2415 5.73768C83.2545 5.88788 84.1922 6.35988 84.9163 7.08397C85.6404 7.80805 86.1124 8.74582 86.2626 9.75875C86.4099 10.7518 86.2402 11.766 85.7779 12.657C85.3155 13.5481 84.584 14.2707 83.6872 14.7221C82.7905 15.1734 81.7743 15.3305 80.7832 15.171C79.7921 15.0115 78.8764 14.5436 78.1666 13.8337C77.4567 13.1239 76.9888 12.2082 76.8293 11.2171C76.6698 10.2259 76.8269 9.20975 77.2782 8.31304C77.7296 7.41633 78.4522 6.68476 79.3432 6.2224ZM86.7502 4.29551C86.223 4.29551 85.7956 4.72288 85.7956 5.25007C85.7956 5.77726 86.223 6.20463 86.7502 6.20463H86.7602C87.2874 6.20463 87.7148 5.77726 87.7148 5.25007C87.7148 4.72288 87.2874 4.29551 86.7602 4.29551H86.7502Z" fill="white"/>
<path d="M51.8998 2.00955C50.9901 2.65125 49.9828 3.14204 48.9168 3.46304C48.3447 2.80518 47.5843 2.33891 46.7385 2.12728C45.8927 1.91566 45.0024 1.96889 44.1878 2.27978C43.3733 2.59067 42.6739 3.14422 42.1842 3.86556C41.6945 4.58691 41.4382 5.44124 41.4499 6.31301V7.263C39.7804 7.30629 38.1261 6.93602 36.6344 6.18518C35.1427 5.43434 33.8598 4.32623 32.9 2.95954C32.9 2.95954 29.1 11.5095 37.6499 15.3094C35.6935 16.6375 33.3628 17.3034 31 17.2094C39.5499 21.9593 49.9998 17.2094 49.9998 6.28451C49.9989 6.01989 49.9735 5.75593 49.9238 5.49602C50.8934 4.53984 51.5776 3.33262 51.8998 2.00955Z" fill="white"/>
</svg>
