<svg width="294" height="312" viewBox="0 0 294 312" fill="none" xmlns="http://www.w3.org/2000/svg">
<path opacity="0.7" d="M51.969 131.474C52.4866 128.25 52.3304 124.898 51.4637 121.549C50.4512 117.741 48.5687 114.405 46.1124 111.675C44.5932 109.973 42.8557 108.52 40.9559 107.348C33.437 113.128 29.7228 123.054 32.3011 132.751C33.6314 137.755 36.46 141.974 40.1988 145.07C41.0256 145.772 41.901 146.39 42.8089 146.952C45.0285 148.346 47.5034 149.362 50.061 149.977C49.9742 149.739 49.9035 149.474 49.8447 149.252C49.5032 147.968 49.2901 146.721 49.1654 145.449C48.8823 142.512 49.4263 139.565 50.523 136.824C51.1799 135.104 51.6526 133.316 51.969 131.474Z" fill="#4D849E"/>
<path opacity="0.7" d="M6.76894 179.82C10.3615 180.583 14.1917 180.545 17.996 179.518C21.3136 178.622 24.3102 177.053 26.844 174.993C28.3086 173.814 29.5934 172.494 30.7263 171.049C32.5512 168.729 34.8314 166.785 37.5167 165.561C38.6802 165.033 39.8953 164.61 41.1501 164.248C41.4155 164.176 41.6367 164.116 41.8858 164.073C40.0911 162.137 37.9571 160.53 35.64 159.305C34.6997 158.799 33.7269 158.35 32.7053 157.985C28.183 156.311 23.1145 155.972 18.0879 157.305C8.40039 159.921 1.66176 168.1 0.415799 177.502C2.40854 178.577 4.53559 179.356 6.76894 179.82Z" fill="#4D849E"/>
<path opacity="0.7" d="M45.5896 185.855C45.072 189.079 45.2281 192.431 46.0948 195.78C47.1073 199.588 48.9898 202.924 51.4462 205.654C52.9654 207.356 54.7029 208.809 56.6027 209.981C64.1215 204.201 67.8357 194.275 65.2575 184.578C63.9271 179.574 61.0985 175.355 57.3597 172.259C56.533 171.557 55.6575 170.939 54.7496 170.377C52.53 168.983 50.0551 167.967 47.4975 167.352C47.5844 167.59 47.655 167.855 47.7139 168.077C48.0553 169.361 48.2685 170.608 48.3932 171.88C48.6763 174.817 48.1323 177.764 47.0355 180.505C46.3786 182.225 45.906 184.013 45.5896 185.855Z" fill="#4D849E"/>
<path opacity="0.7" d="M90.807 137.479C87.2145 136.717 83.3842 136.755 79.58 137.782C76.2624 138.678 73.2658 140.247 70.7319 142.307C69.2674 143.486 67.9826 144.806 66.8496 146.251C65.0248 148.571 62.7445 150.515 60.0592 151.739C58.8957 152.266 57.6807 152.689 56.4259 153.052C56.1605 153.124 55.9393 153.183 55.6901 153.227C57.4849 155.163 59.6189 156.77 61.9359 157.995C62.8763 158.5 63.8491 158.95 64.8706 159.314C69.393 160.988 74.4615 161.328 79.4881 159.995C89.1476 157.362 95.8862 149.183 97.1322 139.782C95.1674 138.722 93.0404 137.944 90.807 137.479Z" fill="#4D849E"/>
<path d="M54.8947 149.97C55.3694 146.716 55.2499 143.309 54.3193 139.927C53.2849 136.068 51.4131 132.673 48.8866 129.887C47.3537 128.205 45.5875 126.731 43.6736 125.512C36.0522 131.353 32.2998 141.4 34.934 151.228C36.2931 156.299 39.1716 160.578 42.972 163.721C43.8124 164.434 44.7021 165.061 45.6246 165.632C47.88 167.048 50.3938 168.082 52.9909 168.709C52.9023 168.468 52.8301 168.199 52.77 167.974C52.3927 166.656 52.1741 165.392 52.0453 164.104C51.7243 161.112 52.2548 158.156 53.3916 155.399C54.1002 153.646 54.5768 151.834 54.8947 149.97Z" stroke="#4D849E" stroke-opacity="0.7" stroke-width="0.3" stroke-miterlimit="10"/>
<path d="M9.02029 198.939C12.6681 199.717 16.5557 199.686 20.4152 198.652C23.781 197.75 26.8197 196.167 29.388 194.084C30.8724 192.893 32.1741 191.558 33.3215 190.096C35.1696 187.75 37.4806 185.784 40.2041 184.549C41.3841 184.017 42.6166 183.59 43.8896 183.225C44.1588 183.153 44.3832 183.093 44.6361 183.049C42.811 181.085 40.6421 179.454 38.2881 178.208C37.3328 177.695 36.3446 177.238 35.3071 176.867C30.7139 175.163 25.5688 174.81 20.4691 176.152C10.641 178.785 3.81573 187.058 2.56774 196.579C4.63716 197.66 6.79749 198.452 9.02029 198.939Z" stroke="#4D849E" stroke-opacity="0.7" stroke-width="0.3" stroke-miterlimit="10"/>
<path d="M48.3942 205.056C47.8745 208.321 48.0389 211.716 48.9246 215.111C49.959 218.97 51.8757 222.352 54.3737 225.122C55.9187 226.849 57.6848 228.324 59.6152 229.514C67.2366 223.673 70.989 213.625 68.3548 203.797C66.9957 198.726 64.1172 194.447 60.3168 191.305C59.4764 190.592 58.5867 189.965 57.6642 189.394C55.4088 187.978 52.895 186.944 50.2979 186.317C50.3865 186.558 50.4587 186.827 50.5188 187.051C50.8676 188.353 51.0862 189.617 51.215 190.905C51.5076 193.881 50.9607 196.865 49.8523 199.639C49.1886 201.38 48.6836 203.175 48.3942 205.056Z" stroke="#4D849E" stroke-opacity="0.7" stroke-width="0.3" stroke-miterlimit="10"/>
<path d="M94.2401 156.072C90.5924 155.293 86.7047 155.325 82.8452 156.359C79.4794 157.26 76.4407 158.844 73.8725 160.926C72.388 162.118 71.0863 163.452 69.9389 164.914C68.0908 167.261 65.7798 169.227 63.0564 170.461C61.8764 170.994 60.6438 171.42 59.3709 171.785C59.1016 171.857 58.8772 171.917 58.6244 171.961C60.4495 173.925 62.6184 175.557 64.9723 176.802C65.9277 177.316 66.9159 177.772 67.9534 178.144C72.5465 179.847 77.6917 180.201 82.7913 178.859C92.6195 176.226 99.4447 167.953 100.693 158.432C98.6517 157.367 96.4914 156.575 94.2401 156.072Z" stroke="#4D849E" stroke-opacity="0.7" stroke-width="0.3" stroke-miterlimit="10"/>
<path opacity="0.7" d="M168.827 212.799C169.345 209.575 169.189 206.223 168.322 202.874C167.31 199.066 165.427 195.73 162.971 193C161.452 191.298 159.714 189.845 157.814 188.673C150.295 194.453 146.581 204.379 149.159 214.076C150.49 219.08 153.318 223.299 157.057 226.395C157.884 227.097 158.759 227.715 159.667 228.277C161.887 229.671 164.362 230.687 166.919 231.302C166.833 231.064 166.762 230.799 166.703 230.577C166.362 229.293 166.148 228.045 166.024 226.774C165.741 223.837 166.285 220.89 167.381 218.149C168.038 216.429 168.511 214.641 168.827 212.799Z" fill="#4D849E"/>
<path opacity="0.7" d="M123.627 261.145C127.22 261.907 131.05 261.87 134.854 260.843C138.172 259.947 141.168 258.378 143.702 256.318C145.167 255.139 146.452 253.819 147.584 252.374C149.409 250.054 151.69 248.109 154.375 246.886C155.538 246.358 156.753 245.935 158.008 245.573C158.274 245.501 158.495 245.441 158.744 245.398C156.949 243.462 154.815 241.855 152.498 240.63C151.558 240.124 150.585 239.675 149.563 239.31C145.041 237.636 139.973 237.296 134.946 238.63C125.259 241.246 118.52 249.425 117.274 258.827C119.267 259.902 121.394 260.68 123.627 261.145Z" fill="#4D849E"/>
<path opacity="0.7" d="M162.448 267.18C161.93 270.404 162.086 273.756 162.953 277.105C163.966 280.913 165.848 284.249 168.305 286.979C169.824 288.681 171.561 290.134 173.461 291.306C180.98 285.526 184.694 275.6 182.116 265.903C180.786 260.899 177.957 256.679 174.218 253.584C173.391 252.882 172.516 252.264 171.608 251.702C169.388 250.308 166.914 249.292 164.356 248.677C164.443 248.915 164.513 249.18 164.572 249.402C164.914 250.686 165.127 251.933 165.252 253.205C165.535 256.142 164.991 259.089 163.894 261.83C163.237 263.549 162.764 265.338 162.448 267.18Z" fill="#4D849E"/>
<path opacity="0.7" d="M207.665 218.804C204.073 218.042 200.243 218.08 196.438 219.107C193.121 220.003 190.124 221.571 187.59 223.632C186.126 224.81 184.841 226.13 183.708 227.575C181.883 229.895 179.603 231.84 176.917 233.063C175.754 233.591 174.539 234.014 173.284 234.377C173.019 234.448 172.798 234.508 172.548 234.552C174.343 236.488 176.477 238.095 178.794 239.32C179.735 239.825 180.707 240.274 181.729 240.639C186.251 242.313 191.32 242.653 196.346 241.319C206.006 238.687 212.744 230.508 213.99 221.107C212.026 220.047 209.899 219.269 207.665 218.804Z" fill="#4D849E"/>
<path d="M171.753 231.295C172.228 228.041 172.108 224.634 171.178 221.252C170.143 217.393 168.272 213.998 165.745 211.212C164.212 209.53 162.446 208.055 160.532 206.837C152.911 212.678 149.158 222.725 151.792 232.553C153.152 237.624 156.03 241.903 159.83 245.046C160.671 245.759 161.56 246.386 162.483 246.957C164.738 248.373 167.252 249.407 169.849 250.034C169.761 249.793 169.689 249.524 169.628 249.299C169.251 247.981 169.033 246.717 168.904 245.429C168.583 242.437 169.113 239.481 170.25 236.723C170.959 234.971 171.435 233.159 171.753 231.295Z" stroke="#4D849E" stroke-width="0.3" stroke-miterlimit="10"/>
<path d="M125.879 280.264C129.526 281.042 133.414 281.011 137.273 279.977C140.639 279.075 143.678 277.492 146.246 275.409C147.731 274.218 149.032 272.883 150.18 271.421C152.028 269.074 154.339 267.109 157.062 265.874C158.242 265.342 159.475 264.915 160.748 264.55C161.017 264.478 161.242 264.418 161.494 264.374C159.669 262.41 157.5 260.779 155.146 259.533C154.191 259.02 153.203 258.563 152.165 258.192C147.572 256.488 142.427 256.135 137.327 257.477C127.499 260.109 120.674 268.383 119.426 277.904C121.495 278.985 123.656 279.777 125.879 280.264Z" stroke="#4D849E" stroke-width="0.3" stroke-miterlimit="10"/>
<path d="M165.253 286.381C164.733 289.647 164.897 293.042 165.783 296.436C166.817 300.295 168.734 303.677 171.232 306.447C172.777 308.174 174.543 309.649 176.474 310.839C184.095 304.998 187.847 294.95 185.213 285.122C183.854 280.051 180.976 275.772 177.175 272.63C176.335 271.917 175.445 271.29 174.523 270.719C172.267 269.303 169.753 268.269 167.156 267.642C167.245 267.883 167.317 268.152 167.377 268.376C167.726 269.678 167.945 270.942 168.073 272.23C168.366 275.206 167.819 278.19 166.711 280.964C166.047 282.705 165.542 284.5 165.253 286.381Z" stroke="#4D849E" stroke-width="0.3" stroke-miterlimit="10"/>
<path d="M211.098 237.397C207.451 236.618 203.563 236.65 199.704 237.683C196.338 238.585 193.299 240.169 190.731 242.251C189.246 243.443 187.945 244.777 186.797 246.239C184.949 248.586 182.638 250.552 179.915 251.786C178.735 252.319 177.502 252.745 176.229 253.11C175.96 253.182 175.735 253.242 175.483 253.286C177.308 255.25 179.477 256.882 181.831 258.127C182.786 258.641 183.774 259.097 184.812 259.469C189.405 261.172 194.55 261.526 199.65 260.184C209.478 257.551 216.303 249.278 217.551 239.757C215.51 238.692 213.35 237.9 211.098 237.397Z" stroke="#4D849E" stroke-width="0.3" stroke-miterlimit="10"/>
<g opacity="0.8">
<path opacity="0.7" d="M171.379 59.5873C171.896 56.3626 171.74 53.0114 170.874 49.6622C169.861 45.854 167.979 42.518 165.522 39.7879C164.003 38.0862 162.266 36.6332 160.366 35.4614C152.847 41.2411 149.133 51.1666 151.711 60.8642C153.041 65.868 155.87 70.0875 159.609 73.1832C160.435 73.8854 161.311 74.5033 162.219 75.065C164.438 76.4589 166.913 77.4755 169.471 78.09C169.384 77.8524 169.313 77.5867 169.255 77.3653C168.913 76.0812 168.7 74.8336 168.575 73.5621C168.292 70.6248 168.836 67.6777 169.933 64.9374C170.59 63.2175 171.062 61.4288 171.379 59.5873Z" fill="#4D849E"/>
<path opacity="0.7" d="M126.179 107.933C129.771 108.696 133.601 108.658 137.406 107.631C140.723 106.735 143.72 105.166 146.254 103.106C147.718 101.927 149.003 100.607 150.136 99.1622C151.961 96.8422 154.241 94.8975 156.926 93.6741C158.09 93.1463 159.305 92.7233 160.56 92.3607C160.825 92.289 161.046 92.2293 161.296 92.1858C159.501 90.2499 157.367 88.643 155.05 87.4177C154.109 86.9123 153.137 86.4631 152.115 86.0982C147.593 84.4243 142.524 84.0845 137.498 85.4181C127.81 88.034 121.071 96.2134 119.825 105.615C121.818 106.69 123.945 107.469 126.179 107.933Z" fill="#4D849E"/>
<path opacity="0.7" d="M164.999 113.968C164.482 117.192 164.638 120.544 165.505 123.893C166.517 127.701 168.4 131.037 170.856 133.767C172.375 135.469 174.113 136.922 176.012 138.094C183.531 132.314 187.246 122.388 184.667 112.691C183.337 107.687 180.508 103.468 176.77 100.372C175.943 99.6696 175.067 99.0518 174.159 98.4901C171.94 97.0961 169.465 96.0796 166.907 95.4651C166.994 95.7027 167.065 95.9683 167.124 96.1898C167.465 97.4739 167.678 98.7215 167.803 99.993C168.086 102.93 167.542 105.877 166.445 108.618C165.788 110.338 165.316 112.126 164.999 113.968Z" fill="#4D849E"/>
<path opacity="0.7" d="M210.217 65.5923C206.624 64.8301 202.794 64.8677 198.99 65.895C195.672 66.7909 192.675 68.3594 190.142 70.42C188.677 71.5986 187.392 72.9185 186.259 74.3634C184.434 76.6834 182.154 78.6281 179.469 79.8515C178.305 80.3793 177.09 80.8023 175.836 81.1649C175.57 81.2366 175.349 81.2963 175.1 81.3398C176.895 83.2757 179.029 84.8826 181.346 86.1079C182.286 86.6133 183.259 87.0625 184.28 87.4274C188.803 89.1013 193.871 89.4412 198.898 88.1075C208.557 85.4754 215.296 77.296 216.542 67.8947C214.577 66.8353 212.45 66.0571 210.217 65.5923Z" fill="#4D849E"/>
<path d="M174.304 78.0826C174.779 74.8291 174.66 71.4221 173.729 68.04C172.695 64.1807 170.823 60.7862 168.296 57.9999C166.763 56.3183 164.997 54.8435 163.083 53.6246C155.462 59.4659 151.71 69.5134 154.344 79.3412C155.703 84.4122 158.581 88.6914 162.382 91.8338C163.222 92.5466 164.112 93.174 165.034 93.7446C167.29 95.1605 169.804 96.1946 172.401 96.8216C172.312 96.5808 172.24 96.3116 172.18 96.0872C171.803 94.7694 171.584 93.5052 171.455 92.217C171.134 89.2248 171.665 86.269 172.801 83.5115C173.51 81.7585 173.987 79.9474 174.304 78.0826Z" stroke="#4D849E" stroke-width="0.3" stroke-miterlimit="10"/>
<path d="M128.43 127.052C132.078 127.83 135.965 127.799 139.825 126.765C143.191 125.863 146.229 124.28 148.798 122.197C150.282 121.006 151.584 119.671 152.731 118.209C154.579 115.862 156.89 113.897 159.614 112.662C160.794 112.13 162.026 111.703 163.299 111.338C163.569 111.266 163.793 111.206 164.046 111.162C162.221 109.198 160.052 107.567 157.698 106.321C156.742 105.808 155.754 105.351 154.717 104.98C150.124 103.276 144.978 102.923 139.879 104.265C130.051 106.897 123.225 115.171 121.977 124.692C124.047 125.773 126.207 126.565 128.43 127.052Z" stroke="#4D849E" stroke-width="0.3" stroke-miterlimit="10"/>
<path d="M167.804 133.169C167.284 136.435 167.449 139.829 168.334 143.224C169.369 147.083 171.285 150.465 173.784 153.235C175.328 154.962 177.095 156.437 179.025 157.627C186.646 151.786 190.399 141.738 187.765 131.91C186.405 126.839 183.527 122.56 179.727 119.418C178.886 118.705 177.997 118.078 177.074 117.507C174.819 116.091 172.305 115.057 169.708 114.43C169.796 114.671 169.868 114.94 169.929 115.164C170.277 116.466 170.496 117.73 170.625 119.018C170.917 121.994 170.37 124.978 169.262 127.752C168.598 129.493 168.093 131.288 167.804 133.169Z" stroke="#4D849E" stroke-width="0.3" stroke-miterlimit="10"/>
<path d="M213.65 84.1847C210.002 83.4063 206.114 83.4376 202.255 84.4715C198.889 85.3731 195.85 86.9566 193.282 89.0394C191.798 90.2307 190.496 91.5653 189.349 93.0271C187.5 95.3739 185.189 97.3397 182.466 98.5742C181.286 99.1067 180.054 99.5331 178.781 99.8981C178.511 99.9703 178.287 100.03 178.034 100.074C179.859 102.038 182.028 103.67 184.382 104.915C185.337 105.429 186.326 105.885 187.363 106.257C191.956 107.96 197.101 108.314 202.201 106.972C212.029 104.339 218.854 96.0655 220.102 86.5446C218.061 85.48 215.901 84.6879 213.65 84.1847Z" stroke="#4D849E" stroke-width="0.3" stroke-miterlimit="10"/>
</g>
</svg>
