<svg width="13" height="80" viewBox="0 0 13 80" fill="none" xmlns="http://www.w3.org/2000/svg">
<path d="M7.97 76.7988C7.97 77.5082 7.886 78.0775 7.718 78.5068C7.55 78.9268 7.27933 79.2302 6.906 79.4168C6.53267 79.6035 6.024 79.6968 5.38 79.6968C4.74533 79.6968 4.24133 79.6035 3.868 79.4168C3.48533 79.2302 3.21 78.9268 3.042 78.5068C2.874 78.0775 2.79 77.5082 2.79 76.7988C2.79 76.0802 2.874 75.5108 3.042 75.0908C3.21 74.6708 3.48067 74.3675 3.854 74.1808C4.22733 73.9942 4.736 73.9008 5.38 73.9008C6.01467 73.9008 6.52333 73.9942 6.906 74.1808C7.28867 74.3582 7.564 74.6615 7.732 75.0908C7.89067 75.5108 7.97 76.0802 7.97 76.7988ZM6.92 78.0168L6.92 76.4768C6.92 76.1408 6.864 75.9075 6.752 75.7768C6.64 75.6462 6.43933 75.5808 6.15 75.5808L3.826 75.5808L3.826 77.1208C3.826 77.4568 3.882 77.6902 3.994 77.8208C4.106 77.9515 4.30667 78.0168 4.596 78.0168L6.92 78.0168ZM10.49 73.8168C10.9287 73.8168 11.2833 73.9148 11.554 74.1108C11.834 74.2975 12.0347 74.6008 12.156 75.0208C12.2773 75.4408 12.338 76.0008 12.338 76.7008C12.338 77.2235 12.3007 77.7368 12.226 78.2408C12.1513 78.7355 12.044 79.1788 11.904 79.5708L10.644 79.3608C10.7653 78.8942 10.854 78.4835 10.91 78.1288C10.966 77.7648 10.994 77.3962 10.994 77.0228C10.994 76.6775 10.98 76.3788 10.952 76.1268C10.9333 75.8655 10.9007 75.6088 10.854 75.3568L9.944 75.3568C9.87867 76.2902 9.79933 76.9575 9.706 77.3588C9.61267 77.7508 9.482 77.9468 9.314 77.9468L7.718 77.4988L7.732 76.3928L8.81 76.4768C8.88467 75.9262 8.95933 75.4782 9.034 75.1328C9.10867 74.7782 9.20667 74.5075 9.328 74.3208C9.44933 74.1342 9.60333 74.0035 9.79 73.9288C9.97667 73.8542 10.21 73.8168 10.49 73.8168ZM4.358 74.4468L3.14 75.4128L2.188 74.1668L3.014 73.3268L4.358 74.4468ZM10.154 69.1041C10.154 69.7201 10.098 70.2334 9.986 70.6441C9.86467 71.0548 9.66867 71.3814 9.398 71.6241C9.118 71.8668 8.74467 72.0394 8.278 72.1421C7.802 72.2448 7.20933 72.2961 6.5 72.2961C5.79067 72.2961 5.20267 72.2448 4.736 72.1421C4.26 72.0394 3.88667 71.8668 3.616 71.6241C3.336 71.3814 3.14 71.0548 3.028 70.6441C2.90667 70.2334 2.846 69.7201 2.846 69.1041C2.846 68.4788 2.90667 67.9608 3.028 67.5501C3.14 67.1394 3.336 66.8174 3.616 66.5841C3.88667 66.3414 4.25533 66.1688 4.722 66.0661C5.18867 65.9634 5.78133 65.9121 6.5 65.9121C7.20933 65.9121 7.802 65.9634 8.278 66.0661C8.74467 66.1688 9.118 66.3414 9.398 66.5841C9.66867 66.8174 9.86467 67.1441 9.986 67.5641C10.098 67.9748 10.154 68.4881 10.154 69.1041ZM8.796 70.4761L8.796 68.3621C8.796 68.1101 8.77267 67.9421 8.726 67.8581C8.67 67.7648 8.572 67.7181 8.432 67.7181L4.204 67.7181L4.204 69.8321C4.204 70.0841 4.232 70.2568 4.288 70.3501C4.33467 70.4341 4.428 70.4761 4.568 70.4761L8.796 70.4761ZM10.154 59.0971C10.154 59.5078 10.0607 59.8111 9.874 60.0071C9.678 60.2031 9.384 60.3011 8.992 60.3011L1.586 60.3011L1.152 58.5931L8.74 58.5931C8.75867 58.4531 8.77733 58.3131 8.796 58.1731C8.80533 58.0238 8.81467 57.8418 8.824 57.6271L9.986 57.7251C10.042 58.0238 10.084 58.2851 10.112 58.5091C10.14 58.7331 10.154 58.9291 10.154 59.0971ZM4.162 61.2251L3 61.2251L3 57.4031L4.162 57.4031L4.162 61.2251ZM10.154 52.9029C10.154 53.5189 10.098 54.0322 9.986 54.4429C9.86467 54.8536 9.66867 55.1802 9.398 55.4229C9.118 55.6656 8.74467 55.8382 8.278 55.9409C7.802 56.0436 7.20933 56.0949 6.5 56.0949C5.79067 56.0949 5.20267 56.0436 4.736 55.9409C4.26 55.8382 3.88667 55.6656 3.616 55.4229C3.336 55.1802 3.14 54.8536 3.028 54.4429C2.90667 54.0322 2.846 53.5189 2.846 52.9029C2.846 52.2776 2.90667 51.7596 3.028 51.3489C3.14 50.9382 3.336 50.6162 3.616 50.3829C3.88667 50.1402 4.25533 49.9676 4.722 49.8649C5.18867 49.7622 5.78133 49.7109 6.5 49.7109C7.20933 49.7109 7.802 49.7622 8.278 49.8649C8.74467 49.9676 9.118 50.1402 9.398 50.3829C9.66867 50.6162 9.86467 50.9429 9.986 51.3629C10.098 51.7736 10.154 52.2869 10.154 52.9029ZM8.796 54.2749L8.796 52.1609C8.796 51.9089 8.77267 51.7409 8.726 51.6569C8.67 51.5636 8.572 51.5169 8.432 51.5169L4.204 51.5169L4.204 53.6309C4.204 53.8829 4.232 54.0556 4.288 54.1489C4.33467 54.2329 4.428 54.2749 4.568 54.2749L8.796 54.2749ZM10.154 42.896C10.154 43.3066 10.0607 43.61 9.874 43.806C9.678 44.002 9.384 44.1 8.992 44.1L1.586 44.1L1.152 42.392L8.74 42.392C8.75867 42.252 8.77733 42.112 8.796 41.972C8.80533 41.8226 8.81467 41.6406 8.824 41.426L9.986 41.524C10.042 41.8226 10.084 42.084 10.112 42.308C10.14 42.532 10.154 42.728 10.154 42.896ZM4.162 45.024L3 45.024L3 41.202L4.162 41.202L4.162 45.024ZM10 39.5017L0.83 39.5017L0.69 37.8217L3.42 37.8217C3.21467 37.5231 3.07 37.1917 2.986 36.8277C2.89267 36.4637 2.846 36.0484 2.846 35.5817C2.846 34.9284 2.958 34.4291 3.182 34.0837C3.39667 33.7384 3.714 33.5657 4.134 33.5657L10 33.5657L10 35.2877L4.26 35.2877L4.26 36.6457C4.26 37.0844 4.316 37.3831 4.428 37.5417C4.53067 37.7004 4.72667 37.7797 5.016 37.7797L10 37.7797L10 39.5017ZM10.154 28.8326C10.154 29.3833 10.0933 29.85 9.972 30.2326C9.85067 30.6153 9.65467 30.9186 9.384 31.1426C9.104 31.3666 8.73067 31.53 8.264 31.6326C7.788 31.726 7.2 31.7726 6.5 31.7726C5.59467 31.7726 4.876 31.6746 4.344 31.4786C3.80267 31.2826 3.42 30.956 3.196 30.4986C2.96267 30.032 2.846 29.4113 2.846 28.6366C2.846 27.8806 2.91133 27.2926 3.042 26.8726C3.16333 26.4526 3.38267 26.1586 3.7 25.9906C4.008 25.8133 4.442 25.7246 5.002 25.7246C5.478 25.7246 5.86533 25.7806 6.164 25.8926C6.45333 26.0046 6.67733 26.21 6.836 26.5086C6.99467 26.8073 7.10667 27.232 7.172 27.7826C7.228 28.3333 7.256 29.0566 7.256 29.9526L7.256 30.3726L6.234 30.3726L6.234 28.4126C6.234 27.974 6.18267 27.6753 6.08 27.5166C5.968 27.358 5.76267 27.2786 5.464 27.2786L4.19 27.2786L4.19 28.8326C4.19 29.262 4.24133 29.556 4.344 29.7146C4.44667 29.8733 4.64733 29.9526 4.946 29.9526L8.698 29.9526C8.74467 29.766 8.782 29.5653 8.81 29.3506C8.82867 29.136 8.838 28.8746 8.838 28.5666C8.838 28.184 8.81 27.806 8.754 27.4326C8.698 27.0593 8.60933 26.6253 8.488 26.1306L9.72 25.9066C9.86 26.2893 9.96733 26.7373 10.042 27.2506C10.1167 27.7546 10.154 28.282 10.154 28.8326ZM2.678 17.3651L10 17.3651L10 19.0871L2.678 19.0871L2.678 21.3131L1.25 21.3131L1.25 15.1391L2.678 15.1391L2.678 17.3651ZM10.154 11.7232C10.154 12.3392 10.098 12.8526 9.986 13.2632C9.86467 13.6739 9.66867 14.0006 9.398 14.2432C9.118 14.4859 8.74467 14.6586 8.278 14.7612C7.802 14.8639 7.20933 14.9152 6.5 14.9152C5.79067 14.9152 5.20267 14.8639 4.736 14.7612C4.26 14.6586 3.88667 14.4859 3.616 14.2432C3.336 14.0006 3.14 13.6739 3.028 13.2632C2.90667 12.8526 2.846 12.3392 2.846 11.7232C2.846 11.0979 2.90667 10.5799 3.028 10.1692C3.14 9.75856 3.336 9.43656 3.616 9.20323C3.88667 8.96056 4.25533 8.78789 4.722 8.68523C5.18867 8.58256 5.78133 8.53123 6.5 8.53123C7.20933 8.53123 7.802 8.58256 8.278 8.68523C8.74467 8.78789 9.118 8.96056 9.398 9.20323C9.66867 9.43656 9.86467 9.76323 9.986 10.1832C10.098 10.5939 10.154 11.1072 10.154 11.7232ZM8.796 13.0952L8.796 10.9812C8.796 10.7292 8.77267 10.5612 8.726 10.4772C8.67 10.3839 8.572 10.3372 8.432 10.3372L4.204 10.3372L4.204 12.4512C4.204 12.7032 4.232 12.8759 4.288 12.9692C4.33467 13.0532 4.428 13.0952 4.568 13.0952L8.796 13.0952ZM10.21 3.1199C10.21 3.69857 10.154 4.17923 10.042 4.5619C9.93 4.93523 9.73867 5.22923 9.468 5.4439C9.19733 5.64923 8.824 5.79857 8.348 5.8919C7.86267 5.9759 7.24667 6.0179 6.5 6.0179C5.75333 6.0179 5.14667 5.9759 4.68 5.8919C4.204 5.79857 3.83533 5.64923 3.574 5.4439C3.30333 5.22923 3.11667 4.93523 3.014 4.5619C2.902 4.17923 2.846 3.69856 2.846 3.1199C2.846 2.60656 2.90667 2.1819 3.028 1.8459C3.14 1.50057 3.336 1.2299 3.616 1.0339C3.88667 0.837898 4.25533 0.697898 4.722 0.613898C5.18867 0.529898 5.78133 0.487898 6.5 0.487898C7.21867 0.487898 7.82067 0.529898 8.306 0.613898C8.782 0.697898 9.16 0.842565 9.44 1.0479C9.71067 1.2439 9.90667 1.51456 10.028 1.8599C10.1493 2.1959 10.21 2.6159 10.21 3.1199ZM8.838 4.9399L8.838 2.9379C8.838 2.69523 8.81467 2.5319 8.768 2.4479C8.72133 2.35456 8.628 2.3079 8.488 2.3079L4.204 2.3079L4.204 4.3239C4.204 4.55723 4.22733 4.72057 4.274 4.8139C4.32067 4.8979 4.4 4.9399 4.512 4.9399L8.838 4.9399ZM12.436 6.6619L3 6.6619L3 5.8499L4.512 4.9399L12.268 4.9399L12.436 6.6619Z" fill="white"/>
</svg>
