<svg width="22" height="22" viewBox="0 0 22 22" fill="none" xmlns="http://www.w3.org/2000/svg">
<g clip-path="url(#clip0_236_5915)">
<path d="M16.6989 6.67125C17.4279 6.67125 18.0189 6.08027 18.0189 5.35125C18.0189 4.62223 17.4279 4.03125 16.6989 4.03125C15.9699 4.03125 15.3789 4.62223 15.3789 5.35125C15.3789 6.08027 15.9699 6.67125 16.6989 6.67125Z" fill="white"/>
<path d="M11 16.5C7.96675 16.5 5.5 14.0332 5.5 11C5.5 7.96675 7.96675 5.5 11 5.5C14.0332 5.5 16.5 7.96675 16.5 11C16.5 14.0332 14.0332 16.5 11 16.5ZM11 8.25C9.48337 8.25 8.25 9.48337 8.25 11C8.25 12.5166 9.48337 13.75 11 13.75C12.5166 13.75 13.75 12.5166 13.75 11C13.75 9.48337 12.5166 8.25 11 8.25Z" fill="white"/>
<path d="M16.5 22H5.5C2.673 22 0 19.327 0 16.5V5.5C0 2.673 2.673 0 5.5 0H16.5C19.327 0 22 2.673 22 5.5V16.5C22 19.327 19.327 22 16.5 22ZM5.5 2.75C4.21438 2.75 2.75 4.21438 2.75 5.5V16.5C2.75 17.8104 4.18962 19.25 5.5 19.25H16.5C17.7856 19.25 19.25 17.7856 19.25 16.5V5.5C19.25 4.21438 17.7856 2.75 16.5 2.75H5.5Z" fill="white"/>
</g>
<defs>
<clipPath id="clip0_236_5915">
<rect width="22" height="22" fill="white"/>
</clipPath>
</defs>
</svg>
