<svg width="189" height="52" viewBox="0 0 189 52" fill="none" xmlns="http://www.w3.org/2000/svg">
<g clip-path="url(#clip0_242_10983)">
<path d="M180.032 11.7033C179.497 13.1662 178.693 14.4962 177.489 15.5601C176.418 16.624 175.213 17.289 173.875 17.821C173.072 18.087 172.402 18.2199 171.599 18.3529C170.395 18.4859 169.19 18.8849 168.119 19.6829C167.718 19.9488 167.316 20.3478 166.914 20.7468C166.781 20.8798 166.781 20.8798 166.647 21.0128C166.379 19.9488 166.111 18.8849 166.245 17.821C166.245 17.422 166.245 16.89 166.379 16.491C166.781 14.4962 167.718 12.6343 169.19 11.1714C172.269 8.24552 176.686 7.58056 180.434 9.04348C180.434 9.84143 180.3 10.7724 180.032 11.7033ZM176.552 41.0946C176.552 41.2276 176.418 41.2276 176.418 41.2276H174.544C173.473 41.2276 172.536 40.4297 172.536 39.3657V20.0818C173.205 19.9488 173.875 19.8159 174.544 19.5499C175.213 19.2839 175.883 19.0179 176.552 18.6189V41.0946ZM169.591 30.5882L166.914 33.1151L164.639 30.9872L165.977 29.6573L166.111 29.5243C166.513 29.1253 166.781 28.5934 166.781 28.0614V23.5396L168.387 21.9437C168.654 21.6777 169.056 21.4118 169.458 21.1458C169.859 20.8798 170.261 20.6138 170.796 20.4808V26.3325V27.9284C170.662 28.8593 170.261 29.7903 169.591 30.5882ZM165.174 34.711C164.639 35.243 164.103 35.509 163.3 35.509C162.497 35.509 161.828 35.243 161.293 34.711L160.489 33.913L156.875 30.4552C156.072 29.7903 155.671 28.7263 155.671 27.7954V26.1995V20.3478C156.206 20.4808 156.608 20.7468 157.009 21.0128C157.411 21.2788 157.679 21.5448 158.08 21.8107L159.686 23.4067V27.9284C159.686 28.4604 159.954 28.9923 160.356 29.3913L160.489 29.5243L162.497 31.5192L165.442 34.312L165.174 34.711ZM152.592 17.821C151.254 17.289 150.049 16.624 148.978 15.5601C147.773 14.3632 146.97 13.0332 146.435 11.7033C146.167 10.7724 146.033 9.84143 145.9 9.04348C149.647 7.58056 154.065 8.24552 157.143 11.1714C158.749 12.6343 159.686 14.4962 159.954 16.491C160.088 16.89 160.088 17.422 160.088 17.821C160.088 18.8849 159.954 19.9488 159.686 21.0128C159.552 20.8798 159.552 20.8798 159.419 20.7468C159.017 20.3478 158.616 20.0818 158.214 19.6829C157.143 19.0179 155.938 18.6189 154.734 18.3529C154.065 18.2199 153.261 18.087 152.592 17.821ZM153.931 39.3657C153.931 40.4297 152.994 41.2276 151.923 41.2276H150.049C149.915 41.2276 149.915 41.0946 149.915 41.0946V18.6189C150.584 19.0179 151.12 19.2839 151.923 19.5499C152.592 19.8159 153.261 19.9488 153.931 20.0818V39.3657ZM178.426 0H137.467V39.2327C137.467 44.8184 142.285 49.4731 148.175 49.4731H189.134V10.2404C189 4.52174 184.315 0 178.426 0Z" fill="white"/>
<path d="M16.1961 27.2638H3.2124V25.6679C3.2124 21.6781 5.4879 19.4172 9.63733 19.4172C13.7868 19.4172 16.0623 21.6781 16.0623 25.6679V27.2638H16.1961ZM16.5977 19.0182C14.7237 17.1564 12.4482 16.3584 9.77118 16.3584C7.09413 16.3584 4.81863 17.2893 2.9447 19.0182C1.07076 20.8801 0.133789 23.008 0.133789 25.6679C0.133789 27.3968 0.535347 28.9927 1.47232 30.3226H18.2039C19.1409 28.8597 19.5424 27.3968 19.5424 25.6679C19.4086 23.008 18.4716 20.8801 16.5977 19.0182Z" fill="white"/>
<path d="M66.3907 16.3574H62.6428V27.3958H36.4077L36.5415 26.0659C36.5415 25.7999 36.5415 25.5339 36.5415 25.4009C36.5415 23.007 35.6046 20.8792 33.8645 19.1503C32.1244 17.5544 30.1166 16.6234 27.7072 16.4904V19.5492C31.4551 19.6822 33.4629 21.8101 33.4629 25.4009C33.4629 25.6669 33.4629 26.0659 33.3291 26.3318L33.1952 27.3958H23.1562V30.4546H66.3907V16.3574Z" fill="white"/>
<path d="M66.2567 32.583H62.5088V35.6418H66.2567V32.583Z" fill="white"/>
<path d="M59.8319 32.583H56.084V35.6418H59.8319V32.583Z" fill="white"/>
<path d="M14.8573 10.9053H11.1094V13.9641H14.8573V10.9053Z" fill="white"/>
<path d="M8.29866 10.9053H4.55078V13.9641H8.29866V10.9053Z" fill="white"/>
<path d="M116.452 19.6824C120.2 19.6824 122.207 21.6773 122.207 25.2681C122.207 28.8589 120.2 30.8538 116.452 30.8538C112.704 30.8538 110.696 28.8589 110.696 25.2681C110.696 21.6773 112.704 19.6824 116.452 19.6824ZM80.1776 27.263H70.1387V30.3218H108.822L109.224 30.7208C111.098 32.9816 113.507 34.0456 116.586 34.0456C119.129 34.0456 121.404 33.1146 123.144 31.3857C124.884 29.6568 125.821 27.529 125.821 25.1351C125.821 22.7412 124.884 20.6134 123.144 18.8845C121.404 17.1556 119.129 16.2246 116.586 16.2246C114.042 16.2246 111.767 17.1556 110.027 18.8845C108.287 20.6134 107.35 22.7412 107.35 25.1351C107.35 25.4011 107.35 25.6671 107.35 25.8001L107.484 27.13H83.3901L83.5239 25.8001C83.5239 25.5341 83.5239 25.2681 83.5239 25.1351C83.5239 22.7412 82.587 20.6134 80.8469 18.8845C79.1068 17.2885 77.099 16.3576 74.6897 16.2246V19.2834C78.4375 19.4164 80.4453 21.5443 80.4453 25.1351C80.4453 25.4011 80.4453 25.8001 80.3115 26.066L80.1776 27.263Z" fill="white"/>
<path d="M70.4067 8.7777H76.2963V3.45801H75.2254V7.97975H70.5406C69.8713 7.97975 69.3359 7.84675 68.9344 7.44778C68.5328 7.0488 68.3989 6.64982 68.3989 6.11785C68.3989 5.58589 68.5328 5.18691 68.8005 4.92092C69.0682 4.65494 69.4698 4.52195 70.0052 4.38895L69.8713 3.45801C69.0682 3.45801 68.3989 3.85698 67.9974 4.25596C67.5958 4.78793 67.3281 5.3199 67.3281 6.11785C67.3281 7.0488 67.5958 7.71376 68.1312 8.11274C68.6667 8.51172 69.4698 8.7777 70.4067 8.7777Z" fill="white"/>
<path d="M73.7525 1.19727H72.6816V2.3942H73.7525V1.19727Z" fill="white"/>
<path d="M72.147 1.19727H71.0762V2.3942H72.147V1.19727Z" fill="white"/>
<path d="M80.5793 7.84637H79.107V0.132812H78.0361V8.77731H80.5793V7.84637Z" fill="white"/>
<path d="M84.8623 8.7777V7.84676H83.3899V3.45801H82.3191V7.84676H80.8467V8.7777H84.8623Z" fill="white"/>
<path d="M81.7837 9.70898H80.7129V10.9059H81.7837V9.70898Z" fill="white"/>
<path d="M83.3902 9.70801H82.3193V10.9049H83.3902V9.70801Z" fill="white"/>
<path d="M80.9807 7.84668H80.5791V8.77763H80.9807V7.84668Z" fill="white"/>
<path d="M87.1377 5.85125C87.1377 5.31928 87.2716 4.92031 87.5393 4.52133C87.807 4.25534 88.2086 4.12235 88.744 4.12235C89.2794 4.12235 89.6809 4.25534 89.9486 4.52133C90.2163 4.78731 90.3502 5.31928 90.3502 5.85125V7.84614H89.5471C88.8778 7.84614 88.3424 7.71315 87.9408 7.31417C87.2716 6.91519 87.1377 6.51621 87.1377 5.85125ZM92.358 8.77708V7.84614H91.2872V5.85125C91.2872 4.92031 91.0195 4.38834 90.6179 3.85637C90.2163 3.45739 89.5471 3.19141 88.744 3.19141C87.9409 3.19141 87.2716 3.45739 86.7362 3.85637C86.2008 4.38834 85.9331 4.92031 85.9331 5.71826C85.9331 6.11724 86.0669 6.64921 86.2008 6.91519C86.4685 7.31417 86.7362 7.58015 87.0039 7.71315H84.9961V8.64409H92.358V8.77708Z" fill="white"/>
<path d="M89.2798 1.19727H88.209V2.3942H89.2798V1.19727Z" fill="white"/>
<path d="M85.2639 7.84668H84.8623V8.77763H85.2639V7.84668Z" fill="white"/>
<path d="M103.468 8.77788V7.84693H101.996V4.52213C101.996 4.25614 101.996 3.99016 101.862 3.85716C101.862 3.72417 101.728 3.45819 101.594 3.3252L100.657 3.72417C100.791 3.99016 100.925 4.25614 100.925 4.65512V7.97993H98.6493V3.45819H97.7123V7.97993H95.303V3.45819H94.2321V7.97993H92.7598V8.91087H103.468V8.77788Z" fill="white"/>
<path d="M99.4526 1.46289H98.5156V2.52683H99.4526V1.46289Z" fill="white"/>
<path d="M97.8461 1.46289H96.9092V2.52683H97.8461V1.46289Z" fill="white"/>
<path d="M98.6499 0H97.7129V1.06394H98.6499V0Z" fill="white"/>
<path d="M92.76 7.84668H92.3584V8.77763H92.76V7.84668Z" fill="white"/>
<path d="M104.807 1.19727H103.736V2.3942H104.807V1.19727Z" fill="white"/>
<path d="M107.886 8.7777V7.84676H106.413V3.45801H105.342V7.84676H103.87V8.7777H107.886Z" fill="white"/>
<path d="M106.413 1.19727H105.342V2.3942H106.413V1.19727Z" fill="white"/>
<path d="M103.869 7.84668H103.468V8.77763H103.869V7.84668Z" fill="white"/>
<path d="M118.995 8.7769V7.84596H117.523V4.52115C117.523 4.25517 117.523 3.98918 117.389 3.85619C117.389 3.7232 117.255 3.45721 117.121 3.32422L116.184 3.7232C116.318 3.85619 116.452 4.25517 116.452 4.52115V7.84596H114.177V3.45721H113.106V7.97895H110.697V3.45721H109.626V7.97895H108.153V8.9099H118.995V8.7769Z" fill="white"/>
<path d="M108.287 7.84668H107.886V8.77763H108.287V7.84668Z" fill="white"/>
<path d="M121.538 5.85125C121.538 4.65432 122.074 3.98936 123.144 3.98936C123.68 3.98936 124.081 4.12235 124.349 4.38834C124.617 4.65432 124.751 5.0533 124.751 5.71826C124.751 6.38322 124.617 6.91519 124.215 7.18118C123.814 7.58015 123.278 7.71315 122.475 7.71315H121.672V5.85125H121.538ZM122.074 8.77708C123.144 8.77708 124.081 8.5111 124.751 7.97913C125.42 7.44716 125.688 6.64921 125.688 5.71826C125.688 4.92031 125.42 4.25534 125.018 3.85637C124.483 3.3244 123.947 3.19141 123.144 3.19141C122.341 3.19141 121.672 3.45739 121.27 3.85637C120.601 4.38834 120.467 5.0533 120.467 5.85125V7.84614H119.396V8.77708H122.074Z" fill="white"/>
<path d="M119.397 7.84668H118.995V8.77763H119.397V7.84668Z" fill="white"/>
<path d="M15.3929 47.2127V46.4148H13.6528C12.4482 46.4148 12.1805 46.8137 12.1805 47.3457C12.1805 47.8777 12.7159 48.2766 13.519 48.2766C14.3221 48.2766 15.1252 48.0107 15.3929 47.2127ZM17.133 45.3508V49.4736H15.5268V48.6756C15.1252 49.3406 14.3221 49.6066 13.2513 49.6066C11.5112 49.6066 10.5742 48.6756 10.5742 47.4787C10.5742 46.2818 11.3773 45.3508 13.6528 45.3508H15.5268V45.2178C15.5268 44.2869 14.8575 43.7549 13.6528 43.7549C12.8497 43.7549 12.0466 44.0209 11.3773 44.4199L10.7081 43.2229C11.5112 42.691 12.582 42.292 13.7867 42.292C15.9283 42.292 17.133 43.3559 17.133 45.3508Z" fill="white"/>
<path d="M24.495 45.8825C24.495 44.5526 23.5581 43.7546 22.3534 43.7546C21.1487 43.7546 20.2118 44.5526 20.2118 45.8825C20.2118 47.2124 21.1487 48.1433 22.3534 48.1433C23.5581 48.1433 24.495 47.2124 24.495 45.8825ZM26.2351 39.6318V49.3403H24.6289V48.4093C24.0935 49.0743 23.1565 49.4733 22.2196 49.4733C20.0779 49.4733 18.4717 48.0104 18.4717 45.8825C18.4717 43.7546 20.0779 42.2917 22.2196 42.2917C23.1565 42.2917 23.9596 42.5577 24.6289 43.2226V39.6318H26.2351Z" fill="white"/>
<path d="M29.3133 45.3497H33.4627C33.3288 44.2857 32.5257 43.6208 31.4549 43.6208C30.2502 43.6208 29.4471 44.2857 29.3133 45.3497ZM35.0689 46.4136H29.3133C29.581 47.4775 30.3841 48.1425 31.7226 48.1425C32.5257 48.1425 33.195 47.8765 33.7304 47.3445L34.6674 48.4085C33.9981 49.2064 32.9273 49.6054 31.7226 49.6054C29.3133 49.6054 27.707 48.1425 27.707 46.0146C27.707 43.8867 29.3133 42.4238 31.4549 42.4238C33.5965 42.4238 35.2028 43.8867 35.2028 46.0146C35.0689 46.1476 35.0689 46.2806 35.0689 46.4136Z" fill="white"/>
<path d="M37.6131 45.3497H41.7625C41.6287 44.2857 40.8255 43.6208 39.7547 43.6208C38.55 43.6208 37.7469 44.2857 37.6131 45.3497ZM43.3687 46.4136H37.6131C37.8808 47.4775 38.6839 48.1425 40.0224 48.1425C40.8255 48.1425 41.4948 47.8765 42.0302 47.3445L42.9672 48.4085C42.2979 49.2064 41.2271 49.6054 40.0224 49.6054C37.6131 49.6054 36.0068 48.1425 36.0068 46.0146C36.0068 43.8867 37.6131 42.4238 39.7547 42.4238C41.8964 42.4238 43.5026 43.8867 43.5026 46.0146C43.3687 46.1476 43.3687 46.2806 43.3687 46.4136Z" fill="white"/>
<path d="M50.1952 45.8825C50.1952 44.5526 49.2583 43.7546 48.0536 43.7546C46.8489 43.7546 45.912 44.5526 45.912 45.8825C45.912 47.2124 46.8489 48.1433 48.0536 48.1433C49.2583 48.1433 50.1952 47.2124 50.1952 45.8825ZM51.9353 39.6318V49.3403H50.3291V48.4093C49.7937 49.0743 48.8567 49.4733 47.9197 49.4733C45.7781 49.4733 44.1719 48.0104 44.1719 45.8825C44.1719 43.7546 45.7781 42.2917 47.9197 42.2917C48.8567 42.2917 49.6598 42.5577 50.3291 43.2226V39.6318H51.9353Z" fill="white"/>
<path d="M58.2259 47.2127V46.4148H56.4858C55.2812 46.4148 55.0135 46.8137 55.0135 47.3457C55.0135 47.8777 55.5489 48.2766 56.352 48.2766C57.289 48.2766 57.9582 48.0107 58.2259 47.2127ZM59.966 45.3508V49.4736H58.3598V48.6756C57.9582 49.3406 57.1551 49.6066 56.0843 49.6066C54.3442 49.6066 53.4072 48.6756 53.4072 47.4787C53.4072 46.2818 54.2103 45.3508 56.4858 45.3508H58.3598V45.2178C58.3598 44.2869 57.6905 43.7549 56.4858 43.7549C55.6827 43.7549 54.8796 44.0209 54.2103 44.4199L53.5411 43.2229C54.3442 42.691 55.415 42.292 56.6197 42.292C58.7613 42.292 59.966 43.3559 59.966 45.3508Z" fill="white"/>
<path d="M80.1777 45.8828C80.1777 44.5529 79.2407 43.7549 78.036 43.7549C76.8313 43.7549 75.8944 44.5529 75.8944 45.8828C75.8944 47.2127 76.8313 48.1437 78.036 48.1437C79.2407 48.1437 80.1777 47.2127 80.1777 45.8828ZM74.1543 45.8828C74.1543 43.7549 75.7605 42.292 78.036 42.292C80.3115 42.292 81.9178 43.7549 81.9178 45.8828C81.9178 48.0107 80.3115 49.4736 78.036 49.4736C75.7605 49.4736 74.1543 48.0107 74.1543 45.8828Z" fill="white"/>
<path d="M82.4531 48.8086L83.1224 47.6117C83.7917 48.0107 84.7286 48.2766 85.6656 48.2766C86.7364 48.2766 87.138 48.0107 87.138 47.4787C87.138 46.1488 82.587 47.3457 82.587 44.5529C82.587 43.2229 83.7917 42.292 85.7994 42.292C86.7364 42.292 87.9411 42.558 88.4765 42.957L87.8072 44.1539C87.138 43.7549 86.4687 43.6219 85.6656 43.6219C84.5948 43.6219 84.1932 43.8879 84.1932 44.4199C84.1932 45.8828 88.7442 44.5529 88.7442 47.3457C88.7442 48.6756 87.5395 49.4736 85.3979 49.4736C84.3271 49.4736 83.1224 49.2076 82.4531 48.8086Z" fill="white"/>
<path d="M96.1065 45.8828C96.1065 44.5529 95.1695 43.7549 93.9648 43.7549C92.7601 43.7549 91.8232 44.5529 91.8232 45.8828C91.8232 47.2127 92.7601 48.1437 93.9648 48.1437C95.1695 48.1437 96.1065 47.2127 96.1065 45.8828ZM97.8465 45.8828C97.8465 48.0107 96.2403 49.4736 94.0987 49.4736C93.1617 49.4736 92.3586 49.2076 91.6893 48.5426V52.0004H89.9492V42.425H91.5555V43.3559C92.0909 42.691 93.0278 42.292 93.9648 42.292C96.2403 42.292 97.8465 43.7549 97.8465 45.8828Z" fill="white"/>
<path d="M99.1847 42.425H100.925V49.4736H99.1847V42.425ZM98.917 40.2972C98.917 39.7652 99.3185 39.3662 99.9878 39.3662C100.657 39.3662 101.059 39.7652 101.059 40.2972C101.059 40.8291 100.657 41.3611 99.9878 41.3611C99.4524 41.2281 98.917 40.8291 98.917 40.2972Z" fill="white"/>
<path d="M107.216 49.0735C106.815 49.3395 106.146 49.6054 105.61 49.6054C104.004 49.6054 103.067 48.8075 103.067 47.2116V43.8868H101.862V42.5568H103.067V40.9609H104.807V42.5568H106.815V43.8868H104.807V47.2116C104.807 47.8765 105.209 48.2755 105.878 48.2755C106.279 48.2755 106.547 48.1425 106.815 48.0095L107.216 49.0735Z" fill="white"/>
<path d="M112.838 47.2117V46.4138H111.098C109.893 46.4138 109.626 46.8128 109.626 47.3447C109.626 47.8767 110.161 48.2757 110.964 48.2757C111.767 48.2757 112.571 48.0097 112.838 47.2117ZM114.578 45.3498V49.4726H112.972V48.6746C112.571 49.3396 111.767 49.6056 110.697 49.6056C109.09 49.6056 108.02 48.6746 108.02 47.4777C108.02 46.2808 108.823 45.3498 111.098 45.3498H112.972V45.2168C112.972 44.2859 112.303 43.7539 111.098 43.7539C110.295 43.7539 109.358 44.0199 108.823 44.4189L108.153 43.222C108.957 42.69 110.027 42.291 111.232 42.291C113.374 42.291 114.578 43.355 114.578 45.3498Z" fill="white"/>
<path d="M118.192 39.6318H116.452V49.3403H118.192V39.6318Z" fill="white"/>
<path d="M119.263 48.8086L119.932 47.6117C120.601 48.0107 121.538 48.2766 122.475 48.2766C123.546 48.2766 123.948 48.0107 123.948 47.4787C123.948 46.1488 119.397 47.3457 119.397 44.5529C119.397 43.2229 120.601 42.292 122.609 42.292C123.546 42.292 124.751 42.558 125.286 42.957L124.617 44.1539C123.948 43.7549 123.278 43.6219 122.475 43.6219C121.404 43.6219 121.003 43.8879 121.003 44.4199C121.003 45.8828 125.554 44.5529 125.554 47.3457C125.554 48.6756 124.349 49.4736 122.207 49.4736C121.137 49.4736 119.932 49.2076 119.263 48.8086Z" fill="white"/>
<path d="M71.2096 44.0208H67.4618V40.1641H65.7217V44.0208V45.7497V49.6065H67.4618V45.7497H71.2096V49.6065H72.9497V40.1641H71.2096V44.0208Z" fill="white"/>
<path d="M1.60623 40.2969L4.55099 43.8877L7.49575 40.2969H9.10198V49.4733H7.3619V42.9567H7.22804L4.68484 46.2815H4.41714L1.74008 42.9567V49.4733H0V40.2969H1.60623Z" fill="white"/>
</g>
<defs>
<clipPath id="clip0_242_10983">
<rect width="189" height="52" fill="white"/>
</clipPath>
</defs>
</svg>
