<svg width="170" height="74" viewBox="0 0 170 74" fill="none" xmlns="http://www.w3.org/2000/svg">
<path d="M78.0894 67.9876C78.4225 67.1211 78.9407 66.319 79.6348 65.6184C80.4306 64.8256 81.3746 64.2725 82.374 63.9498C82.994 63.747 83.6325 63.6364 84.2711 63.6179C85.3075 66.107 84.8078 69.0755 82.7812 71.0944C81.7355 72.1361 80.4306 72.7722 79.061 73.0027C78.7557 73.058 78.4503 73.0857 78.1449 73.0949C77.3953 73.1225 76.6365 73.0211 75.9147 72.8091C75.9702 72.763 76.0257 72.7077 76.072 72.6616C76.3403 72.3942 76.5717 72.1177 76.7845 71.8227C77.275 71.1405 77.5619 70.3384 77.6822 69.5088C77.7655 68.9925 77.895 68.4762 78.0894 67.9876Z" fill="#4D849E"/>
<path d="M67.5948 63.9498C68.5943 64.2725 69.5382 64.8256 70.334 65.6184C71.0281 66.3098 71.5463 67.1211 71.8795 67.9876C72.0738 68.4855 72.2034 68.9925 72.2774 69.5088C72.3977 70.3384 72.6846 71.1405 73.175 71.8227C73.3879 72.1177 73.6285 72.3942 73.8876 72.6616C73.9431 72.7169 73.9894 72.763 74.0449 72.8091C73.3231 73.0303 72.5643 73.1225 71.8147 73.0949C71.5093 73.0857 71.2039 73.058 70.8985 73.0027C69.5382 72.7722 68.2334 72.1361 67.1784 71.0944C65.1518 69.0755 64.6521 66.107 65.6885 63.6179C66.3456 63.6364 66.9841 63.747 67.5948 63.9498Z" fill="#4D849E"/>
<path d="M78.0894 42.599C78.4225 41.7324 78.9407 40.9304 79.6348 40.2297C80.4306 39.4369 81.3746 38.8838 82.374 38.5611C82.994 38.3583 83.6325 38.2477 84.2711 38.2292C85.3075 40.7183 84.8078 43.6868 82.7812 45.7057C81.7355 46.7474 80.4306 47.3835 79.061 47.614C78.7557 47.6693 78.4503 47.697 78.1449 47.7062C77.3953 47.7339 76.6365 47.6325 75.9147 47.4204C75.9702 47.3743 76.0257 47.319 76.072 47.2729C76.3403 47.0056 76.5717 46.729 76.7845 46.434C77.275 45.7518 77.5619 44.9498 77.6822 44.1201C77.7655 43.6038 77.895 43.0876 78.0894 42.599Z" fill="#4D849E"/>
<path d="M78.0894 31.619C78.4225 32.4856 78.9407 33.2877 79.6348 33.9883C80.4306 34.7811 81.3746 35.3342 82.374 35.6569C82.994 35.8597 83.6325 35.9703 84.2711 35.9888C85.3075 33.4997 84.8078 30.5312 82.7812 28.5123C81.7355 27.4706 80.4306 26.8345 79.061 26.604C78.7557 26.5487 78.4503 26.521 78.1449 26.5118C77.3953 26.4842 76.6365 26.5856 75.9147 26.7976C75.9702 26.8437 76.0257 26.899 76.072 26.9451C76.3403 27.2124 76.5717 27.489 76.7845 27.784C77.275 28.4662 77.5619 29.2682 77.6822 30.0979C77.7655 30.6142 77.895 31.1304 78.0894 31.619Z" fill="#4D849E"/>
<path d="M82.3745 60.9077C81.3751 60.585 80.4312 60.0319 79.6353 59.2391C78.9413 58.5476 78.423 57.7364 78.0899 56.8698C77.8955 56.372 77.766 55.865 77.692 55.3487C77.5717 54.519 77.2848 53.717 76.7943 53.0348C76.5815 52.7398 76.3409 52.4632 76.0817 52.1959C76.0262 52.1406 75.98 52.0945 75.9244 52.0484C76.6462 51.8271 77.4051 51.7349 78.1547 51.7626C78.46 51.7718 78.7654 51.7995 79.0708 51.8548C80.4312 52.0852 81.736 52.7213 82.7909 53.7631C84.8176 55.782 85.3173 58.7505 84.2808 61.2395C83.6331 61.2211 82.9945 61.1105 82.3745 60.9077Z" fill="#4D849E"/>
<path d="M71.8888 56.8695C71.5556 57.7361 71.0374 58.5381 70.3434 59.2388C69.5475 60.0316 68.6036 60.5847 67.6042 60.9074C66.9841 61.1102 66.3456 61.2208 65.7071 61.2392C64.6706 58.7502 65.1703 55.7817 67.197 53.7628C68.2427 52.721 69.5475 52.0849 70.9171 51.8545C71.2225 51.7992 71.5279 51.7715 71.8333 51.7623C72.5828 51.7346 73.3417 51.836 74.0635 52.0481C74.008 52.0942 73.9524 52.1495 73.9062 52.1956C73.6378 52.4629 73.4064 52.7395 73.1936 53.0345C72.7031 53.7167 72.4163 54.5187 72.296 55.3484C72.2127 55.8647 72.0739 56.3809 71.8888 56.8695Z" fill="#4D849E"/>
<path d="M67.5948 38.5611C68.5943 38.8838 69.5382 39.4369 70.334 40.2297C71.0281 40.9211 71.5463 41.7324 71.8795 42.599C72.0738 43.0968 72.2034 43.6038 72.2774 44.1201C72.3977 44.9498 72.6846 45.7518 73.175 46.434C73.3879 46.729 73.6285 47.0056 73.8876 47.2729C73.9431 47.3282 73.9894 47.3743 74.0449 47.4204C73.3231 47.6417 72.5643 47.7339 71.8147 47.7062C71.5093 47.697 71.2039 47.6693 70.8985 47.614C69.5382 47.3835 68.2334 46.7474 67.1784 45.7057C65.1518 43.6868 64.6521 40.7183 65.6885 38.2292C66.3456 38.2477 66.9841 38.3583 67.5948 38.5611Z" fill="#4D849E"/>
<path d="M67.5948 35.6569C68.5943 35.3342 69.5382 34.7811 70.334 33.9883C71.0281 33.2969 71.5463 32.4856 71.8795 31.619C72.0738 31.1212 72.2034 30.6142 72.2774 30.0979C72.3977 29.2682 72.6846 28.4662 73.175 27.784C73.3879 27.489 73.6285 27.2124 73.8876 26.9451C73.9431 26.8898 73.9894 26.8437 74.0449 26.7976C73.3231 26.5763 72.5643 26.4842 71.8147 26.5118C71.5093 26.521 71.2039 26.5487 70.8985 26.604C69.5382 26.8345 68.2334 27.4706 67.1784 28.5123C65.1518 30.5312 64.6521 33.4997 65.6885 35.9888C66.3456 35.9703 66.9841 35.8597 67.5948 35.6569Z" fill="#4D849E"/>
<path d="M78.0894 17.2098C78.4225 16.3432 78.9407 15.5412 79.6348 14.8406C80.4306 14.0478 81.3746 13.4946 82.374 13.172C82.994 12.9692 83.6325 12.8585 84.2711 12.8401C85.3075 15.3292 84.8078 18.2976 82.7812 20.3166C81.7355 21.3583 80.4306 21.9944 79.061 22.2249C78.7557 22.2802 78.4503 22.3078 78.1449 22.317C77.3953 22.3447 76.6365 22.2433 75.9147 22.0313C75.9702 21.9852 76.0257 21.9299 76.072 21.8838C76.3403 21.6164 76.5717 21.3398 76.7845 21.0448C77.275 20.3627 77.5619 19.5606 77.6822 18.7309C77.7655 18.2147 77.895 17.6984 78.0894 17.2098Z" fill="#4D849E"/>
<path d="M67.5948 13.1722C68.5943 13.4949 69.5382 14.048 70.334 14.8408C71.0281 15.5322 71.5463 16.3435 71.8795 17.2101C72.0738 17.7079 72.2034 18.2149 72.2774 18.7312C72.3977 19.5609 72.6846 20.3629 73.175 21.0451C73.3879 21.3401 73.6285 21.6167 73.8876 21.884C73.9431 21.9393 73.9894 21.9854 74.0449 22.0315C73.3231 22.2528 72.5643 22.3449 71.8147 22.3173C71.5093 22.3081 71.2039 22.2804 70.8985 22.2251C69.5382 21.9946 68.2334 21.3585 67.1784 20.3168C65.1518 18.2979 64.6521 15.3294 65.6885 12.8403C66.3456 12.8588 66.9841 12.9694 67.5948 13.1722Z" fill="#4D849E"/>
<path d="M82.3735 10.1298C81.3741 9.80717 80.4302 9.25405 79.6343 8.46123C78.9403 7.76981 78.4221 6.95855 78.0889 6.09198C77.8946 5.59417 77.765 5.08713 77.691 4.57088C77.5707 3.74118 77.2838 2.93914 76.7933 2.25695C76.5805 1.96195 76.3399 1.68538 76.0808 1.41804C76.0252 1.36272 75.979 1.31663 75.9235 1.27054C76.6453 1.04928 77.4041 0.957096 78.1537 0.984753C78.4591 0.993972 78.7644 1.02163 79.0698 1.07694C80.4302 1.30741 81.735 1.94351 82.79 2.98524C84.8166 5.00416 85.3163 7.97263 84.2799 10.4617C83.6321 10.4433 82.9936 10.3326 82.3735 10.1298Z" fill="#4D849E"/>
<path d="M71.8888 6.10193C71.5556 6.9685 71.0374 7.77054 70.3434 8.47117C69.5475 9.26399 68.6036 9.81712 67.6042 10.1398C66.9841 10.3426 66.3456 10.4532 65.7071 10.4717C64.6706 7.98258 65.1703 5.01411 67.197 2.99519C68.2427 1.95346 69.5475 1.31736 70.9171 1.08689C71.2225 1.03158 71.5279 1.00392 71.8333 0.994702C72.5828 0.967046 73.3417 1.06845 74.0635 1.28049C74.008 1.32658 73.9524 1.38189 73.9062 1.42799C73.6378 1.69533 73.4064 1.9719 73.1936 2.2669C72.7031 2.94909 72.4163 3.75113 72.296 4.58083C72.2127 5.09708 72.0739 5.60412 71.8888 6.10193Z" fill="#4D849E"/>
<path d="M132.041 63.9498C133.041 64.2725 133.984 64.8256 134.78 65.6184C135.474 66.3098 135.993 67.1211 136.326 67.9876C136.52 68.4855 136.65 68.9925 136.724 69.5088C136.844 70.3384 137.131 71.1405 137.621 71.8227C137.834 72.1177 138.075 72.3942 138.334 72.6616C138.389 72.7169 138.436 72.763 138.491 72.8091C137.769 73.0303 137.011 73.1225 136.261 73.0949C135.956 73.0857 135.65 73.058 135.345 73.0027C133.984 72.7722 132.68 72.1361 131.625 71.0944C129.598 69.0755 129.098 66.107 130.135 63.6179C130.783 63.6364 131.421 63.747 132.041 63.9498Z" fill="#4D849E"/>
<path d="M136.325 56.8695C135.992 57.7361 135.474 58.5381 134.78 59.2388C133.984 60.0316 133.04 60.5847 132.041 60.9074C131.421 61.1102 130.782 61.2208 130.144 61.2392C129.107 58.7502 129.607 55.7817 131.633 53.7628C132.679 52.721 133.984 52.0849 135.354 51.8545C135.659 51.7992 135.964 51.7715 136.27 51.7623C137.019 51.7346 137.778 51.836 138.5 52.0481C138.444 52.0942 138.389 52.1495 138.343 52.1956C138.074 52.4629 137.843 52.7395 137.63 53.0345C137.14 53.7167 136.853 54.5187 136.732 55.3484C136.649 55.8647 136.52 56.3809 136.325 56.8695Z" fill="#4D849E"/>
<path d="M132.04 38.5611C133.04 38.8838 133.984 39.4369 134.779 40.2297C135.473 40.9211 135.992 41.7324 136.325 42.599C136.519 43.0968 136.649 43.6038 136.723 44.1201C136.843 44.9498 137.13 45.7518 137.62 46.434C137.833 46.729 138.074 47.0056 138.333 47.2729C138.388 47.3282 138.435 47.3743 138.49 47.4204C137.768 47.6417 137.01 47.7339 136.26 47.7062C135.955 47.697 135.649 47.6693 135.344 47.614C133.984 47.3835 132.679 46.7474 131.624 45.7057C129.597 43.6868 129.097 40.7183 130.134 38.2292C130.782 38.2477 131.42 38.3583 132.04 38.5611Z" fill="#4D849E"/>
<path d="M136.325 31.4803C135.992 32.3469 135.474 33.149 134.78 33.8496C133.984 34.6424 133.04 35.1955 132.041 35.5182C131.421 35.721 130.782 35.8316 130.144 35.8501C129.107 33.361 129.607 30.3925 131.633 28.3736C132.679 27.3319 133.984 26.6958 135.354 26.4653C135.659 26.41 135.964 26.3823 136.27 26.3731C137.019 26.3455 137.778 26.4469 138.5 26.6589C138.444 26.705 138.389 26.7603 138.343 26.8064C138.074 27.0737 137.843 27.3503 137.63 27.6453C137.14 28.3275 136.853 29.1295 136.732 29.9592C136.649 30.4755 136.52 30.9918 136.325 31.4803Z" fill="#4D849E"/>
<path d="M132.041 13.172C133.041 13.4946 133.984 14.0478 134.78 14.8406C135.474 15.532 135.993 16.3432 136.326 17.2098C136.52 17.7076 136.65 18.2147 136.724 18.7309C136.844 19.5606 137.131 20.3627 137.621 21.0448C137.834 21.3398 138.075 21.6164 138.334 21.8838C138.389 21.9391 138.436 21.9852 138.491 22.0313C137.769 22.2525 137.011 22.3447 136.261 22.317C135.956 22.3078 135.65 22.2802 135.345 22.2249C133.984 21.9944 132.68 21.3583 131.625 20.3166C129.598 18.2976 129.098 15.3292 130.135 12.8401C130.783 12.8585 131.421 12.9692 132.041 13.172Z" fill="#4D849E"/>
<path d="M136.325 6.10242C135.992 6.96899 135.474 7.77103 134.78 8.47166C133.984 9.26448 133.04 9.81761 132.041 10.1403C131.421 10.3431 130.782 10.4537 130.144 10.4721C129.107 7.98306 129.607 5.0146 131.633 2.99568C132.679 1.95395 133.984 1.31785 135.354 1.08738C135.659 1.03207 135.964 1.00441 136.27 0.99519C137.019 0.967534 137.778 1.06894 138.5 1.28097C138.444 1.32707 138.389 1.38238 138.343 1.42848C138.074 1.69582 137.843 1.97239 137.63 2.26739C137.14 2.94958 136.853 3.75162 136.732 4.58132C136.649 5.09757 136.52 5.60461 136.325 6.10242Z" fill="#4D849E"/>
<path d="M121.047 67.9876C121.381 67.1211 121.899 66.319 122.593 65.6184C123.389 64.8256 124.333 64.2725 125.332 63.9498C125.952 63.747 126.591 63.6364 127.229 63.6179C128.266 66.107 127.766 69.0755 125.739 71.0944C124.693 72.1361 123.389 72.7722 122.019 73.0027C121.714 73.058 121.408 73.0857 121.103 73.0949C120.353 73.1225 119.594 73.0211 118.873 72.8091C118.928 72.763 118.984 72.7077 119.03 72.6616C119.298 72.3942 119.53 72.1177 119.743 71.8227C120.233 71.1405 120.52 70.3384 120.64 69.5088C120.723 68.9925 120.862 68.4762 121.047 67.9876Z" fill="#4D849E"/>
<path d="M110.562 63.9498C111.561 64.2725 112.505 64.8256 113.301 65.6184C113.995 66.3098 114.513 67.1211 114.846 67.9876C115.041 68.4855 115.17 68.9925 115.244 69.5088C115.364 70.3384 115.651 71.1405 116.142 71.8227C116.355 72.1177 116.595 72.3942 116.854 72.6616C116.91 72.7169 116.956 72.763 117.012 72.8091C116.29 73.0303 115.531 73.1225 114.781 73.0949C114.476 73.0857 114.171 73.058 113.865 73.0027C112.505 72.7722 111.2 72.1361 110.145 71.0944C108.119 69.0755 107.619 66.107 108.655 63.6179C109.303 63.6364 109.942 63.747 110.562 63.9498Z" fill="#4D849E"/>
<path d="M121.047 42.599C121.381 41.7324 121.899 40.9304 122.593 40.2297C123.389 39.4369 124.333 38.8838 125.332 38.5611C125.952 38.3583 126.591 38.2477 127.229 38.2292C128.266 40.7183 127.766 43.6868 125.739 45.7057C124.693 46.7474 123.389 47.3835 122.019 47.614C121.714 47.6693 121.408 47.697 121.103 47.7062C120.353 47.7339 119.594 47.6325 118.873 47.4204C118.928 47.3743 118.984 47.319 119.03 47.2729C119.298 47.0056 119.53 46.729 119.743 46.434C120.233 45.7518 120.52 44.9498 120.64 44.1201C120.723 43.6038 120.862 43.0876 121.047 42.599Z" fill="#4D849E"/>
<path d="M125.332 60.9077C124.332 60.585 123.388 60.0319 122.592 59.2391C121.898 58.5476 121.38 57.7364 121.047 56.8698C120.853 56.372 120.723 55.865 120.649 55.3487C120.529 54.519 120.242 53.717 119.751 53.0348C119.538 52.7398 119.298 52.4632 119.039 52.1959C118.983 52.1406 118.937 52.0945 118.881 52.0484C119.603 51.8271 120.362 51.7349 121.112 51.7626C121.417 51.7718 121.722 51.7995 122.028 51.8548C123.388 52.0852 124.693 52.7213 125.748 53.7631C127.775 55.782 128.274 58.7505 127.238 61.2395C126.59 61.2211 125.952 61.1105 125.332 60.9077Z" fill="#4D849E"/>
<path d="M114.846 56.8695C114.513 57.7361 113.994 58.5381 113.3 59.2388C112.505 60.0316 111.561 60.5847 110.561 60.9074C109.941 61.1102 109.303 61.2208 108.664 61.2392C107.628 58.7502 108.127 55.7817 110.154 53.7628C111.2 52.721 112.505 52.0849 113.874 51.8545C114.18 51.7992 114.485 51.7715 114.79 51.7623C115.54 51.7346 116.299 51.836 117.021 52.0481C116.965 52.0942 116.909 52.1495 116.863 52.1956C116.595 52.4629 116.363 52.7395 116.151 53.0345C115.66 53.7167 115.373 54.5187 115.253 55.3484C115.17 55.8647 115.031 56.3809 114.846 56.8695Z" fill="#4D849E"/>
<path d="M110.563 38.5611C111.562 38.8838 112.506 39.4369 113.302 40.2297C113.996 40.9211 114.514 41.7324 114.847 42.599C115.042 43.0968 115.171 43.6038 115.245 44.1201C115.365 44.9498 115.652 45.7518 116.143 46.434C116.356 46.729 116.596 47.0056 116.855 47.2729C116.911 47.3282 116.957 47.3743 117.013 47.4204C116.291 47.6417 115.532 47.7339 114.782 47.7062C114.477 47.697 114.172 47.6693 113.866 47.614C112.506 47.3835 111.201 46.7474 110.146 45.7057C108.12 43.6868 107.62 40.7183 108.656 38.2292C109.304 38.2477 109.943 38.3583 110.563 38.5611Z" fill="#4D849E"/>
<path d="M110.563 35.6569C111.562 35.3342 112.506 34.7811 113.302 33.9883C113.996 33.2969 114.514 32.4856 114.847 31.619C115.042 31.1212 115.171 30.6142 115.245 30.0979C115.365 29.2682 115.652 28.4662 116.143 27.784C116.356 27.489 116.596 27.2124 116.855 26.9451C116.911 26.8898 116.957 26.8437 117.013 26.7976C116.291 26.5763 115.532 26.4842 114.782 26.5118C114.477 26.521 114.172 26.5487 113.866 26.604C112.506 26.8345 111.201 27.4706 110.146 28.5123C108.12 30.5312 107.62 33.4997 108.656 35.9888C109.304 35.9703 109.943 35.8597 110.563 35.6569Z" fill="#4D849E"/>
<path d="M121.047 17.2098C121.381 16.3432 121.899 15.5412 122.593 14.8406C123.389 14.0478 124.333 13.4946 125.332 13.172C125.952 12.9692 126.591 12.8585 127.229 12.8401C128.266 15.3292 127.766 18.2976 125.739 20.3166C124.693 21.3583 123.389 21.9944 122.019 22.2249C121.714 22.2802 121.408 22.3078 121.103 22.317C120.353 22.3447 119.594 22.2433 118.873 22.0313C118.928 21.9852 118.984 21.9299 119.03 21.8838C119.298 21.6164 119.53 21.3398 119.743 21.0448C120.233 20.3627 120.52 19.5606 120.64 18.7309C120.723 18.2147 120.862 17.6984 121.047 17.2098Z" fill="#4D849E"/>
<path d="M125.332 35.6215C124.332 35.2989 123.388 34.7457 122.592 33.9529C121.898 33.2615 121.38 32.4503 121.047 31.5837C120.853 31.0859 120.723 30.5788 120.649 30.0626C120.529 29.2329 120.242 28.4308 119.751 27.7486C119.538 27.4536 119.298 27.1771 119.039 26.9097C118.983 26.8544 118.937 26.8083 118.881 26.7622C119.603 26.541 120.362 26.4488 121.112 26.4765C121.417 26.4857 121.722 26.5133 122.028 26.5686C123.388 26.7991 124.693 27.4352 125.748 28.4769C127.775 30.4959 128.274 33.4643 127.238 35.9534C126.59 35.935 125.952 35.8243 125.332 35.6215Z" fill="#4D849E"/>
<path d="M110.562 13.1722C111.561 13.4949 112.505 14.048 113.301 14.8408C113.995 15.5322 114.513 16.3435 114.846 17.2101C115.041 17.7079 115.17 18.2149 115.244 18.7312C115.364 19.5609 115.651 20.3629 116.142 21.0451C116.355 21.3401 116.595 21.6167 116.854 21.884C116.91 21.9393 116.956 21.9854 117.012 22.0315C116.29 22.2528 115.531 22.3449 114.781 22.3173C114.476 22.3081 114.171 22.2804 113.865 22.2251C112.505 21.9946 111.2 21.3585 110.145 20.3168C108.119 18.2979 107.619 15.3294 108.655 12.8403C109.303 12.8588 109.942 12.9694 110.562 13.1722Z" fill="#4D849E"/>
<path d="M125.332 10.1301C124.332 9.80742 123.388 9.25429 122.592 8.46147C121.898 7.77006 121.38 6.9588 121.047 6.09223C120.853 5.59441 120.723 5.08738 120.649 4.57112C120.529 3.74143 120.242 2.93939 119.751 2.25719C119.538 1.96219 119.298 1.68563 119.039 1.41828C118.983 1.36297 118.937 1.31687 118.881 1.27078C119.603 1.04953 120.362 0.95734 121.112 0.984997C121.417 0.994216 121.722 1.02187 122.028 1.07718C123.388 1.30766 124.693 1.94376 125.748 2.98548C127.775 5.00441 128.274 7.97287 127.238 10.462C126.59 10.4435 125.952 10.3329 125.332 10.1301Z" fill="#4D849E"/>
<path d="M114.846 6.10193C114.513 6.9685 113.994 7.77054 113.3 8.47117C112.505 9.26399 111.561 9.81712 110.561 10.1398C109.941 10.3426 109.303 10.4532 108.664 10.4717C107.628 7.98258 108.127 5.01411 110.154 2.99519C111.2 1.95346 112.505 1.31736 113.874 1.08689C114.18 1.03158 114.485 1.00392 114.79 0.994702C115.54 0.967046 116.299 1.06845 117.021 1.28049C116.965 1.32658 116.909 1.38189 116.863 1.42799C116.595 1.69533 116.363 1.9719 116.151 2.2669C115.66 2.94909 115.373 3.75113 115.253 4.58083C115.17 5.09708 115.031 5.60412 114.846 6.10193Z" fill="#4D849E"/>
<path d="M99.5679 67.9876C99.901 67.1211 100.419 66.319 101.113 65.6184C101.909 64.8256 102.853 64.2725 103.853 63.9498C104.473 63.747 105.111 63.6364 105.75 63.6179C106.786 66.107 106.286 69.0755 104.26 71.0944C103.214 72.1361 101.909 72.7722 100.54 73.0027C100.234 73.058 99.9288 73.0857 99.6234 73.0949C98.8738 73.1225 98.115 73.0211 97.3932 72.8091C97.4487 72.763 97.5042 72.7077 97.5505 72.6616C97.8189 72.3942 98.0502 72.1177 98.2631 71.8227C98.7535 71.1405 99.0404 70.3384 99.1607 69.5088C99.244 68.9925 99.3735 68.4762 99.5679 67.9876Z" fill="#4D849E"/>
<path d="M89.0743 63.9498C90.0738 64.2725 91.0177 64.8256 91.8135 65.6184C92.5076 66.3098 93.0258 67.1211 93.359 67.9876C93.5533 68.4855 93.6829 68.9925 93.7569 69.5088C93.8772 70.3384 94.1641 71.1405 94.6545 71.8227C94.8674 72.1177 95.108 72.3942 95.3671 72.6616C95.4226 72.7169 95.4689 72.763 95.5244 72.8091C94.8026 73.0303 94.0438 73.1225 93.2942 73.0949C92.9888 73.0857 92.6834 73.058 92.378 73.0027C91.0177 72.7722 89.7129 72.1361 88.6579 71.0944C86.6313 69.0755 86.1316 66.107 87.168 63.6179C87.825 63.6364 88.4636 63.747 89.0743 63.9498Z" fill="#4D849E"/>
<path d="M99.5669 42.599C99.9001 41.7324 100.418 40.9304 101.112 40.2297C101.908 39.4369 102.852 38.8838 103.852 38.5611C104.472 38.3583 105.11 38.2477 105.749 38.2292C106.785 40.7183 106.285 43.6868 104.259 45.7057C103.213 46.7474 101.908 47.3835 100.539 47.614C100.233 47.6693 99.9278 47.697 99.6224 47.7062C98.8729 47.7339 98.114 47.6325 97.3922 47.4204C97.4477 47.3743 97.5033 47.319 97.5495 47.2729C97.8179 47.0056 98.0492 46.729 98.2621 46.434C98.7525 45.7518 99.0394 44.9498 99.1597 44.1201C99.243 43.6038 99.3726 43.0876 99.5669 42.599Z" fill="#4D849E"/>
<path d="M99.5669 31.619C99.9001 32.4856 100.418 33.2877 101.112 33.9883C101.908 34.7811 102.852 35.3342 103.852 35.6569C104.472 35.8597 105.11 35.9703 105.749 35.9888C106.785 33.4997 106.285 30.5312 104.259 28.5123C103.213 27.4706 101.908 26.8345 100.539 26.604C100.233 26.5487 99.9278 26.521 99.6224 26.5118C98.8729 26.4842 98.114 26.5856 97.3922 26.7976C97.4477 26.8437 97.5033 26.899 97.5495 26.9451C97.8179 27.2124 98.0492 27.489 98.2621 27.784C98.7525 28.4662 99.0394 29.2682 99.1597 30.0979C99.243 30.6142 99.3726 31.1304 99.5669 31.619Z" fill="#4D849E"/>
<path d="M103.854 60.9077C102.855 60.585 101.911 60.0319 101.115 59.2391C100.421 58.5476 99.9025 57.7364 99.5694 56.8698C99.375 56.372 99.2455 55.865 99.1714 55.3487C99.0511 54.519 98.7643 53.717 98.2738 53.0348C98.061 52.7398 97.8204 52.4632 97.5612 52.1959C97.5057 52.1406 97.4594 52.0945 97.4039 52.0484C98.1257 51.8271 98.8846 51.7349 99.6341 51.7626C99.9395 51.7718 100.245 51.7995 100.55 51.8548C101.911 52.0852 103.215 52.7213 104.27 53.7631C106.297 55.782 106.797 58.7505 105.76 61.2395C105.113 61.2211 104.474 61.1105 103.854 60.9077Z" fill="#4D849E"/>
<path d="M93.3683 56.8695C93.0351 57.7361 92.5169 58.5381 91.8228 59.2388C91.027 60.0316 90.0831 60.5847 89.0836 60.9074C88.4636 61.1102 87.8251 61.2208 87.1866 61.2392C86.1501 58.7502 86.6498 55.7817 88.6765 53.7628C89.7222 52.721 91.027 52.0849 92.3966 51.8545C92.702 51.7992 93.0074 51.7715 93.3127 51.7623C94.0623 51.7346 94.8212 51.836 95.543 52.0481C95.4874 52.0942 95.4319 52.1495 95.3857 52.1956C95.1173 52.4629 94.8859 52.7395 94.6731 53.0345C94.1826 53.7167 93.8957 54.5187 93.7754 55.3484C93.6922 55.8647 93.5533 56.3809 93.3683 56.8695Z" fill="#4D849E"/>
<path d="M89.0734 38.5611C90.0728 38.8838 91.0167 39.4369 91.8126 40.2297C92.5066 40.9211 93.0248 41.7324 93.358 42.599C93.5523 43.0968 93.6819 43.6038 93.7559 44.1201C93.8762 44.9498 94.1631 45.7518 94.6536 46.434C94.8664 46.729 95.107 47.0056 95.3661 47.2729C95.4216 47.3282 95.4679 47.3743 95.5234 47.4204C94.8016 47.6417 94.0428 47.7339 93.2932 47.7062C92.9878 47.697 92.6824 47.6693 92.3771 47.614C91.0167 47.3835 89.7119 46.7474 88.6569 45.7057C86.6303 43.6868 86.1306 40.7183 87.167 38.2292C87.8241 38.2477 88.4626 38.3583 89.0734 38.5611Z" fill="#4D849E"/>
<path d="M89.0734 35.6569C90.0728 35.3342 91.0167 34.7811 91.8126 33.9883C92.5066 33.2969 93.0248 32.4856 93.358 31.619C93.5523 31.1212 93.6819 30.6142 93.7559 30.0979C93.8762 29.2682 94.1631 28.4662 94.6536 27.784C94.8664 27.489 95.107 27.2124 95.3661 26.9451C95.4216 26.8898 95.4679 26.8437 95.5234 26.7976C94.8016 26.5763 94.0428 26.4842 93.2932 26.5118C92.9878 26.521 92.6824 26.5487 92.3771 26.604C91.0167 26.8345 89.7119 27.4706 88.6569 28.5123C86.6303 30.5312 86.1306 33.4997 87.167 35.9888C87.8241 35.9703 88.4626 35.8597 89.0734 35.6569Z" fill="#4D849E"/>
<path d="M99.5669 17.2098C99.9001 16.3432 100.418 15.5412 101.112 14.8406C101.908 14.0478 102.852 13.4946 103.852 13.172C104.472 12.9692 105.11 12.8585 105.749 12.8401C106.785 15.3292 106.285 18.2976 104.259 20.3166C103.213 21.3583 101.908 21.9944 100.539 22.2249C100.233 22.2802 99.9278 22.3078 99.6224 22.317C98.8729 22.3447 98.114 22.2433 97.3922 22.0313C97.4477 21.9852 97.5033 21.9299 97.5495 21.8838C97.8179 21.6164 98.0492 21.3398 98.2621 21.0448C98.7525 20.3627 99.0394 19.5606 99.1597 18.7309C99.243 18.2147 99.3726 17.6984 99.5669 17.2098Z" fill="#4D849E"/>
<path d="M89.0734 13.1722C90.0728 13.4949 91.0167 14.048 91.8126 14.8408C92.5066 15.5322 93.0248 16.3435 93.358 17.2101C93.5523 17.7079 93.6819 18.2149 93.7559 18.7312C93.8762 19.5609 94.1631 20.3629 94.6536 21.0451C94.8664 21.3401 95.107 21.6167 95.3661 21.884C95.4216 21.9393 95.4679 21.9854 95.5234 22.0315C94.8016 22.2528 94.0428 22.3449 93.2932 22.3173C92.9878 22.3081 92.6824 22.2804 92.3771 22.2251C91.0167 21.9946 89.7119 21.3585 88.6569 20.3168C86.6303 18.2979 86.1306 15.3294 87.167 12.8403C87.8241 12.8588 88.4626 12.9694 89.0734 13.1722Z" fill="#4D849E"/>
<path d="M103.853 10.1301C102.854 9.80742 101.91 9.25429 101.114 8.46147C100.42 7.77006 99.9015 6.9588 99.5684 6.09223C99.3741 5.59441 99.2445 5.08738 99.1705 4.57112C99.0502 3.74143 98.7633 2.93939 98.2728 2.25719C98.06 1.96219 97.8194 1.68563 97.5603 1.41828C97.5047 1.36297 97.4585 1.31687 97.4029 1.27078C98.1248 1.04953 98.8836 0.95734 99.6332 0.984997C99.9386 0.994216 100.244 1.02187 100.549 1.07718C101.91 1.30766 103.214 1.94376 104.269 2.98548C106.296 5.00441 106.796 7.97287 105.759 10.462C105.112 10.4435 104.473 10.3329 103.853 10.1301Z" fill="#4D849E"/>
<path d="M93.3673 6.10193C93.0341 6.9685 92.5159 7.77054 91.8219 8.47117C91.026 9.26399 90.0821 9.81712 89.0827 10.1398C88.4626 10.3426 87.8241 10.4532 87.1856 10.4717C86.1491 7.98258 86.6488 5.01411 88.6755 2.99519C89.7212 1.95346 91.026 1.31736 92.3956 1.08689C92.701 1.03158 93.0064 1.00392 93.3118 0.994702C94.0613 0.967046 94.8202 1.06845 95.542 1.28049C95.4865 1.32658 95.4309 1.38189 95.3847 1.42799C95.1163 1.69533 94.885 1.9719 94.6721 2.2669C94.1816 2.94909 93.8948 3.75113 93.7745 4.58083C93.6912 5.09708 93.5524 5.60412 93.3673 6.10193Z" fill="#4D849E"/>
<path d="M56.6109 67.9876C56.944 67.1211 57.4622 66.319 58.1563 65.6184C58.9521 64.8256 59.896 64.2725 60.8955 63.9498C61.5155 63.747 62.154 63.6364 62.7926 63.6179C63.829 66.107 63.3293 69.0755 61.3027 71.0944C60.257 72.1361 58.9521 72.7722 57.5825 73.0027C57.2771 73.058 56.9718 73.0857 56.6664 73.0949C55.9168 73.1225 55.158 73.0211 54.4361 72.8091C54.4917 72.763 54.5472 72.7077 54.5935 72.6616C54.8618 72.3942 55.0932 72.1177 55.306 71.8227C55.7965 71.1405 56.0834 70.3384 56.2037 69.5088C56.287 68.9925 56.4165 68.4762 56.6109 67.9876Z" fill="#4D849E"/>
<path d="M46.1163 63.9498C47.1158 64.2725 48.0597 64.8256 48.8555 65.6184C49.5496 66.3098 50.0678 67.1211 50.401 67.9876C50.5953 68.4855 50.7248 68.9925 50.7989 69.5088C50.9192 70.3384 51.2061 71.1405 51.6965 71.8227C51.9094 72.1177 52.15 72.3942 52.4091 72.6616C52.4646 72.7169 52.5109 72.763 52.5664 72.8091C51.8446 73.0303 51.0858 73.1225 50.3362 73.0949C50.0308 73.0857 49.7254 73.058 49.42 73.0027C48.0597 72.7722 46.7549 72.1361 45.6999 71.0944C43.6733 69.0755 43.1735 66.107 44.21 63.6179C44.867 63.6364 45.5056 63.747 46.1163 63.9498Z" fill="#4D849E"/>
<path d="M56.6109 42.599C56.944 41.7324 57.4622 40.9304 58.1563 40.2297C58.9521 39.4369 59.896 38.8838 60.8955 38.5611C61.5155 38.3583 62.154 38.2477 62.7926 38.2292C63.829 40.7183 63.3293 43.6868 61.3027 45.7057C60.257 46.7474 58.9521 47.3835 57.5825 47.614C57.2771 47.6693 56.9718 47.697 56.6664 47.7062C55.9168 47.7339 55.158 47.6325 54.4361 47.4204C54.4917 47.3743 54.5472 47.319 54.5935 47.2729C54.8618 47.0056 55.0932 46.729 55.306 46.434C55.7965 45.7518 56.0834 44.9498 56.2037 44.1201C56.287 43.6038 56.4165 43.0876 56.6109 42.599Z" fill="#4D849E"/>
<path d="M56.6109 31.619C56.944 32.4856 57.4622 33.2877 58.1563 33.9883C58.9521 34.7811 59.896 35.3342 60.8955 35.6569C61.5155 35.8597 62.154 35.9703 62.7926 35.9888C63.829 33.4997 63.3293 30.5312 61.3027 28.5123C60.257 27.4706 58.9521 26.8345 57.5825 26.604C57.2771 26.5487 56.9718 26.521 56.6664 26.5118C55.9168 26.4842 55.158 26.5856 54.4361 26.7976C54.4917 26.8437 54.5472 26.899 54.5935 26.9451C54.8618 27.2124 55.0932 27.489 55.306 27.784C55.7965 28.4662 56.0834 29.2682 56.2037 30.0979C56.287 30.6142 56.4165 31.1304 56.6109 31.619Z" fill="#4D849E"/>
<path d="M60.895 60.9077C59.8956 60.585 58.9517 60.0319 58.1558 59.2391C57.4618 58.5476 56.9435 57.7364 56.6104 56.8698C56.4161 56.372 56.2865 55.865 56.2125 55.3487C56.0922 54.519 55.8053 53.717 55.3148 53.0348C55.102 52.7398 54.8614 52.4632 54.6023 52.1959C54.5467 52.1406 54.5005 52.0945 54.4449 52.0484C55.1668 51.8271 55.9256 51.7349 56.6752 51.7626C56.9806 51.7718 57.2859 51.7995 57.5913 51.8548C58.9517 52.0852 60.2565 52.7213 61.3114 53.7631C63.3381 55.782 63.8378 58.7505 62.8013 61.2395C62.1536 61.2211 61.515 61.1105 60.895 60.9077Z" fill="#4D849E"/>
<path d="M50.4005 56.8695C50.0673 57.7361 49.5491 58.5381 48.8551 59.2388C48.0592 60.0316 47.1153 60.5847 46.1159 60.9074C45.4958 61.1102 44.8573 61.2208 44.2188 61.2392C43.1823 58.7502 43.682 55.7817 45.7087 53.7628C46.7544 52.721 48.0592 52.0849 49.4288 51.8545C49.7342 51.7992 50.0396 51.7715 50.345 51.7623C51.0945 51.7346 51.8534 51.836 52.5752 52.0481C52.5197 52.0942 52.4641 52.1495 52.4179 52.1956C52.1495 52.4629 51.9182 52.7395 51.7053 53.0345C51.2148 53.7167 50.928 54.5187 50.8077 55.3484C50.7244 55.8647 50.5948 56.3809 50.4005 56.8695Z" fill="#4D849E"/>
<path d="M46.1163 38.5611C47.1158 38.8838 48.0597 39.4369 48.8555 40.2297C49.5496 40.9211 50.0678 41.7324 50.401 42.599C50.5953 43.0968 50.7248 43.6038 50.7989 44.1201C50.9192 44.9498 51.2061 45.7518 51.6965 46.434C51.9094 46.729 52.15 47.0056 52.4091 47.2729C52.4646 47.3282 52.5109 47.3743 52.5664 47.4204C51.8446 47.6417 51.0858 47.7339 50.3362 47.7062C50.0308 47.697 49.7254 47.6693 49.42 47.614C48.0597 47.3835 46.7549 46.7474 45.6999 45.7057C43.6733 43.6868 43.1735 40.7183 44.21 38.2292C44.867 38.2477 45.5056 38.3583 46.1163 38.5611Z" fill="#4D849E"/>
<path d="M46.1163 35.6569C47.1158 35.3342 48.0597 34.7811 48.8555 33.9883C49.5496 33.2969 50.0678 32.4856 50.401 31.619C50.5953 31.1212 50.7248 30.6142 50.7989 30.0979C50.9192 29.2682 51.2061 28.4662 51.6965 27.784C51.9094 27.489 52.15 27.2124 52.4091 26.9451C52.4646 26.8898 52.5109 26.8437 52.5664 26.7976C51.8446 26.5763 51.0858 26.4842 50.3362 26.5118C50.0308 26.521 49.7254 26.5487 49.42 26.604C48.0597 26.8345 46.7549 27.4706 45.6999 28.5123C43.6733 30.5312 43.1735 33.4997 44.21 35.9888C44.867 35.9703 45.5056 35.8597 46.1163 35.6569Z" fill="#4D849E"/>
<path d="M56.6109 17.2098C56.944 16.3432 57.4622 15.5412 58.1563 14.8406C58.9521 14.0478 59.896 13.4946 60.8955 13.172C61.5155 12.9692 62.154 12.8585 62.7926 12.8401C63.829 15.3292 63.3293 18.2976 61.3027 20.3166C60.257 21.3583 58.9521 21.9944 57.5825 22.2249C57.2771 22.2802 56.9718 22.3078 56.6664 22.317C55.9168 22.3447 55.158 22.2433 54.4361 22.0313C54.4917 21.9852 54.5472 21.9299 54.5935 21.8838C54.8618 21.6164 55.0932 21.3398 55.306 21.0448C55.7965 20.3627 56.0834 19.5606 56.2037 18.7309C56.287 18.2147 56.4165 17.6984 56.6109 17.2098Z" fill="#4D849E"/>
<path d="M46.1163 13.1722C47.1158 13.4949 48.0597 14.048 48.8555 14.8408C49.5496 15.5322 50.0678 16.3435 50.401 17.2101C50.5953 17.7079 50.7248 18.2149 50.7989 18.7312C50.9192 19.5609 51.2061 20.3629 51.6965 21.0451C51.9094 21.3401 52.15 21.6167 52.4091 21.884C52.4646 21.9393 52.5109 21.9854 52.5664 22.0315C51.8446 22.2528 51.0858 22.3449 50.3362 22.3173C50.0308 22.3081 49.7254 22.2804 49.42 22.2251C48.0597 21.9946 46.7549 21.3585 45.6999 20.3168C43.6733 18.2979 43.1735 15.3294 44.21 12.8403C44.867 12.8588 45.5056 12.9694 46.1163 13.1722Z" fill="#4D849E"/>
<path d="M60.895 10.1298C59.8956 9.80717 58.9517 9.25405 58.1558 8.46123C57.4618 7.76981 56.9435 6.95855 56.6104 6.09198C56.4161 5.59417 56.2865 5.08713 56.2125 4.57088C56.0922 3.74118 55.8053 2.93914 55.3148 2.25695C55.102 1.96195 54.8614 1.68538 54.6023 1.41804C54.5467 1.36272 54.5005 1.31663 54.4449 1.27054C55.1668 1.04928 55.9256 0.957096 56.6752 0.984753C56.9806 0.993972 57.2859 1.02163 57.5913 1.07694C58.9517 1.30741 60.2565 1.94351 61.3114 2.98524C63.3381 5.00416 63.8378 7.97263 62.8013 10.4617C62.1536 10.4433 61.515 10.3326 60.895 10.1298Z" fill="#4D849E"/>
<path d="M50.4005 6.10218C50.0673 6.96875 49.5491 7.77079 48.8551 8.47142C48.0592 9.26424 47.1153 9.81737 46.1159 10.14C45.4958 10.3428 44.8573 10.4535 44.2188 10.4719C43.1823 7.98282 43.682 5.01436 45.7087 2.99543C46.7544 1.95371 48.0592 1.31761 49.4288 1.08713C49.7342 1.03182 50.0396 1.00416 50.345 0.994946C51.0945 0.96729 51.8534 1.0687 52.5752 1.28073C52.5197 1.32682 52.4641 1.38214 52.4179 1.42823C52.1495 1.69558 51.9182 1.97214 51.7053 2.26714C51.2148 2.94934 50.928 3.75138 50.8077 4.58107C50.7244 5.09733 50.5948 5.60436 50.4005 6.10218Z" fill="#4D849E"/>
<path d="M35.1314 67.9876C35.4645 67.1211 35.9827 66.319 36.6768 65.6184C37.4726 64.8256 38.4166 64.2725 39.416 63.9498C40.036 63.747 40.6745 63.6364 41.3131 63.6179C42.3495 66.107 41.8498 69.0755 39.8232 71.0944C38.7775 72.1361 37.4726 72.7722 36.103 73.0027C35.7977 73.058 35.4923 73.0857 35.1869 73.0949C34.4373 73.1225 33.6785 73.0211 32.9567 72.8091C33.0122 72.763 33.0677 72.7077 33.114 72.6616C33.3823 72.3942 33.6137 72.1177 33.8265 71.8227C34.317 71.1405 34.6039 70.3384 34.7242 69.5088C34.8075 68.9925 34.937 68.4762 35.1314 67.9876Z" fill="#4D849E"/>
<path d="M24.6378 63.9498C25.6373 64.2725 26.5812 64.8256 27.377 65.6184C28.0711 66.3098 28.5893 67.1211 28.9224 67.9876C29.1168 68.4855 29.2463 68.9925 29.3204 69.5088C29.4407 70.3384 29.7275 71.1405 30.218 71.8227C30.4309 72.1177 30.6715 72.3942 30.9306 72.6616C30.9861 72.7169 31.0324 72.763 31.0879 72.8091C30.3661 73.0303 29.6072 73.1225 28.8577 73.0949C28.5523 73.0857 28.2469 73.058 27.9415 73.0027C26.5812 72.7722 25.2763 72.1361 24.2214 71.0944C22.1947 69.0755 21.695 66.107 22.7315 63.6179C23.3885 63.6364 24.027 63.747 24.6378 63.9498Z" fill="#4D849E"/>
<path d="M35.1314 42.599C35.4645 41.7324 35.9827 40.9304 36.6768 40.2297C37.4726 39.4369 38.4166 38.8838 39.416 38.5611C40.036 38.3583 40.6745 38.2477 41.3131 38.2292C42.3495 40.7183 41.8498 43.6868 39.8232 45.7057C38.7775 46.7474 37.4726 47.3835 36.103 47.614C35.7977 47.6693 35.4923 47.697 35.1869 47.7062C34.4373 47.7339 33.6785 47.6325 32.9567 47.4204C33.0122 47.3743 33.0677 47.319 33.114 47.2729C33.3823 47.0056 33.6137 46.729 33.8265 46.434C34.317 45.7518 34.6039 44.9498 34.7242 44.1201C34.8075 43.6038 34.937 43.0876 35.1314 42.599Z" fill="#4D849E"/>
<path d="M35.1314 31.619C35.4645 32.4856 35.9827 33.2877 36.6768 33.9883C37.4726 34.7811 38.4166 35.3342 39.416 35.6569C40.036 35.8597 40.6745 35.9703 41.3131 35.9888C42.3495 33.4997 41.8498 30.5312 39.8232 28.5123C38.7775 27.4706 37.4726 26.8345 36.103 26.604C35.7977 26.5487 35.4923 26.521 35.1869 26.5118C34.4373 26.4842 33.6785 26.5856 32.9567 26.7976C33.0122 26.8437 33.0677 26.899 33.114 26.9451C33.3823 27.2124 33.6137 27.489 33.8265 27.784C34.317 28.4662 34.6039 29.2682 34.7242 30.0979C34.8075 30.6142 34.937 31.1304 35.1314 31.619Z" fill="#4D849E"/>
<path d="M39.4165 60.9077C38.4171 60.585 37.4731 60.0319 36.6773 59.2391C35.9832 58.5476 35.465 57.7364 35.1319 56.8698C34.9375 56.372 34.808 55.865 34.7339 55.3487C34.6136 54.519 34.3268 53.717 33.8363 53.0348C33.6235 52.7398 33.3829 52.4632 33.1237 52.1959C33.0682 52.1406 33.0219 52.0945 32.9664 52.0484C33.6882 51.8271 34.4471 51.7349 35.1966 51.7626C35.502 51.7718 35.8074 51.7995 36.1128 51.8548C37.4731 52.0852 38.778 52.7213 39.8329 53.7631C41.8596 55.782 42.3593 58.7505 41.3228 61.2395C40.675 61.2211 40.0365 61.1105 39.4165 60.9077Z" fill="#4D849E"/>
<path d="M28.923 56.8695C28.5898 57.7361 28.0716 58.5381 27.3775 59.2388C26.5817 60.0316 25.6378 60.5847 24.6383 60.9074C24.0183 61.1102 23.3798 61.2208 22.7412 61.2392C21.7048 58.7502 22.2045 55.7817 24.2312 53.7628C25.2769 52.721 26.5817 52.0849 27.9513 51.8545C28.2567 51.7992 28.562 51.7715 28.8674 51.7623C29.617 51.7346 30.3758 51.836 31.0977 52.0481C31.0421 52.0942 30.9866 52.1495 30.9403 52.1956C30.672 52.4629 30.4406 52.7395 30.2278 53.0345C29.7373 53.7167 29.4504 54.5187 29.3301 55.3484C29.2468 55.8647 29.1173 56.3809 28.923 56.8695Z" fill="#4D849E"/>
<path d="M24.6378 38.5611C25.6373 38.8838 26.5812 39.4369 27.377 40.2297C28.0711 40.9211 28.5893 41.7324 28.9224 42.599C29.1168 43.0968 29.2463 43.6038 29.3204 44.1201C29.4407 44.9498 29.7275 45.7518 30.218 46.434C30.4309 46.729 30.6715 47.0056 30.9306 47.2729C30.9861 47.3282 31.0324 47.3743 31.0879 47.4204C30.3661 47.6417 29.6072 47.7339 28.8577 47.7062C28.5523 47.697 28.2469 47.6693 27.9415 47.614C26.5812 47.3835 25.2763 46.7474 24.2214 45.7057C22.1947 43.6868 21.695 40.7183 22.7315 38.2292C23.3885 38.2477 24.027 38.3583 24.6378 38.5611Z" fill="#4D849E"/>
<path d="M24.6378 35.6569C25.6373 35.3342 26.5812 34.7811 27.377 33.9883C28.0711 33.2969 28.5893 32.4856 28.9224 31.619C29.1168 31.1212 29.2463 30.6142 29.3204 30.0979C29.4407 29.2682 29.7275 28.4662 30.218 27.784C30.4309 27.489 30.6715 27.2124 30.9306 26.9451C30.9861 26.8898 31.0324 26.8437 31.0879 26.7976C30.3661 26.5763 29.6072 26.4842 28.8577 26.5118C28.5523 26.521 28.2469 26.5487 27.9415 26.604C26.5812 26.8345 25.2763 27.4706 24.2214 28.5123C22.1947 30.5312 21.695 33.4997 22.7315 35.9888C23.3885 35.9703 24.027 35.8597 24.6378 35.6569Z" fill="#4D849E"/>
<path d="M35.1314 17.2098C35.4645 16.3432 35.9827 15.5412 36.6768 14.8406C37.4726 14.0478 38.4166 13.4946 39.416 13.172C40.036 12.9692 40.6745 12.8585 41.3131 12.8401C42.3495 15.3292 41.8498 18.2976 39.8232 20.3166C38.7775 21.3583 37.4726 21.9944 36.103 22.2249C35.7977 22.2802 35.4923 22.3078 35.1869 22.317C34.4373 22.3447 33.6785 22.2433 32.9567 22.0313C33.0122 21.9852 33.0677 21.9299 33.114 21.8838C33.3823 21.6164 33.6137 21.3398 33.8265 21.0448C34.317 20.3627 34.6039 19.5606 34.7242 18.7309C34.8075 18.2147 34.937 17.6984 35.1314 17.2098Z" fill="#4D849E"/>
<path d="M24.6378 13.1722C25.6373 13.4949 26.5812 14.048 27.377 14.8408C28.0711 15.5322 28.5893 16.3435 28.9224 17.2101C29.1168 17.7079 29.2463 18.2149 29.3204 18.7312C29.4407 19.5609 29.7275 20.3629 30.218 21.0451C30.4309 21.3401 30.6715 21.6167 30.9306 21.884C30.9861 21.9393 31.0324 21.9854 31.0879 22.0315C30.3661 22.2528 29.6072 22.3449 28.8577 22.3173C28.5523 22.3081 28.2469 22.2804 27.9415 22.2251C26.5812 21.9946 25.2763 21.3585 24.2214 20.3168C22.1947 18.2979 21.695 15.3294 22.7315 12.8403C23.3885 12.8588 24.027 12.9694 24.6378 13.1722Z" fill="#4D849E"/>
<path d="M39.4165 10.1298C38.4171 9.80717 37.4731 9.25405 36.6773 8.46123C35.9832 7.76981 35.465 6.95855 35.1319 6.09198C34.9375 5.59417 34.808 5.08713 34.7339 4.57088C34.6136 3.74118 34.3268 2.93914 33.8363 2.25695C33.6235 1.96195 33.3829 1.68538 33.1237 1.41804C33.0682 1.36272 33.0219 1.31663 32.9664 1.27054C33.6882 1.04928 34.4471 0.957096 35.1966 0.984753C35.502 0.993972 35.8074 1.02163 36.1128 1.07694C37.4731 1.30741 38.778 1.94351 39.8329 2.98524C41.8596 5.00416 42.3593 7.97263 41.3228 10.4617C40.675 10.4433 40.0365 10.3326 39.4165 10.1298Z" fill="#4D849E"/>
<path d="M28.923 6.10218C28.5898 6.96875 28.0716 7.77079 27.3775 8.47142C26.5817 9.26424 25.6378 9.81737 24.6383 10.14C24.0183 10.3428 23.3798 10.4535 22.7412 10.4719C21.7048 7.98282 22.2045 5.01436 24.2312 2.99543C25.2769 1.95371 26.5817 1.31761 27.9513 1.08713C28.2567 1.03182 28.562 1.00416 28.8674 0.994946C29.617 0.96729 30.3758 1.0687 31.0977 1.28073C31.0421 1.32682 30.9866 1.38214 30.9403 1.42823C30.672 1.69558 30.4406 1.97214 30.2278 2.26714C29.7373 2.94934 29.4504 3.75138 29.3301 4.58107C29.2468 5.09733 29.1173 5.60436 28.923 6.10218Z" fill="#4D849E"/>
<path d="M13.6538 67.9874C13.987 67.1208 14.5052 66.3188 15.1993 65.6182C15.9951 64.8253 16.939 64.2722 17.9384 63.9496C18.5585 63.7467 19.197 63.6361 19.8355 63.6177C20.872 66.1068 20.3723 69.0752 18.3456 71.0941C17.2999 72.1359 15.9951 72.772 14.6255 73.0024C14.3201 73.0578 14.0147 73.0854 13.7093 73.0946C12.9598 73.1223 12.2009 73.0209 11.4791 72.8088C11.5346 72.7628 11.5902 72.7074 11.6364 72.6613C11.9048 72.394 12.1362 72.1174 12.349 71.8224C12.8395 71.1402 13.1263 70.3382 13.2466 69.5085C13.3299 68.9923 13.4595 68.476 13.6538 67.9874Z" fill="#4D849E"/>
<path d="M3.1593 63.9496C4.15874 64.2722 5.10266 64.8253 5.89851 65.6182C6.59256 66.3096 7.11078 67.1208 7.44393 67.9874C7.63827 68.4852 7.76783 68.9923 7.84186 69.5085C7.96216 70.3382 8.24903 71.1402 8.73949 71.8224C8.95233 72.1174 9.19294 72.394 9.45206 72.6613C9.50758 72.7167 9.55385 72.7627 9.60937 72.8088C8.88756 73.0301 8.12874 73.1223 7.37916 73.0946C7.07378 73.0854 6.76839 73.0578 6.463 73.0024C5.10266 72.772 3.79783 72.1359 2.74287 71.0941C0.716233 69.0752 0.216514 66.1068 1.25297 63.6177C1.91001 63.6361 2.53928 63.7467 3.1593 63.9496Z" fill="#4D849E"/>
<path d="M13.6538 42.5987C13.987 41.7322 14.5052 40.9301 15.1993 40.2295C15.9951 39.4367 16.939 38.8835 17.9384 38.5609C18.5585 38.3581 19.197 38.2474 19.8355 38.229C20.872 40.7181 20.3723 43.6865 18.3456 45.7055C17.2999 46.7472 15.9951 47.3833 14.6255 47.6138C14.3201 47.6691 14.0147 47.6967 13.7093 47.706C12.9598 47.7336 12.2009 47.6322 11.4791 47.4202C11.5346 47.3741 11.5902 47.3188 11.6364 47.2727C11.9048 47.0053 12.1362 46.7288 12.349 46.4338C12.8395 45.7516 13.1263 44.9495 13.2466 44.1198C13.3299 43.6036 13.4595 43.0873 13.6538 42.5987Z" fill="#4D849E"/>
<path d="M13.6538 31.6186C13.987 32.4851 14.5052 33.2872 15.1993 33.9878C15.9951 34.7806 16.939 35.3337 17.9384 35.6564C18.5585 35.8592 19.197 35.9698 19.8355 35.9883C20.872 33.4992 20.3723 30.5307 18.3456 28.5118C17.2999 27.4701 15.9951 26.834 14.6255 26.6035C14.3201 26.5482 14.0147 26.5205 13.7093 26.5113C12.9598 26.4837 12.2009 26.5851 11.4791 26.7971C11.5346 26.8432 11.5902 26.8985 11.6364 26.9446C11.9048 27.212 12.1362 27.4885 12.349 27.7835C12.8395 28.4657 13.1263 29.2678 13.2466 30.0974C13.3299 30.6137 13.4595 31.13 13.6538 31.6186Z" fill="#4D849E"/>
<path d="M17.938 60.9074C16.9385 60.5848 15.9946 60.0316 15.1988 59.2388C14.5047 58.5474 13.9865 57.7361 13.6534 56.8696C13.459 56.3718 13.3295 55.8647 13.2554 55.3485C13.1351 54.5188 12.8483 53.7167 12.3578 53.0345C12.1449 52.7395 11.9043 52.463 11.6452 52.1956C11.5897 52.1403 11.5434 52.0942 11.4879 52.0481C12.2097 51.8269 12.9686 51.7347 13.7181 51.7623C14.0235 51.7716 14.3289 51.7992 14.6343 51.8545C15.9946 52.085 17.2995 52.7211 18.3544 53.7628C20.3811 55.7817 20.8808 58.7502 19.8443 61.2393C19.1965 61.2209 18.558 61.1102 17.938 60.9074Z" fill="#4D849E"/>
<path d="M7.44346 56.8693C7.11031 57.7358 6.59209 58.5379 5.89803 59.2385C5.10218 60.0313 4.15826 60.5845 3.15883 60.9071C2.5388 61.1099 1.90029 61.2206 1.26176 61.239C0.225302 58.7499 0.725022 55.7814 2.75166 53.7625C3.79737 52.7208 5.10218 52.0847 6.47178 51.8542C6.77716 51.7989 7.08255 51.7713 7.38793 51.762C8.13751 51.7344 8.89635 51.8358 9.61816 52.0478C9.56264 52.0939 9.50712 52.1492 9.46085 52.1953C9.19248 52.4627 8.96112 52.7392 8.74828 53.0342C8.25782 53.7164 7.97094 54.5185 7.85064 55.3482C7.76735 55.8644 7.63779 56.3807 7.44346 56.8693Z" fill="#4D849E"/>
<path d="M3.1593 38.5609C4.15874 38.8835 5.10266 39.4367 5.89851 40.2295C6.59256 40.9209 7.11078 41.7322 7.44393 42.5987C7.63827 43.0965 7.76783 43.6036 7.84186 44.1198C7.96216 44.9495 8.24903 45.7516 8.73949 46.4338C8.95233 46.7288 9.19294 47.0053 9.45206 47.2727C9.50758 47.328 9.55385 47.3741 9.60937 47.4202C8.88756 47.6414 8.12874 47.7336 7.37916 47.706C7.07378 47.6967 6.76839 47.6691 6.463 47.6138C5.10266 47.3833 3.79783 46.7472 2.74287 45.7055C0.716233 43.6865 0.216514 40.7181 1.25297 38.229C1.91001 38.2474 2.53928 38.3581 3.1593 38.5609Z" fill="#4D849E"/>
<path d="M13.6538 17.2098C13.987 16.3432 14.5052 15.5412 15.1993 14.8406C15.9951 14.0478 16.939 13.4946 17.9384 13.172C18.5585 12.9692 19.197 12.8585 19.8355 12.8401C20.872 15.3292 20.3723 18.2976 18.3456 20.3166C17.2999 21.3583 15.9951 21.9944 14.6255 22.2249C14.3201 22.2802 14.0147 22.3078 13.7093 22.317C12.9598 22.3447 12.2009 22.2433 11.4791 22.0313C11.5346 21.9852 11.5902 21.9299 11.6364 21.8838C11.9048 21.6164 12.1362 21.3398 12.349 21.0448C12.8395 20.3627 13.1263 19.5606 13.2466 18.7309C13.3299 18.2147 13.4595 17.6984 13.6538 17.2098Z" fill="#4D849E"/>
<path d="M7.44346 31.4803C7.11031 32.3469 6.59209 33.149 5.89803 33.8496C5.10218 34.6424 4.15826 35.1955 3.15883 35.5182C2.5388 35.721 1.90029 35.8316 1.26176 35.8501C0.225302 33.361 0.725022 30.3925 2.75166 28.3736C3.79737 27.3319 5.10218 26.6958 6.47178 26.4653C6.77716 26.41 7.08255 26.3823 7.38793 26.3731C8.13751 26.3455 8.89635 26.4469 9.61816 26.6589C9.56264 26.705 9.50712 26.7603 9.46085 26.8064C9.19248 27.0737 8.96112 27.3503 8.74828 27.6453C8.25782 28.3275 7.97094 29.1295 7.85064 29.9592C7.76735 30.4755 7.63779 30.9918 7.44346 31.4803Z" fill="#4D849E"/>
<path d="M3.1593 13.172C4.15874 13.4946 5.10266 14.0478 5.89851 14.8406C6.59256 15.532 7.11078 16.3432 7.44393 17.2098C7.63827 17.7076 7.76783 18.2147 7.84186 18.7309C7.96216 19.5606 8.24903 20.3627 8.73949 21.0448C8.95233 21.3398 9.19294 21.6164 9.45206 21.8838C9.50758 21.9391 9.55385 21.9852 9.60937 22.0313C8.88756 22.2525 8.12874 22.3447 7.37916 22.317C7.07378 22.3078 6.76839 22.2802 6.463 22.2249C5.10266 21.9944 3.79783 21.3583 2.74287 20.3166C0.716233 18.2976 0.216514 15.3292 1.25297 12.8401C1.91001 12.8585 2.53928 12.9692 3.1593 13.172Z" fill="#4D849E"/>
<path d="M17.939 10.1298C16.9395 9.80717 15.9956 9.25405 15.1998 8.46123C14.5057 7.76981 13.9875 6.95855 13.6543 6.09198C13.46 5.59417 13.3304 5.08713 13.2564 4.57088C13.1361 3.74118 12.8492 2.93914 12.3588 2.25695C12.1459 1.96195 11.9053 1.68538 11.6462 1.41804C11.5907 1.36272 11.5444 1.31663 11.4889 1.27054C12.2107 1.04928 12.9695 0.957096 13.7191 0.984753C14.0245 0.993972 14.3299 1.02163 14.6353 1.07694C15.9956 1.30741 17.3004 1.94351 18.3554 2.98524C20.382 5.00416 20.8817 7.97263 19.8453 10.4617C19.1975 10.4433 18.559 10.3326 17.939 10.1298Z" fill="#4D849E"/>
<path d="M7.44346 6.10169C7.11031 6.96826 6.59209 7.7703 5.89803 8.47093C5.10218 9.26375 4.15826 9.81688 3.15883 10.1395C2.5388 10.3424 1.90029 10.453 1.26176 10.4714C0.225302 7.98233 0.725022 5.01387 2.75166 2.99494C3.79737 1.95322 5.10218 1.31712 6.47178 1.08665C6.77716 1.03133 7.08255 1.00368 7.38793 0.994458C8.13751 0.966801 8.89635 1.06821 9.61816 1.28024C9.56264 1.32634 9.50712 1.38165 9.46085 1.42774C9.19248 1.69509 8.96112 1.97165 8.74828 2.26666C8.25782 2.94885 7.97094 3.75089 7.85064 4.58058C7.76735 5.09684 7.63779 5.60387 7.44346 6.10169Z" fill="#4D849E"/>
<path d="M162.154 67.9874C162.487 67.1208 163.005 66.3188 163.699 65.6182C164.495 64.8253 165.439 64.2722 166.438 63.9496C167.058 63.7467 167.697 63.6361 168.336 63.6177C169.372 66.1068 168.872 69.0752 166.846 71.0941C165.8 72.1359 164.495 72.772 163.125 73.0024C162.82 73.0578 162.515 73.0854 162.209 73.0946C161.46 73.1223 160.701 73.0209 159.979 72.8088C160.035 72.7628 160.09 72.7074 160.136 72.6613C160.405 72.394 160.636 72.1174 160.849 71.8224C161.339 71.1402 161.626 70.3382 161.747 69.5085C161.83 68.9923 161.959 68.476 162.154 67.9874Z" fill="#4D849E"/>
<path d="M151.659 63.9496C152.659 64.2722 153.603 64.8253 154.399 65.6182C155.093 66.3096 155.611 67.1208 155.944 67.9874C156.138 68.4852 156.268 68.9923 156.342 69.5085C156.462 70.3382 156.749 71.1402 157.239 71.8224C157.452 72.1174 157.693 72.394 157.952 72.6613C158.008 72.7167 158.054 72.7627 158.109 72.8088C157.388 73.0301 156.629 73.1223 155.879 73.0946C155.574 73.0854 155.268 73.0578 154.963 73.0024C153.603 72.772 152.298 72.1359 151.243 71.0941C149.216 69.0752 148.717 66.1068 149.753 63.6177C150.41 63.6361 151.039 63.7467 151.659 63.9496Z" fill="#4D849E"/>
<path d="M162.154 42.5987C162.487 41.7322 163.005 40.9301 163.699 40.2295C164.495 39.4367 165.439 38.8835 166.438 38.5609C167.058 38.3581 167.697 38.2474 168.336 38.229C169.372 40.7181 168.872 43.6865 166.846 45.7055C165.8 46.7472 164.495 47.3833 163.125 47.6138C162.82 47.6691 162.515 47.6967 162.209 47.706C161.46 47.7336 160.701 47.6322 159.979 47.4202C160.035 47.3741 160.09 47.3188 160.136 47.2727C160.405 47.0053 160.636 46.7288 160.849 46.4338C161.339 45.7516 161.626 44.9495 161.747 44.1198C161.83 43.6036 161.959 43.0873 162.154 42.5987Z" fill="#4D849E"/>
<path d="M162.154 31.6186C162.487 32.4851 163.005 33.2872 163.699 33.9878C164.495 34.7806 165.439 35.3337 166.438 35.6564C167.058 35.8592 167.697 35.9698 168.336 35.9883C169.372 33.4992 168.872 30.5307 166.846 28.5118C165.8 27.4701 164.495 26.834 163.125 26.6035C162.82 26.5482 162.515 26.5205 162.209 26.5113C161.46 26.4837 160.701 26.5851 159.979 26.7971C160.035 26.8432 160.09 26.8985 160.136 26.9446C160.405 27.212 160.636 27.4885 160.849 27.7835C161.339 28.4657 161.626 29.2678 161.747 30.0974C161.83 30.6137 161.959 31.13 162.154 31.6186Z" fill="#4D849E"/>
<path d="M166.438 60.9074C165.439 60.5848 164.495 60.0316 163.699 59.2388C163.005 58.5474 162.487 57.7361 162.153 56.8696C161.959 56.3718 161.829 55.8647 161.755 55.3485C161.635 54.5188 161.348 53.7167 160.858 53.0345C160.645 52.7395 160.404 52.463 160.145 52.1956C160.09 52.1403 160.043 52.0942 159.988 52.0481C160.71 51.8269 161.469 51.7347 162.218 51.7623C162.524 51.7716 162.829 51.7992 163.134 51.8545C164.495 52.085 165.799 52.7211 166.854 53.7628C168.881 55.7817 169.381 58.7502 168.344 61.2393C167.697 61.2209 167.058 61.1102 166.438 60.9074Z" fill="#4D849E"/>
<path d="M155.943 56.8693C155.61 57.7358 155.092 58.5379 154.398 59.2385C153.602 60.0313 152.658 60.5845 151.659 60.9071C151.039 61.1099 150.4 61.2206 149.762 61.239C148.725 58.7499 149.225 55.7814 151.252 53.7625C152.297 52.7208 153.602 52.0847 154.972 51.8542C155.277 51.7989 155.583 51.7713 155.888 51.762C156.638 51.7344 157.396 51.8358 158.118 52.0478C158.063 52.0939 158.007 52.1492 157.961 52.1953C157.692 52.4627 157.461 52.7392 157.248 53.0342C156.758 53.7164 156.471 54.5185 156.351 55.3482C156.267 55.8644 156.138 56.3807 155.943 56.8693Z" fill="#4D849E"/>
<path d="M151.659 38.5609C152.659 38.8835 153.603 39.4367 154.399 40.2295C155.093 40.9209 155.611 41.7322 155.944 42.5987C156.138 43.0965 156.268 43.6036 156.342 44.1198C156.462 44.9495 156.749 45.7516 157.239 46.4338C157.452 46.7288 157.693 47.0053 157.952 47.2727C158.008 47.328 158.054 47.3741 158.109 47.4202C157.388 47.6414 156.629 47.7336 155.879 47.706C155.574 47.6967 155.268 47.6691 154.963 47.6138C153.603 47.3833 152.298 46.7472 151.243 45.7055C149.216 43.6865 148.717 40.7181 149.753 38.229C150.41 38.2474 151.039 38.3581 151.659 38.5609Z" fill="#4D849E"/>
<path d="M162.154 17.2098C162.487 16.3432 163.005 15.5412 163.699 14.8406C164.495 14.0478 165.439 13.4946 166.438 13.172C167.058 12.9692 167.697 12.8585 168.336 12.8401C169.372 15.3292 168.872 18.2976 166.846 20.3166C165.8 21.3583 164.495 21.9944 163.125 22.2249C162.82 22.2802 162.515 22.3078 162.209 22.317C161.46 22.3447 160.701 22.2433 159.979 22.0313C160.035 21.9852 160.09 21.9299 160.136 21.8838C160.405 21.6164 160.636 21.3398 160.849 21.0448C161.339 20.3627 161.626 19.5606 161.747 18.7309C161.83 18.2147 161.959 17.6984 162.154 17.2098Z" fill="#4D849E"/>
<path d="M155.943 31.4803C155.61 32.3469 155.092 33.149 154.398 33.8496C153.602 34.6424 152.658 35.1955 151.659 35.5182C151.039 35.721 150.4 35.8316 149.762 35.8501C148.725 33.361 149.225 30.3925 151.252 28.3736C152.297 27.3319 153.602 26.6958 154.972 26.4653C155.277 26.41 155.583 26.3823 155.888 26.3731C156.638 26.3455 157.396 26.4469 158.118 26.6589C158.063 26.705 158.007 26.7603 157.961 26.8064C157.692 27.0737 157.461 27.3503 157.248 27.6453C156.758 28.3275 156.471 29.1295 156.351 29.9592C156.267 30.4755 156.138 30.9918 155.943 31.4803Z" fill="#4D849E"/>
<path d="M151.659 13.172C152.659 13.4946 153.603 14.0478 154.399 14.8406C155.093 15.532 155.611 16.3432 155.944 17.2098C156.138 17.7076 156.268 18.2147 156.342 18.7309C156.462 19.5606 156.749 20.3627 157.239 21.0448C157.452 21.3398 157.693 21.6164 157.952 21.8838C158.008 21.9391 158.054 21.9852 158.109 22.0313C157.388 22.2525 156.629 22.3447 155.879 22.317C155.574 22.3078 155.268 22.2802 154.963 22.2249C153.603 21.9944 152.298 21.3583 151.243 20.3166C149.216 18.2976 148.717 15.3292 149.753 12.8401C150.41 12.8585 151.039 12.9692 151.659 13.172Z" fill="#4D849E"/>
<path d="M166.439 10.1298C165.44 9.80717 164.496 9.25405 163.7 8.46123C163.006 7.76981 162.487 6.95855 162.154 6.09198C161.96 5.59417 161.83 5.08713 161.756 4.57088C161.636 3.74118 161.349 2.93914 160.859 2.25695C160.646 1.96195 160.405 1.68538 160.146 1.41804C160.091 1.36272 160.044 1.31663 159.989 1.27054C160.711 1.04928 161.47 0.957096 162.219 0.984753C162.524 0.993972 162.83 1.02163 163.135 1.07694C164.496 1.30741 165.8 1.94351 166.855 2.98524C168.882 5.00416 169.382 7.97263 168.345 10.4617C167.698 10.4433 167.059 10.3326 166.439 10.1298Z" fill="#4D849E"/>
<path d="M155.943 6.10145C155.61 6.96802 155.092 7.77005 154.398 8.47069C153.602 9.2635 152.658 9.81664 151.659 10.1393C151.039 10.3421 150.4 10.4527 149.762 10.4712C148.725 7.98209 149.225 5.01362 151.252 2.9947C152.297 1.95297 153.602 1.31687 154.972 1.0864C155.277 1.03109 155.583 1.00343 155.888 0.994214C156.638 0.966557 157.396 1.06796 158.118 1.28C158.063 1.32609 158.007 1.3814 157.961 1.4275C157.692 1.69485 157.461 1.97141 157.248 2.26641C156.758 2.94861 156.471 3.75064 156.351 4.58034C156.267 5.09659 156.138 5.60363 155.943 6.10145Z" fill="#4D849E"/>
<path d="M140.674 67.9876C141.007 67.1211 141.526 66.319 142.22 65.6184C143.016 64.8256 143.96 64.2725 144.959 63.9498C145.579 63.747 146.218 63.6364 146.856 63.6179C147.892 66.107 147.393 69.0755 145.366 71.0944C144.32 72.1361 143.016 72.7722 141.646 73.0027C141.341 73.058 141.035 73.0857 140.73 73.0949C139.98 73.1225 139.221 73.0211 138.5 72.8091C138.555 72.763 138.611 72.7077 138.657 72.6616C138.925 72.3942 139.157 72.1177 139.369 71.8227C139.86 71.1405 140.147 70.3384 140.267 69.5088C140.35 68.9925 140.48 68.4762 140.674 67.9876Z" fill="#4D849E"/>
<path d="M140.674 42.599C141.007 41.7324 141.526 40.9304 142.22 40.2297C143.016 39.4369 143.96 38.8838 144.959 38.5611C145.579 38.3583 146.218 38.2477 146.856 38.2292C147.892 40.7183 147.393 43.6868 145.366 45.7057C144.32 46.7474 143.016 47.3835 141.646 47.614C141.341 47.6693 141.035 47.697 140.73 47.7062C139.98 47.7339 139.221 47.6325 138.5 47.4204C138.555 47.3743 138.611 47.319 138.657 47.2729C138.925 47.0056 139.157 46.729 139.369 46.434C139.86 45.7518 140.147 44.9498 140.267 44.1201C140.35 43.6038 140.48 43.0876 140.674 42.599Z" fill="#4D849E"/>
<path d="M144.959 60.9077C143.96 60.585 143.016 60.0319 142.22 59.2391C141.526 58.5476 141.008 57.7364 140.675 56.8698C140.481 56.372 140.351 55.865 140.277 55.3487C140.157 54.519 139.87 53.717 139.379 53.0348C139.166 52.7398 138.926 52.4632 138.667 52.1959C138.611 52.1406 138.565 52.0945 138.509 52.0484C139.231 51.8271 139.99 51.7349 140.74 51.7626C141.045 51.7718 141.35 51.7995 141.656 51.8548C143.016 52.0852 144.321 52.7213 145.376 53.7631C147.403 55.782 147.902 58.7505 146.866 61.2395C146.209 61.2211 145.57 61.1105 144.959 60.9077Z" fill="#4D849E"/>
<path d="M140.674 17.2098C141.007 16.3432 141.526 15.5412 142.22 14.8406C143.016 14.0478 143.96 13.4946 144.959 13.172C145.579 12.9692 146.218 12.8585 146.856 12.8401C147.892 15.3292 147.393 18.2976 145.366 20.3166C144.32 21.3583 143.016 21.9944 141.646 22.2249C141.341 22.2802 141.035 22.3078 140.73 22.317C139.98 22.3447 139.221 22.2433 138.5 22.0313C138.555 21.9852 138.611 21.9299 138.657 21.8838C138.925 21.6164 139.157 21.3398 139.369 21.0448C139.86 20.3627 140.147 19.5606 140.267 18.7309C140.35 18.2147 140.48 17.6984 140.674 17.2098Z" fill="#4D849E"/>
<path d="M144.959 35.5185C143.96 35.1958 143.016 34.6427 142.22 33.8499C141.526 33.1585 141.008 32.3472 140.675 31.4807C140.481 30.9828 140.351 30.4758 140.277 29.9595C140.157 29.1299 139.87 28.3278 139.379 27.6456C139.166 27.3506 138.926 27.0741 138.667 26.8067C138.611 26.7514 138.565 26.7053 138.509 26.6592C139.231 26.438 139.99 26.3458 140.74 26.3734C141.045 26.3826 141.35 26.4103 141.656 26.4656C143.016 26.6961 144.321 27.3322 145.376 28.3739C147.403 30.3928 147.902 33.3613 146.866 35.8504C146.209 35.8319 145.57 35.7213 144.959 35.5185Z" fill="#4D849E"/>
<path d="M144.959 10.1298C143.96 9.80717 143.016 9.25405 142.22 8.46123C141.526 7.76981 141.008 6.95855 140.675 6.09198C140.481 5.59417 140.351 5.08713 140.277 4.57088C140.157 3.74118 139.87 2.93914 139.379 2.25695C139.166 1.96195 138.926 1.68538 138.667 1.41804C138.611 1.36272 138.565 1.31663 138.509 1.27054C139.231 1.04928 139.99 0.957096 140.74 0.984753C141.045 0.993972 141.35 1.02163 141.656 1.07694C143.016 1.30741 144.321 1.94351 145.376 2.98524C147.403 5.00416 147.902 7.97263 146.866 10.4617C146.209 10.4433 145.57 10.3326 144.959 10.1298Z" fill="#4D849E"/>
</svg>
