<svg width="189" height="52" viewBox="0 0 189 52" fill="none" xmlns="http://www.w3.org/2000/svg">
<g clip-path="url(#clip0_234_5234)">
<path d="M180.032 11.7033C179.497 13.1662 178.693 14.4962 177.489 15.5601C176.418 16.624 175.213 17.289 173.875 17.821C173.072 18.087 172.402 18.2199 171.599 18.3529C170.395 18.4859 169.19 18.8849 168.119 19.6829C167.718 19.9488 167.316 20.3478 166.914 20.7468C166.781 20.8798 166.781 20.8798 166.647 21.0128C166.379 19.9488 166.111 18.8849 166.245 17.821C166.245 17.422 166.245 16.89 166.379 16.491C166.781 14.4962 167.718 12.6343 169.19 11.1714C172.269 8.24552 176.686 7.58056 180.434 9.04348C180.434 9.84143 180.3 10.7724 180.032 11.7033ZM176.552 41.0946C176.552 41.2276 176.418 41.2276 176.418 41.2276H174.544C173.473 41.2276 172.536 40.4297 172.536 39.3657V20.0818C173.205 19.9488 173.875 19.8159 174.544 19.5499C175.213 19.2839 175.883 19.0179 176.552 18.6189V41.0946ZM169.591 30.5882L166.914 33.1151L164.639 30.9872L165.977 29.6573L166.111 29.5243C166.513 29.1253 166.781 28.5934 166.781 28.0614V23.5396L168.387 21.9437C168.654 21.6777 169.056 21.4118 169.458 21.1458C169.859 20.8798 170.261 20.6138 170.796 20.4808V26.3325V27.9284C170.662 28.8593 170.261 29.7903 169.591 30.5882ZM165.174 34.711C164.639 35.243 164.103 35.509 163.3 35.509C162.497 35.509 161.828 35.243 161.293 34.711L160.489 33.913L156.875 30.4552C156.072 29.7903 155.671 28.7263 155.671 27.7954V26.1995V20.3478C156.206 20.4808 156.608 20.7468 157.009 21.0128C157.411 21.2788 157.679 21.5448 158.08 21.8107L159.686 23.4067V27.9284C159.686 28.4604 159.954 28.9923 160.356 29.3913L160.489 29.5243L162.497 31.5192L165.442 34.312L165.174 34.711ZM152.592 17.821C151.254 17.289 150.049 16.624 148.978 15.5601C147.773 14.3632 146.97 13.0332 146.435 11.7033C146.167 10.7724 146.033 9.84143 145.9 9.04348C149.647 7.58056 154.065 8.24552 157.143 11.1714C158.749 12.6343 159.686 14.4962 159.954 16.491C160.088 16.89 160.088 17.422 160.088 17.821C160.088 18.8849 159.954 19.9488 159.686 21.0128C159.552 20.8798 159.552 20.8798 159.419 20.7468C159.017 20.3478 158.616 20.0818 158.214 19.6829C157.143 19.0179 155.938 18.6189 154.734 18.3529C154.065 18.2199 153.261 18.087 152.592 17.821ZM153.931 39.3657C153.931 40.4297 152.994 41.2276 151.923 41.2276H150.049C149.915 41.2276 149.915 41.0946 149.915 41.0946V18.6189C150.584 19.0179 151.12 19.2839 151.923 19.5499C152.592 19.8159 153.261 19.9488 153.931 20.0818V39.3657ZM178.426 0H137.467V39.2327C137.467 44.8184 142.285 49.4731 148.175 49.4731H189.134V10.2404C189 4.52174 184.315 0 178.426 0Z" fill="#4486A0"/>
<path d="M16.1961 27.2634H3.2124V25.6675C3.2124 21.6777 5.4879 19.4169 9.63733 19.4169C13.7868 19.4169 16.0623 21.6777 16.0623 25.6675V27.2634H16.1961ZM16.5977 19.0179C14.7237 17.156 12.4482 16.358 9.77118 16.358C7.09413 16.358 4.81863 17.289 2.9447 19.0179C1.07076 20.8798 0.133789 23.0076 0.133789 25.6675C0.133789 27.3964 0.535347 28.9923 1.47232 30.3222H18.2039C19.1409 28.8593 19.5424 27.3964 19.5424 25.6675C19.4086 23.0076 18.4716 20.8798 16.5977 19.0179Z" fill="#A0A1A2"/>
<path d="M66.3907 16.358H62.6428V27.3964H36.4077L36.5415 26.0665C36.5415 25.8005 36.5415 25.5345 36.5415 25.4015C36.5415 23.0076 35.6046 20.8798 33.8645 19.1509C32.1244 17.555 30.1166 16.624 27.7072 16.491V19.5498C31.4551 19.6828 33.4629 21.8107 33.4629 25.4015C33.4629 25.6675 33.4629 26.0665 33.3291 26.3325L33.1952 27.3964H23.1562V30.4552H66.3907V16.358Z" fill="#A0A1A2"/>
<path d="M66.2567 32.5831H62.5088V35.642H66.2567V32.5831Z" fill="#A0A1A2"/>
<path d="M59.8319 32.5831H56.084V35.642H59.8319V32.5831Z" fill="#A0A1A2"/>
<path d="M14.8573 10.9054H11.1094V13.9642H14.8573V10.9054Z" fill="#A0A1A2"/>
<path d="M8.29866 10.9054H4.55078V13.9642H8.29866V10.9054Z" fill="#A0A1A2"/>
<path d="M116.452 19.6829C120.2 19.6829 122.207 21.6778 122.207 25.2686C122.207 28.8594 120.2 30.8543 116.452 30.8543C112.704 30.8543 110.696 28.8594 110.696 25.2686C110.696 21.6778 112.704 19.6829 116.452 19.6829ZM80.1776 27.2635H70.1387V30.3223H108.822L109.224 30.7213C111.098 32.9821 113.507 34.0461 116.586 34.0461C119.129 34.0461 121.404 33.1151 123.144 31.3862C124.884 29.6573 125.821 27.5294 125.821 25.1356C125.821 22.7417 124.884 20.6138 123.144 18.8849C121.404 17.156 119.129 16.2251 116.586 16.2251C114.042 16.2251 111.767 17.156 110.027 18.8849C108.287 20.6138 107.35 22.7417 107.35 25.1356C107.35 25.4016 107.35 25.6676 107.35 25.8005L107.484 27.1305H83.3901L83.5239 25.8005C83.5239 25.5346 83.5239 25.2686 83.5239 25.1356C83.5239 22.7417 82.587 20.6138 80.8469 18.8849C79.1068 17.289 77.099 16.3581 74.6897 16.2251V19.2839C78.4375 19.4169 80.4453 21.5448 80.4453 25.1356C80.4453 25.4016 80.4453 25.8005 80.3115 26.0665L80.1776 27.2635Z" fill="#A0A1A2"/>
<path d="M70.4067 8.77746H76.2963V3.45776H75.2254V7.9795H70.5406C69.8713 7.9795 69.3359 7.84651 68.9344 7.44753C68.5328 7.04856 68.3989 6.64958 68.3989 6.11761C68.3989 5.58564 68.5328 5.18666 68.8005 4.92068C69.0682 4.65469 69.4698 4.5217 70.0052 4.38871L69.8713 3.45776C69.0682 3.45776 68.3989 3.85674 67.9974 4.25572C67.5958 4.78769 67.3281 5.31966 67.3281 6.11761C67.3281 7.04856 67.5958 7.71352 68.1312 8.11249C68.6667 8.51147 69.4698 8.77746 70.4067 8.77746Z" fill="#4486A0"/>
<path d="M73.7525 1.1969H72.6816V2.39383H73.7525V1.1969Z" fill="#4486A0"/>
<path d="M72.147 1.1969H71.0762V2.39383H72.147V1.1969Z" fill="#4486A0"/>
<path d="M80.5793 7.84649H79.107V0.132935H78.0361V8.77744H80.5793V7.84649Z" fill="#4486A0"/>
<path d="M84.8623 8.77746V7.84651H83.3899V3.45776H82.3191V7.84651H80.8467V8.77746H84.8623Z" fill="#4486A0"/>
<path d="M81.7837 9.7085H80.7129V10.9054H81.7837V9.7085Z" fill="#4486A0"/>
<path d="M83.3902 9.7085H82.3193V10.9054H83.3902V9.7085Z" fill="#4486A0"/>
<path d="M80.9807 7.84656H80.5791V8.7775H80.9807V7.84656Z" fill="#4486A0"/>
<path d="M87.1377 5.85162C87.1377 5.31965 87.2716 4.92067 87.5393 4.5217C87.807 4.25571 88.2086 4.12272 88.744 4.12272C89.2794 4.12272 89.6809 4.25571 89.9486 4.5217C90.2163 4.78768 90.3502 5.31965 90.3502 5.85162V7.8465H89.5471C88.8778 7.8465 88.3424 7.71351 87.9408 7.31453C87.2716 6.91556 87.1377 6.51658 87.1377 5.85162ZM92.358 8.77745V7.8465H91.2872V5.85162C91.2872 4.92067 91.0195 4.3887 90.6179 3.85673C90.2163 3.45776 89.5471 3.19177 88.744 3.19177C87.9409 3.19177 87.2716 3.45776 86.7362 3.85673C86.2008 4.3887 85.9331 4.92067 85.9331 5.71863C85.9331 6.1176 86.0669 6.64957 86.2008 6.91556C86.4685 7.31453 86.7362 7.58052 87.0039 7.71351H84.9961V8.64446H92.358V8.77745Z" fill="#4486A0"/>
<path d="M89.2798 1.1969H88.209V2.39383H89.2798V1.1969Z" fill="#4486A0"/>
<path d="M85.2639 7.84656H84.8623V8.7775H85.2639V7.84656Z" fill="#4486A0"/>
<path d="M103.468 8.77751V7.84657H101.996V4.52176C101.996 4.25578 101.996 3.98979 101.862 3.8568C101.862 3.72381 101.728 3.45782 101.594 3.32483L100.657 3.72381C100.791 3.98979 100.925 4.25578 100.925 4.65475V7.97956H98.6493V3.45782H97.7123V7.97956H95.303V3.45782H94.2321V7.97956H92.7598V8.91051H103.468V8.77751Z" fill="#4486A0"/>
<path d="M99.4526 1.46289H98.5156V2.52683H99.4526V1.46289Z" fill="#4486A0"/>
<path d="M97.8461 1.46289H96.9092V2.52683H97.8461V1.46289Z" fill="#4486A0"/>
<path d="M98.6499 0H97.7129V1.06394H98.6499V0Z" fill="#4486A0"/>
<path d="M92.76 7.84656H92.3584V8.7775H92.76V7.84656Z" fill="#4486A0"/>
<path d="M104.807 1.1969H103.736V2.39383H104.807V1.1969Z" fill="#4486A0"/>
<path d="M107.886 8.77746V7.84651H106.413V3.45776H105.342V7.84651H103.87V8.77746H107.886Z" fill="#4486A0"/>
<path d="M106.413 1.1969H105.342V2.39383H106.413V1.1969Z" fill="#4486A0"/>
<path d="M103.869 7.84656H103.468V8.7775H103.869V7.84656Z" fill="#4486A0"/>
<path d="M118.995 8.77751V7.84657H117.523V4.52176C117.523 4.25578 117.523 3.98979 117.389 3.8568C117.389 3.72381 117.255 3.45782 117.121 3.32483L116.184 3.72381C116.318 3.8568 116.452 4.25578 116.452 4.52176V7.84657H114.177V3.45782H113.106V7.97956H110.697V3.45782H109.626V7.97956H108.153V8.91051H118.995V8.77751Z" fill="#4486A0"/>
<path d="M108.287 7.84656H107.886V8.7775H108.287V7.84656Z" fill="#4486A0"/>
<path d="M121.538 5.85162C121.538 4.65469 122.074 3.98973 123.144 3.98973C123.68 3.98973 124.081 4.12272 124.349 4.3887C124.617 4.65469 124.751 5.05367 124.751 5.71863C124.751 6.38359 124.617 6.91556 124.215 7.18154C123.814 7.58052 123.278 7.71351 122.475 7.71351H121.672V5.85162H121.538ZM122.074 8.77745C123.144 8.77745 124.081 8.51147 124.751 7.9795C125.42 7.44753 125.688 6.64957 125.688 5.71863C125.688 4.92067 125.42 4.25571 125.018 3.85673C124.483 3.32476 123.947 3.19177 123.144 3.19177C122.341 3.19177 121.672 3.45776 121.27 3.85673C120.601 4.3887 120.467 5.05367 120.467 5.85162V7.8465H119.396V8.77745H122.074Z" fill="#4486A0"/>
<path d="M119.397 7.84656H118.995V8.7775H119.397V7.84656Z" fill="#4486A0"/>
<path d="M15.3929 47.2122V46.4143H13.6528C12.4482 46.4143 12.1805 46.8132 12.1805 47.3452C12.1805 47.8772 12.7159 48.2762 13.519 48.2762C14.3221 48.2762 15.1252 48.0102 15.3929 47.2122ZM17.133 45.3503V49.4731H15.5268V48.6751C15.1252 49.3401 14.3221 49.6061 13.2513 49.6061C11.5112 49.6061 10.5742 48.6751 10.5742 47.4782C10.5742 46.2813 11.3773 45.3503 13.6528 45.3503H15.5268V45.2173C15.5268 44.2864 14.8575 43.7544 13.6528 43.7544C12.8497 43.7544 12.0466 44.0204 11.3773 44.4194L10.7081 43.2225C11.5112 42.6905 12.582 42.2915 13.7867 42.2915C15.9283 42.2915 17.133 43.3554 17.133 45.3503Z" fill="#4486A0"/>
<path d="M24.495 45.8824C24.495 44.5524 23.5581 43.7545 22.3534 43.7545C21.1487 43.7545 20.2118 44.5524 20.2118 45.8824C20.2118 47.2123 21.1487 48.1432 22.3534 48.1432C23.5581 48.1432 24.495 47.2123 24.495 45.8824ZM26.2351 39.6317V49.3402H24.6289V48.4092C24.0935 49.0742 23.1565 49.4731 22.2196 49.4731C20.0779 49.4731 18.4717 48.0102 18.4717 45.8824C18.4717 43.7545 20.0779 42.2916 22.2196 42.2916C23.1565 42.2916 23.9596 42.5575 24.6289 43.2225V39.6317H26.2351Z" fill="#4486A0"/>
<path d="M29.3133 45.3504H33.4627C33.3288 44.2865 32.5257 43.6215 31.4549 43.6215C30.2502 43.6215 29.4471 44.2865 29.3133 45.3504ZM35.0689 46.4143H29.3133C29.581 47.4783 30.3841 48.1432 31.7226 48.1432C32.5257 48.1432 33.195 47.8772 33.7304 47.3453L34.6674 48.4092C33.9981 49.2072 32.9273 49.6061 31.7226 49.6061C29.3133 49.6061 27.707 48.1432 27.707 46.0154C27.707 43.8875 29.3133 42.4246 31.4549 42.4246C33.5965 42.4246 35.2028 43.8875 35.2028 46.0154C35.0689 46.1483 35.0689 46.2813 35.0689 46.4143Z" fill="#4486A0"/>
<path d="M37.6131 45.3504H41.7625C41.6287 44.2865 40.8255 43.6215 39.7547 43.6215C38.55 43.6215 37.7469 44.2865 37.6131 45.3504ZM43.3687 46.4143H37.6131C37.8808 47.4783 38.6839 48.1432 40.0224 48.1432C40.8255 48.1432 41.4948 47.8772 42.0302 47.3453L42.9672 48.4092C42.2979 49.2072 41.2271 49.6061 40.0224 49.6061C37.6131 49.6061 36.0068 48.1432 36.0068 46.0154C36.0068 43.8875 37.6131 42.4246 39.7547 42.4246C41.8964 42.4246 43.5026 43.8875 43.5026 46.0154C43.3687 46.1483 43.3687 46.2813 43.3687 46.4143Z" fill="#4486A0"/>
<path d="M50.1952 45.8824C50.1952 44.5524 49.2583 43.7545 48.0536 43.7545C46.8489 43.7545 45.912 44.5524 45.912 45.8824C45.912 47.2123 46.8489 48.1432 48.0536 48.1432C49.2583 48.1432 50.1952 47.2123 50.1952 45.8824ZM51.9353 39.6317V49.3402H50.3291V48.4092C49.7937 49.0742 48.8567 49.4731 47.9197 49.4731C45.7781 49.4731 44.1719 48.0102 44.1719 45.8824C44.1719 43.7545 45.7781 42.2916 47.9197 42.2916C48.8567 42.2916 49.6598 42.5575 50.3291 43.2225V39.6317H51.9353Z" fill="#4486A0"/>
<path d="M58.2259 47.2122V46.4143H56.4858C55.2812 46.4143 55.0135 46.8132 55.0135 47.3452C55.0135 47.8772 55.5489 48.2762 56.352 48.2762C57.289 48.2762 57.9582 48.0102 58.2259 47.2122ZM59.966 45.3503V49.4731H58.3598V48.6751C57.9582 49.3401 57.1551 49.6061 56.0843 49.6061C54.3442 49.6061 53.4072 48.6751 53.4072 47.4782C53.4072 46.2813 54.2103 45.3503 56.4858 45.3503H58.3598V45.2173C58.3598 44.2864 57.6905 43.7544 56.4858 43.7544C55.6827 43.7544 54.8796 44.0204 54.2103 44.4194L53.5411 43.2225C54.3442 42.6905 55.415 42.2915 56.6197 42.2915C58.7613 42.2915 59.966 43.3554 59.966 45.3503Z" fill="#4486A0"/>
<path d="M80.1777 45.8823C80.1777 44.5524 79.2407 43.7544 78.036 43.7544C76.8313 43.7544 75.8944 44.5524 75.8944 45.8823C75.8944 47.2122 76.8313 48.1432 78.036 48.1432C79.2407 48.1432 80.1777 47.2122 80.1777 45.8823ZM74.1543 45.8823C74.1543 43.7544 75.7605 42.2915 78.036 42.2915C80.3115 42.2915 81.9178 43.7544 81.9178 45.8823C81.9178 48.0102 80.3115 49.4731 78.036 49.4731C75.7605 49.4731 74.1543 48.0102 74.1543 45.8823Z" fill="#4486A0"/>
<path d="M82.4531 48.8081L83.1224 47.6112C83.7917 48.0102 84.7286 48.2762 85.6656 48.2762C86.7364 48.2762 87.138 48.0102 87.138 47.4782C87.138 46.1483 82.587 47.3452 82.587 44.5524C82.587 43.2225 83.7917 42.2915 85.7994 42.2915C86.7364 42.2915 87.9411 42.5575 88.4765 42.9565L87.8072 44.1534C87.138 43.7544 86.4687 43.6214 85.6656 43.6214C84.5948 43.6214 84.1932 43.8874 84.1932 44.4194C84.1932 45.8823 88.7442 44.5524 88.7442 47.3452C88.7442 48.6751 87.5395 49.4731 85.3979 49.4731C84.3271 49.4731 83.1224 49.2071 82.4531 48.8081Z" fill="#4486A0"/>
<path d="M96.1065 45.8823C96.1065 44.5524 95.1695 43.7544 93.9648 43.7544C92.7601 43.7544 91.8232 44.5524 91.8232 45.8823C91.8232 47.2122 92.7601 48.1432 93.9648 48.1432C95.1695 48.1432 96.1065 47.2122 96.1065 45.8823ZM97.8465 45.8823C97.8465 48.0102 96.2403 49.4731 94.0987 49.4731C93.1617 49.4731 92.3586 49.2071 91.6893 48.5421V51.9999H89.9492V42.4245H91.5555V43.3554C92.0909 42.6905 93.0278 42.2915 93.9648 42.2915C96.2403 42.2915 97.8465 43.7544 97.8465 45.8823Z" fill="#4486A0"/>
<path d="M99.1847 42.4245H100.925V49.4731H99.1847V42.4245ZM98.917 40.2967C98.917 39.7647 99.3185 39.3657 99.9878 39.3657C100.657 39.3657 101.059 39.7647 101.059 40.2967C101.059 40.8286 100.657 41.3606 99.9878 41.3606C99.4524 41.2276 98.917 40.8286 98.917 40.2967Z" fill="#4486A0"/>
<path d="M107.216 49.0742C106.815 49.3402 106.146 49.6062 105.61 49.6062C104.004 49.6062 103.067 48.8082 103.067 47.2123V43.8875H101.862V42.5576H103.067V40.9617H104.807V42.5576H106.815V43.8875H104.807V47.2123C104.807 47.8773 105.209 48.2762 105.878 48.2762C106.279 48.2762 106.547 48.1433 106.815 48.0103L107.216 49.0742Z" fill="#4486A0"/>
<path d="M112.838 47.2122V46.4143H111.098C109.893 46.4143 109.626 46.8132 109.626 47.3452C109.626 47.8772 110.161 48.2762 110.964 48.2762C111.767 48.2762 112.571 48.0102 112.838 47.2122ZM114.578 45.3503V49.4731H112.972V48.6751C112.571 49.3401 111.767 49.6061 110.697 49.6061C109.09 49.6061 108.02 48.6751 108.02 47.4782C108.02 46.2813 108.823 45.3503 111.098 45.3503H112.972V45.2173C112.972 44.2864 112.303 43.7544 111.098 43.7544C110.295 43.7544 109.358 44.0204 108.823 44.4194L108.153 43.2225C108.957 42.6905 110.027 42.2915 111.232 42.2915C113.374 42.2915 114.578 43.3554 114.578 45.3503Z" fill="#4486A0"/>
<path d="M118.192 39.6317H116.452V49.3402H118.192V39.6317Z" fill="#4486A0"/>
<path d="M119.263 48.8081L119.932 47.6112C120.601 48.0102 121.538 48.2762 122.475 48.2762C123.546 48.2762 123.948 48.0102 123.948 47.4782C123.948 46.1483 119.397 47.3452 119.397 44.5524C119.397 43.2225 120.601 42.2915 122.609 42.2915C123.546 42.2915 124.751 42.5575 125.286 42.9565L124.617 44.1534C123.948 43.7544 123.278 43.6214 122.475 43.6214C121.404 43.6214 121.003 43.8874 121.003 44.4194C121.003 45.8823 125.554 44.5524 125.554 47.3452C125.554 48.6751 124.349 49.4731 122.207 49.4731C121.137 49.4731 119.932 49.2071 119.263 48.8081Z" fill="#4486A0"/>
<path d="M71.2096 44.0205H67.4618V40.1637H65.7217V44.0205V45.7494V49.6061H67.4618V45.7494H71.2096V49.6061H72.9497V40.1637H71.2096V44.0205Z" fill="#4486A0"/>
<path d="M1.60623 40.2966L4.55099 43.8874L7.49575 40.2966H9.10198V49.4731H7.3619V42.9565H7.22804L4.68484 46.2813H4.41714L1.74008 42.9565V49.4731H0V40.2966H1.60623Z" fill="#4486A0"/>
</g>
<defs>
<clipPath id="clip0_234_5234">
<rect width="189" height="52" fill="white"/>
</clipPath>
</defs>
</svg>
