<svg width="159" height="133" viewBox="0 0 159 133" fill="none" xmlns="http://www.w3.org/2000/svg">
<path d="M133.732 38.413C138.727 36.5075 143.35 33.5433 147.389 29.5734C151.959 25.0212 155.147 19.6222 157.007 13.9055C158.176 10.359 158.814 6.70674 158.92 3.05443C144.573 -2.87395 127.462 -0.0156311 115.825 11.5765C109.82 17.5578 106.154 25.0212 104.825 32.8552C104.506 34.6019 104.347 36.3487 104.294 38.0954C104.134 42.3829 104.719 46.7234 105.941 50.8521C106.207 50.5345 106.526 50.2169 106.791 49.9522C108.332 48.4172 109.926 47.0939 111.627 45.8764C115.559 43.071 120.182 41.4301 124.965 40.742C127.94 40.2656 130.863 39.4717 133.732 38.413Z" fill="#4D849E"/>
<path d="M28.1987 13.9059C30.0585 19.6226 33.2468 25.0217 37.8167 29.5738C41.8021 33.5437 46.4783 36.5079 51.4733 38.4135C54.3428 39.525 57.2654 40.2661 60.2411 40.6895C65.0236 41.3777 69.6466 43.0186 73.5789 45.8239C75.2793 47.0414 76.8734 48.4176 78.4144 49.8997C78.7333 50.2173 78.999 50.482 79.2647 50.7996C80.54 46.6709 81.0714 42.3304 80.9119 38.0429C80.8588 36.2962 80.6994 34.5494 80.3806 32.8027C79.0521 25.0217 75.3856 17.5582 69.3809 11.524C57.7436 -0.0681214 40.6331 -2.92644 26.2857 3.00194C26.392 6.70718 27.0297 10.3595 28.1987 13.9059Z" fill="#4D849E"/>
<path d="M51.4204 73.878C46.4254 75.7835 41.8023 78.7477 37.7638 82.7176C33.1939 87.2698 30.0056 92.6689 28.1458 98.3855C26.9767 101.932 26.3391 105.584 26.2328 109.237C40.5801 115.165 57.6907 112.307 69.328 100.715C75.3326 94.7332 78.9992 87.2698 80.3276 79.4358C80.6465 77.6891 80.8059 75.9423 80.859 74.1956C81.0184 69.9081 80.4339 65.5677 79.2117 61.439C78.946 61.7566 78.6272 62.0741 78.3615 62.3388C76.8205 63.8738 75.2263 65.1971 73.5259 66.4146C69.5937 69.22 64.9706 70.8609 60.1882 71.549C57.2124 72.0254 54.2898 72.8193 51.4204 73.878Z" fill="#4D849E"/>
<path d="M157.007 98.3858C155.147 92.6692 151.959 87.2701 147.389 82.7179C143.404 78.748 138.727 75.7838 133.732 73.8783C130.863 72.7667 127.94 72.0257 124.965 71.6022C120.182 70.9141 115.559 69.2732 111.627 66.4678C109.926 65.2504 108.332 63.8741 106.791 62.392C106.472 62.0745 106.207 61.8098 105.941 61.4922C104.666 65.6209 104.134 69.9613 104.294 74.2488C104.347 75.9956 104.506 77.7423 104.825 79.4891C106.154 87.2701 109.82 94.7335 115.825 100.768C127.462 112.307 144.573 115.165 158.92 109.237C158.814 105.585 158.176 101.932 157.007 98.3858Z" fill="#4D849E"/>
<path d="M109.903 57.6981C114.903 55.7083 119.635 52.7503 123.668 48.663C128.293 44.0379 131.573 38.6061 133.455 32.7441C134.584 29.1946 135.229 25.4838 135.391 21.7729C120.872 15.7496 103.557 18.6537 91.7812 30.4316C85.705 36.5087 81.9947 44.0917 80.6504 52.0512C80.3277 53.8259 80.1664 55.6007 80.1126 57.3754C79.9513 61.7316 80.5428 66.1416 81.7796 70.3365C82.0484 70.0138 82.3711 69.6911 82.6399 69.4222C84.1993 67.8088 85.8125 66.4643 87.5332 65.2274C91.5124 62.3232 96.1368 60.656 100.976 60.0107C104.041 59.5804 106.999 58.7737 109.903 57.6981Z" stroke="#4D849E" stroke-opacity="0.3" stroke-width="0.3" stroke-miterlimit="10"/>
<path d="M2.93661 32.745C4.81864 38.5532 8.04498 44.0388 12.6694 48.6639C16.7023 52.6974 21.4343 55.7091 26.4889 57.6452C29.3926 58.7746 32.3501 59.5275 35.3614 59.9578C40.2009 60.6569 44.8791 62.3241 48.8582 65.1744C50.5789 66.4114 52.1921 67.8097 53.7515 69.3155C54.0741 69.6382 54.343 69.9071 54.6119 70.2298C55.9024 66.0349 56.4401 61.625 56.2788 57.2688C56.225 55.494 56.0637 53.7193 55.7411 51.9445C54.3968 44.0388 50.6865 36.4558 44.6102 30.3249C32.834 18.547 15.5193 15.6429 1.0008 21.6663C1.16211 25.4847 1.80739 29.1955 2.93661 32.745Z" stroke="#4D849E" stroke-opacity="0.3" stroke-width="0.3" stroke-miterlimit="10"/>
<path d="M26.4907 93.569C21.4361 95.5051 16.7579 98.5168 12.6712 102.55C8.04677 107.175 4.82043 112.661 2.93839 118.469C1.7554 122.073 1.11013 125.783 1.00259 129.494C15.5211 135.518 32.8358 132.613 44.612 120.836C50.6883 114.758 54.3986 107.175 55.7429 99.2159C56.0655 97.4412 56.2268 95.6664 56.2806 93.8917C56.4419 89.5355 55.8504 85.1255 54.6136 80.9307C54.3448 81.2533 54.0221 81.576 53.7533 81.8449C52.1939 83.4046 50.5807 84.7491 48.86 85.986C44.8808 88.8364 40.2026 90.5035 35.3631 91.2027C32.3519 91.6867 29.3944 92.4396 26.4907 93.569Z" stroke="#4D849E" stroke-opacity="0.3" stroke-width="0.3" stroke-miterlimit="10"/>
<path d="M133.455 118.469C131.573 112.661 128.346 107.176 123.722 102.55C119.689 98.517 114.957 95.5053 109.903 93.5692C106.999 92.4398 104.041 91.6869 101.03 91.2566C96.1906 90.5575 91.5124 88.8903 87.5332 86.04C85.8125 84.803 84.1993 83.4047 82.6399 81.8989C82.3173 81.5762 82.0484 81.3073 81.7796 80.9846C80.489 85.1795 79.9513 89.5895 80.1126 93.9456C80.1664 95.7204 80.3277 97.4951 80.6504 99.2699C81.9947 107.176 85.705 114.759 91.7812 120.89C103.557 132.667 120.872 135.572 135.391 129.548C135.229 125.784 134.584 122.073 133.455 118.469Z" stroke="#4D849E" stroke-opacity="0.3" stroke-width="0.3" stroke-miterlimit="10"/>
</svg>
