<svg width="22" height="22" viewBox="0 0 22 22" fill="none" xmlns="http://www.w3.org/2000/svg">
<g clip-path="url(#clip0_236_5920)">
<path d="M6.13184 5.67773L14.0767 16.2982H15.8757L7.93089 5.67773H6.13184Z" fill="white"/>
<path d="M10.9879 0.121094C4.98628 0.121094 0.121094 4.98628 0.121094 10.9879C0.121094 16.9895 4.98628 21.8547 10.9879 21.8547C16.9895 21.8547 21.8547 16.9895 21.8547 10.9879C21.8547 4.98628 16.9895 0.121094 10.9879 0.121094ZM13.6519 17.1467L10.035 12.3105L5.55836 17.1467H4.40768L9.52087 11.623L4.4398 4.82907H8.35595L11.687 9.28301L15.8096 4.82907H16.9603L12.2011 9.97076L17.5681 17.1467H13.6519Z" fill="white"/>
</g>
<defs>
<clipPath id="clip0_236_5920">
<rect width="22" height="22" fill="white"/>
</clipPath>
</defs>
</svg>
